<?xml version="1.0" standalone="no"?>
<!DOCTYPE svg PUBLIC "-//W3C//DTD SVG 1.1//EN" "http://www.w3.org/Graphics/SVG/1.1/DTD/svg11.dtd" >
<svg xmlns="http://www.w3.org/2000/svg" xmlns:xlink="http://www.w3.org/1999/xlink" version="1.1">
<metadata>
Created by FontForge 20170731 at Wed Jun  6 00:48:03 2018
 By Aleksey,,,
Copyright (c) 2018 Swiss Typefaces Sarl. All rights reserved.
</metadata>
<defs>
<font id="EuclidCircularA-Semibold" horiz-adv-x="0" >
  <font-face 
    font-family="Euclid Circular A Semibold"
    font-weight="600"
    font-stretch="normal"
    units-per-em="1000"
    panose-1="2 11 7 4 0 0 0 0 0 0"
    ascent="806"
    descent="-194"
    x-height="500"
    cap-height="710"
    bbox="-217 -306 1371 1000"
    underline-thickness="100"
    underline-position="-334"
    unicode-range="U+0020-FEFF"
  />
<missing-glyph horiz-adv-x="644" 
d="M72 0v710h500v-710h-500zM538 691h-432l216 -321zM311 355l-220 327v-654zM332 355l221 -327v654zM322 339l-216 -320h432z" />
    <glyph glyph-name="uni0407_uni0407" unicode="&#x407;&#x407;" horiz-adv-x="606" 
d="M102 847q0 -31 -22 -53t-53 -22t-53.5 22t-22.5 53t22.5 53.5t53.5 22.5t53 -22.5t22 -53.5zM372 847q0 -31 -22 -53t-53 -22t-53.5 22t-22.5 53t22.5 53.5t53.5 22.5t53 -22.5t22 -53.5zM641 847q0 -31 -22 -53t-53 -22t-53.5 22t-22.5 53t22 53.5t54 22.5
q31 0 53 -22.5t22 -53.5zM79 0v710h145v-710h-145zM382 0v710h145v-710h-145z" />
    <glyph glyph-name="uni0457_uni0457" unicode="&#x457;&#x457;" horiz-adv-x="539" 
d="M119 652q0 -31 -22.5 -53t-53.5 -22t-53 22t-22 53t22 53.5t53 22.5t53.5 -22.5t22.5 -53.5zM344 652q0 -31 -22.5 -53t-53.5 -22t-53 22t-22 53t22 53.5t53 22.5q32 0 54 -22t22 -54zM571 652q0 -31 -22 -53t-53 -22t-53.5 22t-22.5 53q0 32 22 54t54 22q31 0 53 -22.5
t22 -53.5zM203 0h-137v500h137v-500zM472 0h-137v500h137v-500z" />
    <glyph glyph-name="uni0457_uni0458" unicode="&#x457;&#x458;" horiz-adv-x="539" 
d="M119 652q0 -31 -22.5 -53t-53.5 -22t-53 22t-22 53t22 53.5t53 22.5t53.5 -22.5t22.5 -53.5zM344 652q0 -31 -22.5 -53t-53.5 -22t-53 22t-22 53t22 53.5t53 22.5q32 0 54 -22t22 -54zM571 652q0 -31 -22 -53t-53 -22t-53.5 22t-22.5 53q0 32 22 54t54 22q31 0 53 -22.5
t22 -53.5zM203 0h-137v500h137v-500zM472 500v-538q0 -87 -53 -134t-132 -47q-37 0 -57 4v117q14 -2 26 -2q40 0 59.5 19.5t19.5 64.5v516h137z" />
    <glyph glyph-name="f_f" unicode="ff" horiz-adv-x="788" 
d="M119 0v380h-101v120h101v75q0 88 53.5 134.5t137.5 46.5q52 0 87 -11v-121q-11 8 -56 8t-65 -19.5t-20 -64.5v-48h110v-120h-110v-380h-137zM495 0v380h-80v120h80v75q0 88 53.5 134.5t137.5 46.5q51 0 87 -11v-121q-21 8 -57 8q-44 0 -64 -19.5t-20 -64.5v-48h141v-120
h-141v-380h-137z" />
    <glyph glyph-name="f_i" unicode="fi" horiz-adv-x="681" 
d="M119 0v380h-101v120h101v65q0 89 54.5 140t136.5 51q52 0 87 -11v-121q-24 9 -56 9q-45 0 -65 -20t-20 -65v-48h141v-120h-141v-380h-137zM634 669q0 -36 -25.5 -61.5t-62.5 -25.5q-35 0 -61 25.5t-26 61.5t26 61.5t61 25.5q37 0 62.5 -25.5t25.5 -61.5zM478 0v500h137
v-500h-137z" />
    <glyph glyph-name="f_f_i" unicode="ffi" horiz-adv-x="1057" 
d="M1010 669q0 -36 -25.5 -61.5t-62.5 -25.5q-35 0 -61 25.5t-26 61.5t26 61.5t61 25.5q37 0 62.5 -25.5t25.5 -61.5zM119 0v380h-101v120h101v75q0 88 53.5 134.5t137.5 46.5q52 0 87 -11v-121q-11 8 -56 8t-65 -19.5t-20 -64.5v-48h110v-120h-110v-380h-137zM495 0v380
h-80v120h80v75q0 88 53.5 134.5t137.5 46.5q51 0 87 -11v-121q-21 8 -57 8q-44 0 -64 -19.5t-20 -64.5v-48h141v-120h-141v-380h-137zM854 0v500h137v-500h-137z" />
    <glyph glyph-name="f_l" unicode="fl" horiz-adv-x="681" 
d="M119 0v380h-101v120h101v65q0 89 54.5 140t136.5 51q52 0 87 -11v-121q-24 9 -56 9q-45 0 -65 -20t-20 -65v-48h141v-120h-141v-380h-137zM478 0v750h137v-750h-137z" />
    <glyph glyph-name="f_f_l" unicode="ffl" horiz-adv-x="1056" 
d="M119 0v380h-101v120h101v75q0 88 53.5 134.5t137.5 46.5q52 0 87 -11v-121q-11 8 -56 8t-65 -19.5t-20 -64.5v-48h110v-120h-110v-380h-137zM495 0v380h-80v120h80v75q0 88 53.5 134.5t137.5 46.5q51 0 87 -11v-121q-21 8 -57 8q-44 0 -64 -19.5t-20 -64.5v-48h141v-120
h-141v-380h-137zM854 0v750h137v-750h-137z" />
    <glyph glyph-name="f_t" unicode="ft" horiz-adv-x="815" 
d="M119 0v380h-101v120h101v75q0 88 53.5 134.5t137.5 46.5q52 0 87 -11v-121q-21 8 -56 8q-45 0 -65 -19.5t-20 -64.5v-48h120v-120h-120v-380h-137zM783 5q-36 -11 -87 -11q-84 0 -137.5 46.5t-53.5 134.5v205h-80v120h80v139h137v-139h141v-120h-141v-178q0 -45 20 -64.5
t65 -19.5q35 0 56 8v-121z" />
    <glyph glyph-name="t_t" unicode="tt" horiz-adv-x="807" 
d="M775 5q-35 -11 -88 -11q-83 0 -136.5 46.5t-53.5 134.5v205h-83v120h83v139h137v-139h141v-120h-141v-178q0 -45 19.5 -64.5t64.5 -19.5q36 0 57 8v-121zM395 5q-35 -11 -87 -11q-84 0 -137.5 46.5t-53.5 134.5v205h-101v120h101v139h137v-139h112v-120h-112v-178
q0 -45 20.5 -64.5t65.5 -19.5q34 0 55 8v-121z" />
    <glyph glyph-name=".notdef" horiz-adv-x="644" 
d="M72 0v710h500v-710h-500zM538 691h-432l216 -321zM311 355l-220 327v-654zM332 355l221 -327v654zM322 339l-216 -320h432z" />
    <glyph glyph-name=".null" 
 />
    <glyph glyph-name="nonmarkingreturn" horiz-adv-x="333" 
 />
    <glyph glyph-name="space" unicode=" " horiz-adv-x="228" 
 />
    <glyph glyph-name="exclam" unicode="!" horiz-adv-x="288" 
d="M101 256l-26 188v266h138v-266l-27 -188h-85zM243 92q0 -41 -29 -70.5t-71 -29.5q-41 0 -70.5 29.5t-29.5 70.5t29.5 70.5t70.5 29.5q42 0 71 -29.5t29 -70.5z" />
    <glyph glyph-name="quotedbl" unicode="&#x22;" horiz-adv-x="434" 
d="M58 423v287h116v-287h-116zM260 423v287h116v-287h-116z" />
    <glyph glyph-name="numbersign" unicode="#" horiz-adv-x="726" 
d="M323 0l59 185h-143l-58 -185h-117l58 185h-90v105h123l40 131h-90v105h124l56 184h119l-58 -184h142l57 184h118l-58 -184h89v-105h-122l-41 -131h91v-105h-124l-58 -185h-117zM313 421l-41 -131h143l39 131h-141z" />
    <glyph glyph-name="dollar" unicode="$" horiz-adv-x="536" 
d="M242 -88v79q-89 10 -145.5 67.5t-56.5 149.5h137q4 -66 65 -83v172l-35 13q-167 63 -167 209q0 88 54.5 142.5t147.5 59.5v77h54v-78q82 -11 134 -67.5t52 -131.5h-137q-9 48 -49 63v-158l35 -13q84 -32 127 -84.5t43 -136.5q0 -90 -54.5 -143.5t-150.5 -58.5v-78h-54z
M177 521q0 -45 65 -74v142q-30 -5 -47.5 -23t-17.5 -45zM364 191q0 52 -68 84v-153q30 5 49 23t19 46z" />
    <glyph glyph-name="percent" unicode="%" horiz-adv-x="980" 
d="M422 521q0 -81 -58 -139t-139 -58q-82 0 -139.5 58t-57.5 139q0 82 57.5 139.5t139.5 57.5q81 0 139 -57.5t58 -139.5zM194 0l450 710h142l-450 -710h-142zM145 521q0 -33 23.5 -57t56.5 -24t56.5 24t23.5 57t-23.5 57t-56.5 24t-56.5 -24t-23.5 -57zM952 189
q0 -81 -58 -139t-139 -58q-82 0 -139.5 58t-57.5 139q0 82 57.5 139.5t139.5 57.5q81 0 139 -57.5t58 -139.5zM675 189q0 -33 23.5 -57t56.5 -24t56 24t23 57t-23 57t-56 24t-56.5 -24t-23.5 -57z" />
    <glyph glyph-name="ampersand" unicode="&#x26;" horiz-adv-x="770" 
d="M598 0l-86 83q-52 -49 -102 -71.5t-111 -22.5q-112 0 -174 60.5t-62 152.5q0 114 126 193q-77 77 -77 149q0 73 57.5 125.5t143.5 52.5q87 0 142.5 -53t55.5 -124q0 -59 -31.5 -98.5t-89.5 -71.5l116 -113l67 81h164l-141 -167l182 -176h-180zM243 543q0 -16 10 -32.5
t19 -25.5t34 -31l2 1q37 18 52.5 36.5t15.5 47.5q0 30 -18.5 48.5t-46.5 18.5t-48 -17t-20 -46zM197 198q0 -43 30.5 -65.5t70.5 -22.5q62 0 126 58l-146 141q-81 -50 -81 -111z" />
    <glyph glyph-name="quotesingle" unicode="'" horiz-adv-x="232" 
d="M58 423v287h116v-287h-116z" />
    <glyph glyph-name="parenleft" unicode="(" horiz-adv-x="299" 
d="M276 -160h-109q-128 232 -128 480t128 480h109q-121 -235 -121 -480t121 -480z" />
    <glyph glyph-name="parenright" unicode=")" horiz-adv-x="298" 
d="M22 -160q121 235 121 480t-121 480h109q128 -232 128 -480t-128 -480h-109z" />
    <glyph glyph-name="asterisk" unicode="*" horiz-adv-x="492" 
d="M160 303l-77 55l86 117l-138 45l29 91l139 -45v144h95v-144l138 45l29 -90l-138 -46l86 -117l-76 -55l-86 116z" />
    <glyph glyph-name="plus" unicode="+" horiz-adv-x="492" 
d="M36 230v119h151v151h119v-151h150v-119h-150v-151h-119v151h-151z" />
    <glyph glyph-name="comma" unicode="," horiz-adv-x="282" 
d="M220 28l-112 -180h-81l73 152q-24 10 -41.5 35.5t-17.5 56.5q0 41 29 70.5t71 29.5q41 0 70 -29.5t29 -70.5q0 -31 -20 -64z" />
    <glyph glyph-name="hyphen" unicode="-" horiz-adv-x="400" 
d="M57 214v132h286v-132h-286z" />
    <glyph glyph-name="period" unicode="." horiz-adv-x="279" 
d="M239 92q0 -41 -29 -70.5t-71 -29.5q-41 0 -70.5 29.5t-29.5 70.5t29.5 70.5t70.5 29.5q42 0 71 -29.5t29 -70.5z" />
    <glyph glyph-name="slash" unicode="/" horiz-adv-x="546" 
d="M18 -110l386 820h124l-386 -820h-124z" />
    <glyph glyph-name="zero" unicode="0" horiz-adv-x="631" 
d="M580 270q0 -123 -74 -202t-190 -79q-117 0 -191 79t-74 202v172q0 122 74 201t191 79q116 0 190 -79t74 -201v-172zM188 270q0 -68 35 -107t93 -39q57 0 92 39t35 107v172q0 67 -35 106t-92 39q-58 0 -93 -39t-35 -106v-172z" />
    <glyph glyph-name="one" unicode="1" horiz-adv-x="368" 
d="M152 0v575h-150l100 135h187v-710h-137z" />
    <glyph glyph-name="two" unicode="2" horiz-adv-x="573" 
d="M525 135v-135h-484v47q0 29 6 56t14.5 47.5t25.5 42.5t29 36t36.5 34t37.5 29.5t41 29t39 27.5q54 39 83 72.5t29 73.5t-25 66t-69 26q-47 0 -77.5 -28.5t-29.5 -71.5h-138q0 103 70.5 169t177.5 66q96 0 162 -57.5t66 -161.5q0 -85 -36.5 -139.5t-113.5 -110.5
q-7 -5 -46.5 -31.5t-61 -46t-30.5 -40.5h294z" />
    <glyph glyph-name="three" unicode="3" horiz-adv-x="588" 
d="M545 202q0 -94 -68 -153.5t-178 -59.5q-107 0 -183.5 64.5t-80.5 176.5h136q5 -51 39.5 -78.5t88.5 -27.5q47 0 77 24.5t31 64.5q0 44 -31.5 69.5t-84.5 25.5h-60v112h54q48 0 74.5 23t27.5 62q1 36 -25.5 59t-66.5 23q-48 0 -79 -28.5t-30 -71.5h-138q0 106 74 170.5
t173 64.5q106 0 168 -59t62 -147q0 -49 -23 -89.5t-56 -63.5q43 -20 71 -62t28 -99z" />
    <glyph glyph-name="four" unicode="4" horiz-adv-x="637" 
d="M371 0v162h-353v111l368 437h122v-422h93v-126h-93v-162h-137zM371 288v219l-184 -219h184z" />
    <glyph glyph-name="five" unicode="5" horiz-adv-x="572" 
d="M31 206h142q9 -36 40 -59t71 -23q51 0 81 31.5t30 78.5t-31 78.5t-78 31.5q-40 0 -69.5 -20.5t-41.5 -53.5l-121 37l80 403h346v-133h-240l-26 -132q39 23 97 23q100 0 160.5 -68.5t60.5 -176.5q0 -106 -68 -170t-180 -64q-100 0 -174.5 62t-78.5 155z" />
    <glyph glyph-name="six" unicode="6" horiz-adv-x="569" 
d="M530 234q0 -106 -68 -175.5t-180 -69.5q-111 0 -179 69.5t-68 175.5q0 50 18 87.5t64 101.5l212 287h169l-183 -249q84 -2 149.5 -64.5t65.5 -162.5zM173 232q0 -47 31 -79t78 -32q48 0 79 32t31 79q0 46 -31.5 79t-78.5 33t-78 -32.5t-31 -79.5z" />
    <glyph glyph-name="seven" unicode="7" horiz-adv-x="543" 
d="M200 0h-155l321 577h-332v133h495v-118z" />
    <glyph glyph-name="eight" unicode="8" horiz-adv-x="588" 
d="M546 218q0 -100 -72 -164.5t-180 -64.5t-180 64.5t-72 164.5q0 115 91 171q-61 53 -61 141q0 83 61.5 137.5t160.5 54.5t160.5 -54.5t61.5 -137.5q0 -86 -61 -141q91 -53 91 -171zM205 518q0 -35 25.5 -58.5t63.5 -23.5t63.5 23.5t25.5 58.5t-25.5 58.5t-63.5 23.5
t-63.5 -23.5t-25.5 -58.5zM183 221q0 -43 30.5 -74t80.5 -31t80.5 31t30.5 74t-30.5 74t-80.5 31t-80.5 -31t-30.5 -74z" />
    <glyph glyph-name="nine" unicode="9" horiz-adv-x="569" 
d="M70 0l184 250q-84 2 -149.5 64.5t-65.5 162.5q0 106 68.5 175.5t179.5 69.5t179.5 -69.5t68.5 -175.5q0 -49 -18 -86.5t-65 -102.5l-212 -288h-170zM177 479q0 -46 31.5 -79t78.5 -33t78.5 33t31.5 79q0 47 -31 79t-79 32q-47 0 -78.5 -32t-31.5 -79z" />
    <glyph glyph-name="colon" unicode=":" horiz-adv-x="299" 
d="M249 412q0 -41 -29 -70.5t-71 -29.5q-41 0 -70.5 29.5t-29.5 70.5t29.5 70.5t70.5 29.5q42 0 71 -29.5t29 -70.5zM249 92q0 -41 -29 -70.5t-71 -29.5q-41 0 -70.5 29.5t-29.5 70.5t29.5 70.5t70.5 29.5q42 0 71 -29.5t29 -70.5z" />
    <glyph glyph-name="semicolon" unicode=";" horiz-adv-x="302" 
d="M251 412q0 -41 -29 -70.5t-71 -29.5q-41 0 -70.5 29.5t-29.5 70.5t29.5 70.5t70.5 29.5q42 0 71 -29.5t29 -70.5zM231 28l-112 -180h-81l73 152q-24 10 -41.5 35.5t-17.5 56.5q0 41 29 70.5t71 29.5q41 0 70 -29.5t29 -70.5q0 -31 -20 -64z" />
    <glyph glyph-name="less" unicode="&#x3c;" horiz-adv-x="477" 
d="M450 543l-254 -253l254 -253h-171l-253 253l253 253h171z" />
    <glyph glyph-name="equal" unicode="=" horiz-adv-x="541" 
d="M60 335v119h421v-119h-421zM60 125v118h421v-118h-421z" />
    <glyph glyph-name="greater" unicode="&#x3e;" horiz-adv-x="477" 
d="M451 290l-253 -253h-171l254 253l-254 253h171z" />
    <glyph glyph-name="question" unicode="?" horiz-adv-x="519" 
d="M166 257v19q0 74 87 134q6 4 26 17.5t26 18.5t17.5 16.5t15.5 23t4 25.5q0 34 -24 55t-59 21q-39 0 -66.5 -24t-27.5 -66h-137q0 93 67 159t164 66q95 0 157.5 -60.5t62.5 -142.5q0 -56 -21 -97.5t-69 -77.5q-8 -6 -27 -19.5t-25.5 -19t-16.5 -14.5t-13.5 -16t-3.5 -15
v-3h-137zM334 92q0 -41 -29 -70.5t-71 -29.5q-41 0 -70.5 29.5t-29.5 70.5t29.5 70.5t70.5 29.5q42 0 71 -29.5t29 -70.5z" />
    <glyph glyph-name="at" unicode="@" horiz-adv-x="803" 
d="M567 18q-84 -29 -178 -29q-158 0 -253.5 99.5t-95.5 248.5q0 167 114.5 276t272.5 109q150 0 247 -87t97 -229q0 -124 -52 -186.5t-132 -62.5q-35 0 -64 14.5t-43 36.5q-46 -49 -123 -49q-71 0 -113.5 49.5t-42.5 122.5q0 91 57.5 155t141.5 64q38 0 66.5 -17t39.5 -42
l10 49h98l-46 -220q-16 -79 35 -79q86 0 86 167q0 112 -75.5 174t-187.5 62q-124 0 -213 -83.5t-89 -223.5q0 -121 72 -195.5t193 -74.5q106 0 178 36v-85zM307 366q-10 -48 10.5 -81.5t60.5 -33.5t67 25.5t35 66.5q10 48 -10.5 82t-60.5 34t-67 -26t-35 -67z" />
    <glyph glyph-name="A" unicode="A" horiz-adv-x="743" 
d="M1 0l306 710h129l307 -710h-152l-69 162h-302l-69 -162h-150zM273 289h196l-98 231z" />
    <glyph glyph-name="B" unicode="B" horiz-adv-x="634" 
d="M79 0v710h260q89 0 150 -60.5t61 -145.5q0 -78 -56 -127q48 -23 76.5 -66.5t28.5 -101.5q0 -89 -63 -149t-157 -60h-300zM224 419h101q37 0 60.5 22.5t23.5 56.5q0 33 -23.5 56.5t-60.5 23.5h-101v-159zM224 133h145q40 0 64.5 23t24.5 58t-24.5 58.5t-64.5 23.5h-145
v-163z" />
    <glyph glyph-name="C" unicode="C" horiz-adv-x="780" 
d="M38 355q0 156 106 261.5t266 105.5q122 0 218.5 -70.5t125.5 -183.5h-157q-22 52 -74 83t-113 31q-100 0 -163 -65t-63 -162t63 -162t163 -65q61 0 113 31t74 83h157q-29 -113 -125.5 -183.5t-218.5 -70.5q-160 0 -266 105.5t-106 261.5z" />
    <glyph glyph-name="D" unicode="D" horiz-adv-x="716" 
d="M79 0v710h234q153 0 259 -103t106 -252t-106 -252t-259 -103h-234zM224 133h89q97 0 158 64t61 158t-61 158t-158 64h-89v-444z" />
    <glyph glyph-name="E" unicode="E" horiz-adv-x="568" 
d="M79 0v710h442v-138h-297v-146h237v-138h-237v-150h297v-138h-442z" />
    <glyph glyph-name="F" unicode="F" horiz-adv-x="542" 
d="M79 0v710h432v-138h-287v-147h225v-138h-225v-287h-145z" />
    <glyph glyph-name="G" unicode="G" horiz-adv-x="805" 
d="M38 355q0 156 106 261.5t266 105.5q113 0 206 -61t129 -161h-166q-26 38 -71.5 60t-97.5 22q-100 0 -163 -65t-63 -162t63 -162t165 -65q85 0 136.5 43t63.5 118h-217v136h367q12 -106 -11 -191t-73 -137.5t-118 -80.5t-148 -28q-162 0 -268 105.5t-106 261.5z" />
    <glyph glyph-name="H" unicode="H" horiz-adv-x="756" 
d="M79 0v710h145v-283h308v283h145v-710h-145v289h-308v-289h-145z" />
    <glyph glyph-name="I" unicode="I" horiz-adv-x="303" 
d="M79 0v710h145v-710h-145z" />
    <glyph glyph-name="J" unicode="J" horiz-adv-x="547" 
d="M473 194q0 -103 -64.5 -154.5t-162.5 -51.5q-96 0 -161 55t-65 161h143q0 -39 23.5 -60t59.5 -21t59.5 20.5t23.5 60.5v506h144v-516z" />
    <glyph glyph-name="K" unicode="K" horiz-adv-x="694" 
d="M79 0v710h144v-300l256 300h179l-292 -341l353 -369h-188l-308 323v-323h-144z" />
    <glyph glyph-name="L" unicode="L" horiz-adv-x="551" 
d="M79 0v710h145v-572h304v-138h-449z" />
    <glyph glyph-name="M" unicode="M" horiz-adv-x="884" 
d="M442 163l-218 299v-462h-145v710h132l231 -316l231 316h132v-710h-145v462z" />
    <glyph glyph-name="N" unicode="N" horiz-adv-x="792" 
d="M713 0h-125l-364 463v-463h-145v710h125l364 -463v463h145v-710z" />
    <glyph glyph-name="O" unicode="O" horiz-adv-x="808" 
d="M771 355q0 -152 -107.5 -259.5t-259.5 -107.5t-259.5 107.5t-107.5 259.5t107.5 259.5t259.5 107.5t259.5 -107.5t107.5 -259.5zM183 355q0 -94 64.5 -160.5t156.5 -66.5t156.5 66.5t64.5 160.5t-64.5 160.5t-156.5 66.5t-156.5 -66.5t-64.5 -160.5z" />
    <glyph glyph-name="P" unicode="P" horiz-adv-x="591" 
d="M315 710q107 0 178 -68.5t71 -170.5t-71 -170.5t-178 -68.5h-91v-232h-145v710h236zM313 368q49 0 79.5 29.5t30.5 73.5t-30.5 73.5t-79.5 29.5h-89v-206h89z" />
    <glyph glyph-name="Q" unicode="Q" horiz-adv-x="840" 
d="M698 0l-74 61q-97 -73 -220 -73q-152 0 -259.5 107.5t-107.5 259.5t107.5 259.5t259.5 107.5t259.5 -107.5t107.5 -259.5q0 -109 -58 -198l189 -157h-204zM183 355q0 -94 64.5 -160.5t156.5 -66.5q57 0 107 28l-105 87l83 100l111 -92q25 48 25 104q0 94 -64.5 160.5
t-156.5 66.5t-156.5 -66.5t-64.5 -160.5z" />
    <glyph glyph-name="R" unicode="R" horiz-adv-x="656" 
d="M79 0v710h272q98 0 158 -60t60 -150q0 -138 -146 -185l255 -315h-175l-243 299h-36v-299h-145zM224 423h110q41 0 66 20.5t25 56.5t-25 56.5t-66 20.5h-110v-154z" />
    <glyph glyph-name="S" unicode="S" horiz-adv-x="593" 
d="M34 220h145q7 -46 43 -72t85 -26q44 0 72.5 19.5t28.5 52.5q0 59 -95 86l-75 22q-87 25 -136 78t-50 132q-1 97 64.5 153.5t173.5 56.5q109 0 177 -65.5t72 -150.5h-144q-11 42 -40.5 62t-64.5 20q-39 0 -65 -17.5t-27 -48.5q-1 -32 21.5 -52t67.5 -33l83 -23
q88 -24 136 -79t48 -136q0 -92 -68.5 -151.5t-178.5 -59.5q-121 0 -194.5 69t-78.5 163z" />
    <glyph glyph-name="T" unicode="T" horiz-adv-x="568" 
d="M210 0v572h-189v138h526v-138h-191v-572h-146z" />
    <glyph glyph-name="U" unicode="U" horiz-adv-x="720" 
d="M649 280q0 -131 -81 -211.5t-208 -80.5q-128 0 -208.5 80t-80.5 212v430h145v-432q0 -70 39.5 -110t104.5 -40t104.5 40t39.5 110v432h145v-430z" />
    <glyph glyph-name="V" unicode="V" horiz-adv-x="721" 
d="M296 0l-293 710h157l201 -493l198 493h160l-294 -710h-129z" />
    <glyph glyph-name="W" unicode="W" horiz-adv-x="961" 
d="M637 0l-156 377l-156 -377h-136l-171 710h154l108 -472l201 484l201 -484l108 472h154l-171 -710h-136z" />
    <glyph glyph-name="X" unicode="X" horiz-adv-x="697" 
d="M533 0l-184 246l-185 -246h-170l267 359l-252 351h168l172 -238l171 238h168l-252 -351l267 -359h-170z" />
    <glyph glyph-name="Y" unicode="Y" horiz-adv-x="690" 
d="M272 0v299l-262 411h168l166 -269l167 269h169l-263 -412v-298h-145z" />
    <glyph glyph-name="Z" unicode="Z" horiz-adv-x="618" 
d="M38 0v99l339 473h-333v138h529v-99l-340 -473h347v-138h-542z" />
    <glyph glyph-name="bracketleft" unicode="[" horiz-adv-x="325" 
d="M76 -160v960h221v-100h-105v-760h105v-100h-221z" />
    <glyph glyph-name="backslash" unicode="\" horiz-adv-x="546" 
d="M528 -110h-124l-386 820h124z" />
    <glyph glyph-name="bracketright" unicode="]" horiz-adv-x="325" 
d="M249 -160h-221v100h105v760h-105v100h221v-960z" />
    <glyph glyph-name="asciicircum" unicode="^" horiz-adv-x="347" 
d="M41 500l107 210h52l106 -210h-79l-53 103l-53 -103h-80z" />
    <glyph glyph-name="underscore" unicode="_" horiz-adv-x="515" 
d="M41 -105v105h433v-105h-433z" />
    <glyph glyph-name="grave" unicode="`" 
d="M31 560l-163 190h159l106 -190h-102z" />
    <glyph glyph-name="a" unicode="a" horiz-adv-x="617" 
d="M34 250q0 107 68 184t167 77q48 0 86.5 -20t57.5 -47v56h137v-500h-137v56q-19 -27 -57.5 -47t-86.5 -20q-99 0 -167 77t-68 184zM424 250q0 59 -35 97.5t-91 38.5t-91 -38.5t-35 -97.5t35 -97.5t91 -38.5t91 38.5t35 97.5z" />
    <glyph glyph-name="b" unicode="b" horiz-adv-x="617" 
d="M203 56v-56h-137v750h137v-306q19 27 58 47t87 20q99 0 167 -77t68 -184t-68 -184t-167 -77q-48 0 -87 20t-58 47zM444 250q0 59 -35 97.5t-91 38.5t-91 -38.5t-35 -97.5t35 -97.5t91 -38.5t91 38.5t35 97.5z" />
    <glyph glyph-name="c" unicode="c" horiz-adv-x="580" 
d="M553 191q-21 -90 -88.5 -146t-167.5 -56q-113 0 -188 75.5t-75 185.5t75 185.5t188 75.5q100 0 167.5 -56t88.5 -146h-142q-33 78 -114 78q-55 0 -90 -37.5t-35 -99.5t35 -99.5t90 -37.5q81 0 114 78h142z" />
    <glyph glyph-name="d" unicode="d" horiz-adv-x="617" 
d="M34 250q0 107 68 184t167 77q48 0 86.5 -20t57.5 -47v306h137v-750h-137v56q-19 -27 -57.5 -47t-86.5 -20q-99 0 -167 77t-68 184zM424 250q0 59 -35 97.5t-91 38.5t-91 -38.5t-35 -97.5t35 -97.5t91 -38.5t91 38.5t35 97.5z" />
    <glyph glyph-name="e" unicode="e" horiz-adv-x="592" 
d="M552 163q-23 -77 -92.5 -125.5t-163.5 -48.5q-115 0 -188.5 74t-73.5 188q0 112 74.5 186t188.5 74q115 0 190.5 -78.5t70.5 -214.5h-390q5 -47 39.5 -78.5t95.5 -31.5q36 0 65 15t41 40h143zM293 400q-46 0 -78 -25t-42 -67h235q-12 47 -44 69.5t-71 22.5z" />
    <glyph glyph-name="f" unicode="f" horiz-adv-x="412" 
d="M119 0v380h-101v120h101v65q0 89 54.5 140t136.5 51q52 0 87 -11v-121q-24 9 -56 9q-45 0 -65 -20t-20 -65v-48h141v-120h-141v-380h-137z" />
    <glyph glyph-name="g" unicode="g" horiz-adv-x="618" 
d="M55 -31h134q25 -74 113 -74q48 0 80.5 31t32.5 87v59q-20 -29 -59.5 -47.5t-85.5 -18.5q-98 0 -167 73.5t-69 178.5t69 179t167 74q47 0 86 -19t59 -48v56h137v-469q0 -127 -72.5 -188.5t-180.5 -61.5q-104 0 -170 53t-74 135zM426 258q0 56 -37 92t-90 36t-90 -36
t-37 -92t37 -92t90 -36t90 36t37 92z" />
    <glyph glyph-name="h" unicode="h" horiz-adv-x="599" 
d="M66 0v750h137v-307q20 31 57.5 49.5t85.5 18.5q90 0 141.5 -59.5t51.5 -158.5v-293h-137v270q0 55 -23 85.5t-65 30.5q-50 0 -80.5 -36.5t-30.5 -105.5v-244h-137z" />
    <glyph glyph-name="i" unicode="i" horiz-adv-x="269" 
d="M222 669q0 -36 -25.5 -61.5t-62.5 -25.5q-35 0 -61 25.5t-26 61.5t26 61.5t61 25.5q37 0 62.5 -25.5t25.5 -61.5zM66 0v500h137v-500h-137z" />
    <glyph glyph-name="j" unicode="j" horiz-adv-x="277" 
d="M230 669q0 -36 -25.5 -61.5t-62.5 -25.5q-35 0 -61 25.5t-26 61.5t26 61.5t61 25.5q37 0 62.5 -25.5t25.5 -61.5zM211 500v-538q0 -87 -53 -134t-133 -47q-36 0 -56 4v117q12 -2 26 -2q79 0 79 84v516h137z" />
    <glyph glyph-name="k" unicode="k" horiz-adv-x="556" 
d="M66 0v750h137v-434l162 184h165l-198 -225l244 -275h-169l-204 230v-230h-137z" />
    <glyph glyph-name="l" unicode="l" horiz-adv-x="269" 
d="M66 0v750h137v-750h-137z" />
    <glyph glyph-name="m" unicode="m" horiz-adv-x="893" 
d="M66 0v500h137v-57q47 68 133 68q107 0 155 -92q22 44 65.5 68t89.5 24q88 0 137.5 -59.5t49.5 -161.5v-290h-137v267q0 119 -78 119q-46 0 -73 -36t-27 -106v-244h-137v267q0 119 -78 119q-46 0 -73 -36t-27 -106v-244h-137z" />
    <glyph glyph-name="n" unicode="n" horiz-adv-x="599" 
d="M66 0v500h137v-57q20 31 57.5 49.5t85.5 18.5q90 0 141.5 -59.5t51.5 -158.5v-293h-137v270q0 55 -23 85.5t-65 30.5q-50 0 -80.5 -36.5t-30.5 -105.5v-244h-137z" />
    <glyph glyph-name="o" unicode="o" horiz-adv-x="592" 
d="M559 250q0 -109 -77 -185t-186 -76t-186 76t-77 185t77 185t186 76t186 -76t77 -185zM171 250q0 -58 35.5 -95.5t89.5 -37.5t89 37.5t35 95.5t-35 95.5t-89 37.5t-89.5 -37.5t-35.5 -95.5z" />
    <glyph glyph-name="p" unicode="p" horiz-adv-x="617" 
d="M66 -209v709h137v-56q19 27 58 47t87 20q99 0 167 -77t68 -184t-68 -184t-167 -77q-48 0 -87 20t-58 47v-265h-137zM444 250q0 59 -35 97.5t-91 38.5t-91 -38.5t-35 -97.5t35 -97.5t91 -38.5t91 38.5t35 97.5z" />
    <glyph glyph-name="q" unicode="q" horiz-adv-x="617" 
d="M413 -209v265q-19 -27 -57.5 -47t-86.5 -20q-99 0 -167 77t-68 184t68 184t167 77q48 0 86.5 -20t57.5 -47v56h137v-709h-137zM424 250q0 59 -35 97.5t-91 38.5t-91 -38.5t-35 -97.5t35 -97.5t91 -38.5t91 38.5t35 97.5z" />
    <glyph glyph-name="r" unicode="r" horiz-adv-x="395" 
d="M66 0v500h137v-80q13 37 47.5 61.5t76.5 24.5q26 0 46 -6v-139q-33 11 -62 11q-49 0 -78.5 -36t-29.5 -97v-239h-137z" />
    <glyph glyph-name="s" unicode="s" horiz-adv-x="501" 
d="M468 141q0 -69 -58.5 -110.5t-150.5 -41.5q-96 0 -159 48t-67 122h143q4 -32 28 -48.5t59 -16.5q65 0 65 40q0 19 -14.5 30.5t-48.5 19.5l-94 24q-63 16 -95 57t-32 98q0 66 54.5 107t146.5 41q84 0 140 -42t62 -116h-138q-9 51 -66 51q-27 0 -43 -10t-16 -28
q0 -33 57 -46l88 -24q139 -35 139 -155z" />
    <glyph glyph-name="t" unicode="t" horiz-adv-x="427" 
d="M395 5q-35 -11 -87 -11q-84 0 -137.5 46.5t-53.5 134.5v205h-101v120h101v139h137v-139h141v-120h-141v-178q0 -45 20 -65t65 -20q32 0 56 9v-121z" />
    <glyph glyph-name="u" unicode="u" horiz-adv-x="588" 
d="M60 210v290h137v-267q0 -119 85 -119q48 0 75.5 36t27.5 106v244h137v-500h-137v57q-44 -68 -137 -68q-89 0 -138.5 60t-49.5 161z" />
    <glyph glyph-name="v" unicode="v" horiz-adv-x="570" 
d="M222 0l-221 500h151l132 -320l132 320h153l-222 -500h-125z" />
    <glyph glyph-name="w" unicode="w" horiz-adv-x="800" 
d="M494 0l-94 285l-93 -285h-136l-166 500h146l95 -320l101 320h105l102 -320l94 320h147l-165 -500h-136z" />
    <glyph glyph-name="x" unicode="x" horiz-adv-x="567" 
d="M3 0l194 245l-189 255h162l113 -153l113 153h163l-189 -255l194 -245h-164l-116 148l-116 -148h-165z" />
    <glyph glyph-name="y" unicode="y" horiz-adv-x="570" 
d="M256 -209h-149l105 237l-210 472h150l134 -324l133 324h151z" />
    <glyph glyph-name="z" unicode="z" horiz-adv-x="498" 
d="M41 0v107l234 269h-231v124h408v-108l-233 -268h241v-124h-419z" />
    <glyph glyph-name="braceleft" unicode="{" horiz-adv-x="340" 
d="M313 -160h-82q-66 0 -103 38t-37 104v229q0 59 -54 59h-9v100h9q54 0 54 57v231q0 66 37 104t103 38h82v-100h-48q-32 0 -44.5 -14t-12.5 -47v-218q0 -83 -61 -101q61 -18 61 -103v-216q0 -33 12.5 -47t44.5 -14h48v-100z" />
    <glyph glyph-name="bar" unicode="|" horiz-adv-x="267" 
d="M75 -110v820h116v-820h-116z" />
    <glyph glyph-name="braceright" unicode="}" horiz-adv-x="340" 
d="M27 -160v100h48q32 0 44.5 14t12.5 47v216q0 85 61 103q-61 18 -61 101v218q0 33 -12.5 47t-44.5 14h-48v100h82q66 0 103 -38t37 -104v-231q0 -57 54 -57h9v-100h-9q-54 0 -54 -59v-229q0 -66 -37 -104t-103 -38h-82z" />
    <glyph glyph-name="asciitilde" unicode="~" horiz-adv-x="346" 
d="M59 230l55 119h46l38 -46l21 46h72l-55 -119h-46l-39 46l-21 -46h-71z" />
    <glyph glyph-name="uni00A0" unicode="&#xa0;" horiz-adv-x="228" 
 />
    <glyph glyph-name="exclamdown" unicode="&#xa1;" horiz-adv-x="277" 
d="M238 411q0 -41 -29 -70.5t-71 -29.5q-41 0 -70.5 29.5t-29.5 70.5t29.5 70.5t70.5 29.5q42 0 71 -29.5t29 -70.5zM180 247l27 -188v-268h-138v268l27 188h84z" />
    <glyph glyph-name="cent" unicode="&#xa2;" horiz-adv-x="589" 
d="M274 -88v78q-103 10 -169.5 83.5t-66.5 176.5t66.5 176.5t169.5 83.5v78h54v-78q90 -8 150 -63t79 -138h-142q-27 64 -87 75v-268q60 11 87 75h142q-19 -83 -79 -138t-150 -63v-78h-54zM176 250q0 -53 27 -89t71 -45v268q-44 -9 -71 -45t-27 -89z" />
    <glyph glyph-name="sterling" unicode="&#xa3;" horiz-adv-x="588" 
d="M46 0v135h89q23 45 23 92q0 42 -21 103h-91v56h72q-25 77 -25 123q0 81 64 147t160 66q97 0 162 -68.5t67 -162.5h-137q0 40 -26.5 68t-65.5 28q-38 0 -62.5 -24.5t-24.5 -64.5q0 -39 28 -112h171v-56h-152q17 -53 17 -99q0 -49 -26 -96h278v-135h-500z" />
    <glyph glyph-name="yen" unicode="&#xa5;" horiz-adv-x="722" 
d="M77 166v57h215v75h-215v57h179l-231 355h167l168 -274l169 274h167l-230 -355h178v-57h-215v-75h215v-57h-215v-166h-137v166h-215z" />
    <glyph glyph-name="brokenbar" unicode="&#xa6;" horiz-adv-x="267" 
d="M75 363v347h116v-347h-116zM75 -110v347h116v-347h-116z" />
    <glyph glyph-name="section" unicode="&#xa7;" horiz-adv-x="454" 
d="M406 -62q0 -72 -48.5 -114.5t-121.5 -42.5q-72 0 -124.5 41t-58.5 126h116q10 -67 67 -67q22 0 38.5 14.5t15.5 41.5q0 30 -16.5 55.5t-63.5 52.5l-56 34q-105 63 -105 164q0 95 81 165q-81 64 -81 157q0 72 46.5 114.5t117.5 42.5q72 0 122.5 -41t56.5 -126h-116
q-10 67 -59 67q-23 0 -37.5 -14t-14.5 -42t15.5 -48.5t62.5 -49.5l57 -34q106 -64 106 -164q0 -95 -81 -166q42 -34 61.5 -79.5t19.5 -86.5zM228 165l4 -3q59 44 59 93q0 34 -16 54t-49 39l-3 2q-59 -41 -59 -92q0 -34 16 -54t48 -39z" />
    <glyph glyph-name="dieresis" unicode="&#xa8;" 
d="M-42 652q0 -31 -22 -53t-53 -22t-53.5 22t-22.5 53q0 32 22.5 54t53.5 22t53 -22.5t22 -53.5zM193 652q0 -31 -22 -53t-53 -22t-53.5 22t-22.5 53q0 32 22 54t54 22q31 0 53 -22.5t22 -53.5z" />
    <glyph glyph-name="copyright" unicode="&#xa9;" horiz-adv-x="807" 
d="M770 355q0 -151 -108 -259t-259 -108t-258.5 108t-107.5 259t107.5 259t258.5 108t259 -108t108 -259zM121 355q0 -117 83 -200t199 -83q117 0 200 83t83 200t-83 200t-200 83q-116 0 -199 -83t-83 -200zM212 355q0 81 55.5 136.5t139.5 55.5q63 0 114.5 -37t66.5 -97
h-91q-12 25 -36.5 39t-53.5 14q-49 0 -79.5 -32t-30.5 -79q0 -48 30.5 -79.5t79.5 -31.5q29 0 53.5 14t36.5 39h91q-15 -61 -66.5 -97.5t-114.5 -36.5q-84 0 -139.5 55t-55.5 137z" />
    <glyph glyph-name="ordfeminine" unicode="&#xaa;" horiz-adv-x="405" 
d="M34 560q0 64 40 110.5t98 46.5q48 0 77 -34v27h97v-300h-97v27q-29 -34 -77 -34q-58 0 -98 46.5t-40 110.5zM257 560q0 30 -17 49.5t-45 19.5t-45.5 -19.5t-17.5 -49.5t17.5 -49.5t45.5 -19.5t45 19.5t17 49.5z" />
    <glyph glyph-name="guillemotleft" unicode="&#xab;" horiz-adv-x="525" 
d="M232 250l141 217h118l-116 -217l116 -217h-118zM29 250l141 217h118l-116 -217l116 -217h-118z" />
    <glyph glyph-name="uni00AD" unicode="&#xad;" horiz-adv-x="400" 
d="M57 214v132h286v-132h-286z" />
    <glyph glyph-name="registered" unicode="&#xae;" horiz-adv-x="807" 
d="M770 355q0 -151 -108 -259t-259 -108t-258.5 108t-107.5 259t107.5 259t258.5 108t259 -108t108 -259zM121 355q0 -117 83 -200t199 -83q117 0 200 83t83 200t-83 200t-200 83q-116 0 -199 -83t-83 -200zM279 169v371h147q52 0 83.5 -32t31.5 -80q0 -69 -73 -95l132 -164
h-100l-124 153h-13v-153h-84zM363 393h53q18 0 30 9.5t12 25.5q0 17 -11.5 26t-30.5 9h-53v-70z" />
    <glyph glyph-name="macron" unicode="&#xaf;" 
d="M-171 613v97h342v-97h-342z" />
    <glyph glyph-name="degree" unicode="&#xb0;" horiz-adv-x="374" 
d="M341 560q0 -64 -45 -109t-108 -45q-64 0 -109 45t-45 109t45 109t109 45q63 0 108 -45t45 -109zM125 560q0 -26 18 -44t45 -18q26 0 44 18t18 44t-18 44t-44 18q-27 0 -45 -18t-18 -44z" />
    <glyph glyph-name="twosuperior" unicode="&#xb2;" horiz-adv-x="355" 
d="M325 506v-96h-300v32q0 33 9.5 60t31 49t38 35t46.5 33q8 5 12 8q63 41 63 82q0 19 -12 31.5t-34 12.5q-25 0 -40 -15t-14 -35h-98q0 63 44.5 104.5t110.5 41.5q59 0 100 -36t41 -100q0 -55 -23 -90t-64 -63q-64 -41 -72 -54h161z" />
    <glyph glyph-name="threesuperior" unicode="&#xb3;" horiz-adv-x="364" 
d="M338 534q0 -57 -42.5 -94t-110.5 -37q-65 0 -113 39.5t-51 111.5h97q6 -55 67 -55q25 0 40.5 12.5t15.5 32.5q0 21 -16.5 34t-43.5 13h-39v77h33q53 0 53 44q0 18 -13 29.5t-33 11.5q-24 0 -39.5 -15t-15.5 -35h-97q0 66 46.5 106t106.5 40q68 0 105.5 -37t37.5 -91
q0 -58 -43 -93q23 -11 39 -35.5t16 -58.5z" />
    <glyph glyph-name="acute" unicode="&#xb4;" 
d="M-133 560l106 190h159l-163 -190h-102z" />
    <glyph glyph-name="paragraph" unicode="&#xb6;" horiz-adv-x="664" 
d="M251 -184v444q-93 0 -159 66t-66 159t66 159t159 66h323v-894h-116v774h-90v-774h-117z" />
    <glyph glyph-name="periodcentered" unicode="&#xb7;" horiz-adv-x="289" 
d="M244 280q0 -41 -29 -70.5t-71 -29.5q-41 0 -70.5 29.5t-29.5 70.5t29.5 70.5t70.5 29.5q42 0 71 -29.5t29 -70.5z" />
    <glyph glyph-name="cedilla" unicode="&#xb8;" 
d="M-118 -204v63q30 -17 76 -17q62 0 62 33q0 28 -44 28q-22 0 -41 -10l-35 19l55 91h62l-31 -51q26 7 47 7q37 0 61 -21t24 -58q0 -43 -41 -71t-95 -28q-62 0 -100 15z" />
    <glyph glyph-name="onesuperior" unicode="&#xb9;" horiz-adv-x="243" 
d="M98 410v336h-95l68 96h124v-432h-97z" />
    <glyph glyph-name="ordmasculine" unicode="&#xba;" horiz-adv-x="381" 
d="M348 560q0 -66 -46.5 -111.5t-111.5 -45.5q-64 0 -110.5 45.5t-46.5 111.5t46.5 111.5t110.5 45.5q65 0 111.5 -45.5t46.5 -111.5zM130 560q0 -29 17.5 -47.5t42.5 -18.5q26 0 43.5 18.5t17.5 47.5t-17.5 47.5t-43.5 18.5q-25 0 -42.5 -18.5t-17.5 -47.5z" />
    <glyph glyph-name="guillemotright" unicode="&#xbb;" horiz-adv-x="525" 
d="M496 250l-141 -217h-118l116 217l-116 217h118zM293 250l-141 -217h-118l116 217l-116 217h118z" />
    <glyph glyph-name="onequarter" unicode="&#xbc;" horiz-adv-x="826" 
d="M100 278v336h-95l68 96h124v-432h-97zM63 0l500 710h118l-500 -710h-118zM654 0v90h-208v79l218 263h88v-253h55v-89h-55v-90h-98zM654 179v109l-90 -109h90z" />
    <glyph glyph-name="onehalf" unicode="&#xbd;" horiz-adv-x="815" 
d="M100 278v336h-95l68 96h124v-432h-97zM63 0l500 710h118l-500 -710h-118zM785 96v-96h-300v32q0 33 9.5 60t31 49t38 35t46.5 33q8 5 12 8q63 41 63 82q0 19 -12 31.5t-34 12.5q-25 0 -40 -15t-14 -35h-98q0 63 44.5 104.5t110.5 41.5q59 0 100 -36t41 -100
q0 -55 -23 -90t-64 -63q-64 -41 -72 -54h161z" />
    <glyph glyph-name="threequarters" unicode="&#xbe;" horiz-adv-x="910" 
d="M338 402q0 -57 -42.5 -94t-110.5 -37q-65 0 -113 39.5t-51 111.5h97q6 -55 67 -55q25 0 40.5 12.5t15.5 32.5q0 21 -16.5 34t-43.5 13h-39v77h33q53 0 53 44q0 18 -13 29.5t-33 11.5q-24 0 -39.5 -15t-15.5 -35h-97q0 66 46.5 106t106.5 40q68 0 105.5 -37t37.5 -91
q0 -58 -43 -93q23 -11 39 -35.5t16 -58.5zM147 0l500 710h118l-500 -710h-118zM738 0v90h-208v79l218 263h88v-253h55v-89h-55v-90h-98zM738 179v109l-90 -109h90z" />
    <glyph glyph-name="questiondown" unicode="&#xbf;" horiz-adv-x="511" 
d="M180 411q0 41 29 70.5t71 29.5q41 0 70.5 -29.5t29.5 -70.5t-29.5 -70.5t-70.5 -29.5q-42 0 -71 29.5t-29 70.5zM348 246v-19q0 -74 -87 -134q-6 -4 -26 -17.5t-26 -18.5t-17.5 -16.5t-15.5 -23t-4 -25.5q0 -34 24 -55t59 -21q39 0 66.5 24t27.5 66h137q0 -93 -67 -159
t-164 -66q-95 0 -157.5 60.5t-62.5 142.5q0 56 21 97.5t69 77.5q8 6 27 19.5t25.5 19t16.5 14.5t13.5 16t3.5 15v3h137z" />
    <glyph glyph-name="Agrave" unicode="&#xc0;" horiz-adv-x="743" 
d="M417 770h-103l-123 157h154zM1 0l306 710h129l307 -710h-152l-69 162h-302l-69 -162h-150zM273 289h196l-98 231z" />
    <glyph glyph-name="Aacute" unicode="&#xc1;" horiz-adv-x="743" 
d="M328 770l72 157h154l-123 -157h-103zM1 0l306 710h129l307 -710h-152l-69 162h-302l-69 -162h-150zM273 289h196l-98 231z" />
    <glyph glyph-name="Acircumflex" unicode="&#xc2;" horiz-adv-x="743" 
d="M198 763v109l174 73l174 -73v-109l-174 72zM1 0l306 710h129l307 -710h-152l-69 162h-302l-69 -162h-150zM273 289h196l-98 231z" />
    <glyph glyph-name="Atilde" unicode="&#xc3;" horiz-adv-x="743" 
d="M183 778l4 26q8 52 41.5 82t76.5 30q34 0 77 -23t55 -23q18 0 27.5 11.5t16.5 35.5h79l-4 -26q-8 -52 -41.5 -82t-76.5 -30q-34 0 -77 23t-55 23q-18 0 -27.5 -11.5t-16.5 -35.5h-79zM1 0l306 710h129l307 -710h-152l-69 162h-302l-69 -162h-150zM273 289h196l-98 231z
" />
    <glyph glyph-name="Adieresis" unicode="&#xc4;" horiz-adv-x="743" 
d="M330 847q0 -31 -22 -53t-53 -22t-53.5 22t-22.5 53t22.5 53.5t53.5 22.5t53 -22.5t22 -53.5zM565 847q0 -31 -22 -53t-53 -22t-53.5 22t-22.5 53t22 53.5t54 22.5q31 0 53 -22.5t22 -53.5zM1 0l306 710h129l307 -710h-152l-69 162h-302l-69 -162h-150zM273 289h196
l-98 231z" />
    <glyph glyph-name="Aring" unicode="&#xc5;" horiz-adv-x="743" 
d="M495 873q0 -49 -36 -84.5t-86 -35.5t-86 35.5t-36 84.5t36 84.5t86 35.5t86 -35.5t36 -84.5zM314 873q0 -24 17 -41t42 -17t42 17t17 41t-17 41t-42 17t-42 -17t-17 -41zM1 0l306 710h129l307 -710h-152l-69 162h-302l-69 -162h-150zM273 289h196l-98 231z" />
    <glyph glyph-name="AE" unicode="&#xc6;" horiz-adv-x="941" 
d="M-27 0l401 710h520v-138h-297v-146h237v-138h-237v-150h297v-138h-442v162h-231l-90 -162h-158zM292 289h160v283h-2z" />
    <glyph glyph-name="Ccedilla" unicode="&#xc7;" horiz-adv-x="780" 
d="M287 -141q30 -17 76 -17q62 0 62 33q0 28 -44 28q-22 0 -41 -10l-35 19l48 80q-139 19 -227 121t-88 242q0 156 106 261.5t266 105.5q122 0 218.5 -70.5t125.5 -183.5h-157q-22 52 -74 83t-113 31q-100 0 -163 -65t-63 -162t63 -162t163 -65q61 0 113 31t74 83h157
q-29 -112 -125 -183t-216 -71l-22 -36q28 7 47 7q37 0 61 -21t24 -58q0 -43 -41 -71t-95 -28q-62 0 -100 15v63z" />
    <glyph glyph-name="Egrave" unicode="&#xc8;" horiz-adv-x="568" 
d="M345 770h-103l-123 157h154zM79 0v710h442v-138h-297v-146h237v-138h-237v-150h297v-138h-442z" />
    <glyph glyph-name="Eacute" unicode="&#xc9;" horiz-adv-x="568" 
d="M255 770l72 157h154l-123 -157h-103zM79 0v710h442v-138h-297v-146h237v-138h-237v-150h297v-138h-442z" />
    <glyph glyph-name="Ecircumflex" unicode="&#xca;" horiz-adv-x="568" 
d="M125 763v109l174 73l174 -73v-109l-174 72zM79 0v710h442v-138h-297v-146h237v-138h-237v-150h297v-138h-442z" />
    <glyph glyph-name="Edieresis" unicode="&#xcb;" horiz-adv-x="568" 
d="M257 847q0 -31 -22 -53t-53 -22t-53.5 22t-22.5 53t22 53.5t54 22.5q31 0 53 -22.5t22 -53.5zM492 847q0 -31 -22 -53t-53 -22t-53.5 22t-22.5 53t22.5 53.5t53.5 22.5t53 -22.5t22 -53.5zM79 0v710h442v-138h-297v-146h237v-138h-237v-150h297v-138h-442z" />
    <glyph glyph-name="Igrave" unicode="&#xcc;" horiz-adv-x="303" 
d="M197 770h-103l-123 157h154zM79 0v710h145v-710h-145z" />
    <glyph glyph-name="Iacute" unicode="&#xcd;" horiz-adv-x="303" 
d="M108 770l72 157h154l-123 -157h-103zM79 0v710h145v-710h-145z" />
    <glyph glyph-name="Icircumflex" unicode="&#xce;" horiz-adv-x="303" 
d="M-22 763v109l174 73l174 -73v-109l-174 72zM79 0v710h145v-710h-145z" />
    <glyph glyph-name="Idieresis" unicode="&#xcf;" horiz-adv-x="303" 
d="M110 847q0 -31 -22 -53t-53 -22t-53.5 22t-22.5 53t22.5 53.5t53.5 22.5t53 -22.5t22 -53.5zM345 847q0 -31 -22 -53t-53 -22t-53.5 22t-22.5 53t22 53.5t54 22.5q31 0 53 -22.5t22 -53.5zM79 0v710h145v-710h-145z" />
    <glyph glyph-name="Eth" unicode="&#xd0;" horiz-adv-x="731" 
d="M94 0v295h-72v126h72v289h234q153 0 259 -103t106 -252t-106 -252t-259 -103h-234zM239 133h89q97 0 158 64t61 158t-61 158t-158 64h-89v-156h128v-126h-128v-162z" />
    <glyph glyph-name="Ntilde" unicode="&#xd1;" horiz-adv-x="792" 
d="M206 778l4 26q8 52 41.5 82t76.5 30q34 0 77 -23t55 -23q18 0 27.5 11.5t16.5 35.5h79l-4 -26q-8 -52 -41.5 -82t-76.5 -30q-34 0 -77 23t-55 23q-18 0 -27.5 -11.5t-16.5 -35.5h-79zM713 0h-125l-364 463v-463h-145v710h125l364 -463v463h145v-710z" />
    <glyph glyph-name="Ograve" unicode="&#xd2;" horiz-adv-x="808" 
d="M449 770h-103l-123 157h154zM771 355q0 -152 -107.5 -259.5t-259.5 -107.5t-259.5 107.5t-107.5 259.5t107.5 259.5t259.5 107.5t259.5 -107.5t107.5 -259.5zM183 355q0 -94 64.5 -160.5t156.5 -66.5t156.5 66.5t64.5 160.5t-64.5 160.5t-156.5 66.5t-156.5 -66.5
t-64.5 -160.5z" />
    <glyph glyph-name="Oacute" unicode="&#xd3;" horiz-adv-x="808" 
d="M360 770l72 157h154l-123 -157h-103zM771 355q0 -152 -107.5 -259.5t-259.5 -107.5t-259.5 107.5t-107.5 259.5t107.5 259.5t259.5 107.5t259.5 -107.5t107.5 -259.5zM183 355q0 -94 64.5 -160.5t156.5 -66.5t156.5 66.5t64.5 160.5t-64.5 160.5t-156.5 66.5
t-156.5 -66.5t-64.5 -160.5z" />
    <glyph glyph-name="Ocircumflex" unicode="&#xd4;" horiz-adv-x="808" 
d="M230 763v109l174 73l174 -73v-109l-174 72zM771 355q0 -152 -107.5 -259.5t-259.5 -107.5t-259.5 107.5t-107.5 259.5t107.5 259.5t259.5 107.5t259.5 -107.5t107.5 -259.5zM183 355q0 -94 64.5 -160.5t156.5 -66.5t156.5 66.5t64.5 160.5t-64.5 160.5t-156.5 66.5
t-156.5 -66.5t-64.5 -160.5z" />
    <glyph glyph-name="Otilde" unicode="&#xd5;" horiz-adv-x="808" 
d="M215 778l4 26q8 52 41.5 82t76.5 30q34 0 77 -23t55 -23q18 0 27.5 11.5t16.5 35.5h79l-4 -26q-8 -52 -41.5 -82t-76.5 -30q-34 0 -77 23t-55 23q-18 0 -27.5 -11.5t-16.5 -35.5h-79zM771 355q0 -152 -107.5 -259.5t-259.5 -107.5t-259.5 107.5t-107.5 259.5t107.5 259.5
t259.5 107.5t259.5 -107.5t107.5 -259.5zM183 355q0 -94 64.5 -160.5t156.5 -66.5t156.5 66.5t64.5 160.5t-64.5 160.5t-156.5 66.5t-156.5 -66.5t-64.5 -160.5z" />
    <glyph glyph-name="Odieresis" unicode="&#xd6;" horiz-adv-x="808" 
d="M362 847q0 -31 -22 -53t-53 -22t-53.5 22t-22.5 53t22.5 53.5t53.5 22.5t53 -22.5t22 -53.5zM597 847q0 -31 -22 -53t-53 -22t-53.5 22t-22.5 53t22 53.5t54 22.5q31 0 53 -22.5t22 -53.5zM771 355q0 -152 -107.5 -259.5t-259.5 -107.5t-259.5 107.5t-107.5 259.5
t107.5 259.5t259.5 107.5t259.5 -107.5t107.5 -259.5zM183 355q0 -94 64.5 -160.5t156.5 -66.5t156.5 66.5t64.5 160.5t-64.5 160.5t-156.5 66.5t-156.5 -66.5t-64.5 -160.5z" />
    <glyph glyph-name="multiply" unicode="&#xd7;" horiz-adv-x="506" 
d="M126 78l-84 84l127 127l-127 127l84 84l127 -126l128 126l83 -84l-126 -127l126 -127l-83 -84l-128 126z" />
    <glyph glyph-name="Oslash" unicode="&#xd8;" horiz-adv-x="814" 
d="M774 355q0 -152 -107.5 -259.5t-259.5 -107.5q-116 0 -212 67l-72 -74l-81 81l71 73q-73 97 -73 220q0 152 107.5 259.5t259.5 107.5q118 0 213 -68l71 73l82 -81l-71 -73q72 -98 72 -218zM186 355q0 -61 30 -115l303 311q-51 31 -112 31q-92 0 -156.5 -66.5
t-64.5 -160.5zM628 355q0 58 -29 113l-303 -310q52 -30 111 -30q92 0 156.5 66.5t64.5 160.5z" />
    <glyph glyph-name="Ugrave" unicode="&#xd9;" horiz-adv-x="720" 
d="M405 770h-103l-123 157h154zM649 280q0 -131 -81 -211.5t-208 -80.5q-128 0 -208.5 80t-80.5 212v430h145v-432q0 -70 39.5 -110t104.5 -40t104.5 40t39.5 110v432h145v-430z" />
    <glyph glyph-name="Uacute" unicode="&#xda;" horiz-adv-x="720" 
d="M316 770l72 157h154l-123 -157h-103zM649 280q0 -131 -81 -211.5t-208 -80.5q-128 0 -208.5 80t-80.5 212v430h145v-432q0 -70 39.5 -110t104.5 -40t104.5 40t39.5 110v432h145v-430z" />
    <glyph glyph-name="Ucircumflex" unicode="&#xdb;" horiz-adv-x="720" 
d="M186 763v109l174 73l174 -73v-109l-174 72zM649 280q0 -131 -81 -211.5t-208 -80.5q-128 0 -208.5 80t-80.5 212v430h145v-432q0 -70 39.5 -110t104.5 -40t104.5 40t39.5 110v432h145v-430z" />
    <glyph glyph-name="Udieresis" unicode="&#xdc;" horiz-adv-x="720" 
d="M318 847q0 -31 -22 -53t-53 -22t-53.5 22t-22.5 53t22.5 53.5t53.5 22.5t53 -22.5t22 -53.5zM553 847q0 -31 -22 -53t-53 -22t-53.5 22t-22.5 53t22 53.5t54 22.5q31 0 53 -22.5t22 -53.5zM649 280q0 -131 -81 -211.5t-208 -80.5q-128 0 -208.5 80t-80.5 212v430h145
v-432q0 -70 39.5 -110t104.5 -40t104.5 40t39.5 110v432h145v-430z" />
    <glyph glyph-name="Yacute" unicode="&#xdd;" horiz-adv-x="690" 
d="M301 770l72 157h154l-123 -157h-103zM272 0v299l-262 411h168l166 -269l167 269h169l-263 -412v-298h-145z" />
    <glyph glyph-name="Thorn" unicode="&#xde;" horiz-adv-x="597" 
d="M315 594q107 0 178 -68.5t71 -170.5t-71 -170.5t-178 -68.5h-91v-116h-145v710h145v-116h91zM313 252q49 0 79.5 29.5t30.5 73.5t-30.5 73.5t-79.5 29.5h-89v-206h89z" />
    <glyph glyph-name="germandbls" unicode="&#xdf;" horiz-adv-x="586" 
d="M66 0v530q0 102 67.5 164t163.5 62q93 0 159 -59.5t66 -147.5q0 -90 -75 -154q50 -28 77.5 -75t27.5 -96q0 -98 -68.5 -161t-169.5 -63h-38v124h31q47 0 77.5 29t30.5 72t-30.5 72t-77.5 29h-30v124h16q40 0 66 26.5t26 64.5t-25 64.5t-64 26.5q-40 0 -67 -28.5
t-27 -72.5v-531h-136z" />
    <glyph glyph-name="agrave" unicode="&#xe0;" horiz-adv-x="617" 
d="M268 560l-163 190h159l106 -190h-102zM34 250q0 107 68 184t167 77q48 0 86.5 -20t57.5 -47v56h137v-500h-137v56q-19 -27 -57.5 -47t-86.5 -20q-99 0 -167 77t-68 184zM424 250q0 59 -35 97.5t-91 38.5t-91 -38.5t-35 -97.5t35 -97.5t91 -38.5t91 38.5t35 97.5z" />
    <glyph glyph-name="aacute" unicode="&#xe1;" horiz-adv-x="617" 
d="M274 560l106 190h159l-163 -190h-102zM34 250q0 107 68 184t167 77q48 0 86.5 -20t57.5 -47v56h137v-500h-137v56q-19 -27 -57.5 -47t-86.5 -20q-99 0 -167 77t-68 184zM424 250q0 59 -35 97.5t-91 38.5t-91 -38.5t-35 -97.5t35 -97.5t91 -38.5t91 38.5t35 97.5z" />
    <glyph glyph-name="acircumflex" unicode="&#xe2;" horiz-adv-x="617" 
d="M320 756l174 -98v-110l-174 98l-174 -98v110zM34 250q0 107 68 184t167 77q48 0 86.5 -20t57.5 -47v56h137v-500h-137v56q-19 -27 -57.5 -47t-86.5 -20q-99 0 -167 77t-68 184zM424 250q0 59 -35 97.5t-91 38.5t-91 -38.5t-35 -97.5t35 -97.5t91 -38.5t91 38.5t35 97.5z
" />
    <glyph glyph-name="atilde" unicode="&#xe3;" horiz-adv-x="617" 
d="M131 571l4 26q8 52 41.5 82t76.5 30q34 0 77 -23t55 -23q18 0 27.5 11.5t16.5 35.5h79l-4 -26q-8 -52 -41.5 -82t-76.5 -30q-34 0 -77 23t-55 23q-18 0 -27.5 -11.5t-16.5 -35.5h-79zM34 250q0 107 68 184t167 77q48 0 86.5 -20t57.5 -47v56h137v-500h-137v56
q-19 -27 -57.5 -47t-86.5 -20q-99 0 -167 77t-68 184zM424 250q0 59 -35 97.5t-91 38.5t-91 -38.5t-35 -97.5t35 -97.5t91 -38.5t91 38.5t35 97.5z" />
    <glyph glyph-name="adieresis" unicode="&#xe4;" horiz-adv-x="617" 
d="M278 652q0 -31 -22 -53t-53 -22t-53.5 22t-22.5 53q0 32 22.5 54t53.5 22t53 -22.5t22 -53.5zM513 652q0 -31 -22 -53t-53 -22t-53.5 22t-22.5 53q0 32 22 54t54 22q31 0 53 -22.5t22 -53.5zM34 250q0 107 68 184t167 77q48 0 86.5 -20t57.5 -47v56h137v-500h-137v56
q-19 -27 -57.5 -47t-86.5 -20q-99 0 -167 77t-68 184zM424 250q0 59 -35 97.5t-91 38.5t-91 -38.5t-35 -97.5t35 -97.5t91 -38.5t91 38.5t35 97.5z" />
    <glyph glyph-name="aring" unicode="&#xe5;" horiz-adv-x="617" 
d="M443 663q0 -49 -36 -84.5t-86 -35.5t-86 35.5t-36 84.5t36 84.5t86 35.5t86 -35.5t36 -84.5zM262 663q0 -24 17 -41t42 -17t42 17t17 41t-17 41t-42 17t-42 -17t-17 -41zM34 250q0 107 68 184t167 77q48 0 86.5 -20t57.5 -47v56h137v-500h-137v56q-19 -27 -57.5 -47
t-86.5 -20q-99 0 -167 77t-68 184zM424 250q0 59 -35 97.5t-91 38.5t-91 -38.5t-35 -97.5t35 -97.5t91 -38.5t91 38.5t35 97.5z" />
    <glyph glyph-name="ae" unicode="&#xe6;" horiz-adv-x="908" 
d="M868 163q-22 -76 -91.5 -125t-155.5 -49q-128 0 -205 81q-58 -81 -186 -81q-89 0 -142 43.5t-53 107.5q0 70 55.5 106t173.5 58q67 12 79 21q10 8 10 24q0 24 -21 37.5t-55 13.5q-40 0 -67.5 -17.5t-27.5 -52.5h-136q2 76 67.5 128.5t162.5 52.5q118 0 167 -69
q68 69 176 69q109 0 184.5 -79t70.5 -214h-390q5 -47 39.5 -78.5t94.5 -31.5q36 0 65.5 15t41.5 40h143zM609 400q-47 0 -79 -25t-42 -67h235q-12 47 -44 69.5t-70 22.5zM358 241q-21 -8 -65.5 -22t-53.5 -17q-35 -10 -50 -23t-15 -35q0 -23 20 -36.5t56 -13.5
q43 0 75.5 23.5t32.5 68.5v55z" />
    <glyph glyph-name="ccedilla" unicode="&#xe7;" horiz-adv-x="580" 
d="M182 -204v63q30 -17 76 -17q62 0 62 33q0 28 -44 28q-22 0 -41 -10l-35 19l49 81q-95 16 -155 88t-60 169q0 110 75 185.5t188 75.5q100 0 167.5 -56t88.5 -146h-142q-33 78 -114 78q-55 0 -90 -37.5t-35 -99.5t35 -99.5t90 -37.5q81 0 114 78h142q-20 -87 -84.5 -142.5
t-159.5 -59.5l-23 -37q26 7 47 7q37 0 61 -21t24 -58q0 -43 -41 -71t-95 -28q-62 0 -100 15z" />
    <glyph glyph-name="egrave" unicode="&#xe8;" horiz-adv-x="592" 
d="M249 560l-163 190h159l106 -190h-102zM552 163q-23 -77 -92.5 -125.5t-163.5 -48.5q-115 0 -188.5 74t-73.5 188q0 112 74.5 186t188.5 74q115 0 190.5 -78.5t70.5 -214.5h-390q5 -47 39.5 -78.5t95.5 -31.5q36 0 65 15t41 40h143zM293 400q-46 0 -78 -25t-42 -67h235
q-12 47 -44 69.5t-71 22.5z" />
    <glyph glyph-name="eacute" unicode="&#xe9;" horiz-adv-x="592" 
d="M254 560l106 190h159l-163 -190h-102zM552 163q-23 -77 -92.5 -125.5t-163.5 -48.5q-115 0 -188.5 74t-73.5 188q0 112 74.5 186t188.5 74q115 0 190.5 -78.5t70.5 -214.5h-390q5 -47 39.5 -78.5t95.5 -31.5q36 0 65 15t41 40h143zM293 400q-46 0 -78 -25t-42 -67h235
q-12 47 -44 69.5t-71 22.5z" />
    <glyph glyph-name="ecircumflex" unicode="&#xea;" horiz-adv-x="592" 
d="M301 756l174 -98v-110l-174 98l-174 -98v110zM552 163q-23 -77 -92.5 -125.5t-163.5 -48.5q-115 0 -188.5 74t-73.5 188q0 112 74.5 186t188.5 74q115 0 190.5 -78.5t70.5 -214.5h-390q5 -47 39.5 -78.5t95.5 -31.5q36 0 65 15t41 40h143zM293 400q-46 0 -78 -25t-42 -67
h235q-12 47 -44 69.5t-71 22.5z" />
    <glyph glyph-name="edieresis" unicode="&#xeb;" horiz-adv-x="592" 
d="M259 652q0 -31 -22 -53t-53 -22t-53.5 22t-22.5 53q0 32 22 54t54 22q31 0 53 -22.5t22 -53.5zM494 652q0 -31 -22 -53t-53 -22t-53.5 22t-22.5 53q0 32 22.5 54t53.5 22t53 -22.5t22 -53.5zM552 163q-23 -77 -92.5 -125.5t-163.5 -48.5q-115 0 -188.5 74t-73.5 188
q0 112 74.5 186t188.5 74q115 0 190.5 -78.5t70.5 -214.5h-390q5 -47 39.5 -78.5t95.5 -31.5q36 0 65 15t41 40h143zM293 400q-46 0 -78 -25t-42 -67h235q-12 47 -44 69.5t-71 22.5z" />
    <glyph glyph-name="igrave" unicode="&#xec;" horiz-adv-x="269" 
d="M84 560l-163 190h159l106 -190h-102zM66 0v500h137v-500h-137z" />
    <glyph glyph-name="iacute" unicode="&#xed;" horiz-adv-x="269" 
d="M89 560l106 190h159l-163 -190h-102zM66 0v500h137v-500h-137z" />
    <glyph glyph-name="icircumflex" unicode="&#xee;" horiz-adv-x="269" 
d="M135 756l174 -98v-110l-174 98l-174 -98v110zM66 0v500h137v-500h-137z" />
    <glyph glyph-name="idieresis" unicode="&#xef;" horiz-adv-x="269" 
d="M115 652q0 -31 -22 -53t-53 -22t-53.5 22t-22.5 53q0 32 22 54t54 22q31 0 53 -22.5t22 -53.5zM305 652q0 -31 -22.5 -53t-53.5 -22t-53 22t-22 53t22 53.5t53 22.5t53.5 -22t22.5 -54zM66 0v500h137v-500h-137z" />
    <glyph glyph-name="eth" unicode="&#xf0;" horiz-adv-x="594" 
d="M461 563h-55l105 -161q49 -74 49 -152q0 -108 -77 -184.5t-186 -76.5t-186 76.5t-77 184.5q0 78 40.5 138.5t97 89t113.5 28.5h6l-38 57h-136v90h77l-63 97h152l64 -97h114v-90zM172 250q0 -58 35.5 -95.5t89.5 -37.5t89.5 37.5t35.5 95.5t-35.5 95.5t-89.5 37.5
t-89.5 -37.5t-35.5 -95.5z" />
    <glyph glyph-name="ntilde" unicode="&#xf1;" horiz-adv-x="599" 
d="M113 571l4 26q8 52 41.5 82t76.5 30q34 0 77 -23t55 -23q18 0 27.5 11.5t16.5 35.5h79l-4 -26q-8 -52 -41.5 -82t-76.5 -30q-34 0 -77 23t-55 23q-18 0 -27.5 -11.5t-16.5 -35.5h-79zM66 0v500h137v-57q20 31 57.5 49.5t85.5 18.5q90 0 141.5 -59.5t51.5 -158.5v-293
h-137v270q0 55 -23 85.5t-65 30.5q-50 0 -80.5 -36.5t-30.5 -105.5v-244h-137z" />
    <glyph glyph-name="ograve" unicode="&#xf2;" horiz-adv-x="592" 
d="M244 560l-163 190h159l106 -190h-102zM559 250q0 -109 -77 -185t-186 -76t-186 76t-77 185t77 185t186 76t186 -76t77 -185zM171 250q0 -58 35.5 -95.5t89.5 -37.5t89 37.5t35 95.5t-35 95.5t-89 37.5t-89.5 -37.5t-35.5 -95.5z" />
    <glyph glyph-name="oacute" unicode="&#xf3;" horiz-adv-x="592" 
d="M250 560l106 190h159l-163 -190h-102zM559 250q0 -109 -77 -185t-186 -76t-186 76t-77 185t77 185t186 76t186 -76t77 -185zM171 250q0 -58 35.5 -95.5t89.5 -37.5t89 37.5t35 95.5t-35 95.5t-89 37.5t-89.5 -37.5t-35.5 -95.5z" />
    <glyph glyph-name="ocircumflex" unicode="&#xf4;" horiz-adv-x="592" 
d="M296 756l174 -98v-110l-174 98l-174 -98v110zM559 250q0 -109 -77 -185t-186 -76t-186 76t-77 185t77 185t186 76t186 -76t77 -185zM171 250q0 -58 35.5 -95.5t89.5 -37.5t89 37.5t35 95.5t-35 95.5t-89 37.5t-89.5 -37.5t-35.5 -95.5z" />
    <glyph glyph-name="otilde" unicode="&#xf5;" horiz-adv-x="592" 
d="M107 571l4 26q8 52 41.5 82t76.5 30q34 0 77 -23t55 -23q18 0 27.5 11.5t16.5 35.5h79l-4 -26q-8 -52 -41.5 -82t-76.5 -30q-34 0 -77 23t-55 23q-18 0 -27.5 -11.5t-16.5 -35.5h-79zM559 250q0 -109 -77 -185t-186 -76t-186 76t-77 185t77 185t186 76t186 -76t77 -185z
M171 250q0 -58 35.5 -95.5t89.5 -37.5t89 37.5t35 95.5t-35 95.5t-89 37.5t-89.5 -37.5t-35.5 -95.5z" />
    <glyph glyph-name="odieresis" unicode="&#xf6;" horiz-adv-x="592" 
d="M254 652q0 -31 -22 -53t-53 -22t-53.5 22t-22.5 53q0 32 22.5 54t53.5 22t53 -22.5t22 -53.5zM489 652q0 -31 -22 -53t-53 -22t-53.5 22t-22.5 53q0 32 22 54t54 22q31 0 53 -22.5t22 -53.5zM559 250q0 -109 -77 -185t-186 -76t-186 76t-77 185t77 185t186 76t186 -76
t77 -185zM171 250q0 -58 35.5 -95.5t89.5 -37.5t89 37.5t35 95.5t-35 95.5t-89 37.5t-89.5 -37.5t-35.5 -95.5z" />
    <glyph glyph-name="oslash" unicode="&#xf8;" horiz-adv-x="598" 
d="M563 250q0 -109 -77 -185t-186 -76q-90 0 -161 54l-54 -54l-46 47l53 53q-55 71 -55 161q0 109 77 185t186 76q89 0 160 -53l53 53l46 -47l-52 -52q56 -70 56 -162zM175 250q0 -34 14 -64l177 178q-28 19 -66 19q-54 0 -89.5 -37.5t-35.5 -95.5zM424 250q0 35 -14 65
l-178 -178q29 -20 68 -20q54 0 89 37.5t35 95.5z" />
    <glyph glyph-name="ugrave" unicode="&#xf9;" horiz-adv-x="588" 
d="M240 560l-163 190h159l106 -190h-102zM60 210v290h137v-267q0 -119 85 -119q48 0 75.5 36t27.5 106v244h137v-500h-137v57q-44 -68 -137 -68q-89 0 -138.5 60t-49.5 161z" />
    <glyph glyph-name="uacute" unicode="&#xfa;" horiz-adv-x="588" 
d="M245 560l106 190h159l-163 -190h-102zM60 210v290h137v-267q0 -119 85 -119q48 0 75.5 36t27.5 106v244h137v-500h-137v57q-44 -68 -137 -68q-89 0 -138.5 60t-49.5 161z" />
    <glyph glyph-name="ucircumflex" unicode="&#xfb;" horiz-adv-x="588" 
d="M291 756l174 -98v-110l-174 98l-174 -98v110zM60 210v290h137v-267q0 -119 85 -119q48 0 75.5 36t27.5 106v244h137v-500h-137v57q-44 -68 -137 -68q-89 0 -138.5 60t-49.5 161z" />
    <glyph glyph-name="udieresis" unicode="&#xfc;" horiz-adv-x="588" 
d="M249 652q0 -31 -22 -53t-53 -22t-53.5 22t-22.5 53q0 32 22 54t54 22q31 0 53 -22.5t22 -53.5zM484 652q0 -31 -22 -53t-53 -22t-53.5 22t-22.5 53q0 32 22.5 54t53.5 22t53 -22.5t22 -53.5zM60 210v290h137v-267q0 -119 85 -119q48 0 75.5 36t27.5 106v244h137v-500
h-137v57q-44 -68 -137 -68q-89 0 -138.5 60t-49.5 161z" />
    <glyph glyph-name="yacute" unicode="&#xfd;" horiz-adv-x="570" 
d="M241 560l106 190h159l-163 -190h-102zM256 -209h-149l105 237l-210 472h150l134 -324l133 324h151z" />
    <glyph glyph-name="thorn" unicode="&#xfe;" horiz-adv-x="617" 
d="M66 -209v959h137v-306q19 27 58 47t87 20q99 0 167 -77t68 -184t-68 -184t-167 -77q-48 0 -87 20t-58 47v-265h-137zM444 250q0 59 -35 97.5t-91 38.5t-91 -38.5t-35 -97.5t35 -97.5t91 -38.5t91 38.5t35 97.5z" />
    <glyph glyph-name="ydieresis" unicode="&#xff;" horiz-adv-x="570" 
d="M246 652q0 -31 -22 -53t-53 -22t-53.5 22t-22.5 53q0 32 22.5 54t53.5 22t53 -22.5t22 -53.5zM481 652q0 -31 -22 -53t-53 -22t-53.5 22t-22.5 53q0 32 22 54t54 22q31 0 53 -22.5t22 -53.5zM256 -209h-149l105 237l-210 472h150l134 -324l133 324h151z" />
    <glyph glyph-name="Amacron" unicode="&#x100;" horiz-adv-x="743" 
d="M201 791v96h342v-96h-342zM1 0l306 710h129l307 -710h-152l-69 162h-302l-69 -162h-150zM273 289h196l-98 231z" />
    <glyph glyph-name="amacron" unicode="&#x101;" horiz-adv-x="617" 
d="M149 613v97h342v-97h-342zM34 250q0 107 68 184t167 77q48 0 86.5 -20t57.5 -47v56h137v-500h-137v56q-19 -27 -57.5 -47t-86.5 -20q-99 0 -167 77t-68 184zM424 250q0 59 -35 97.5t-91 38.5t-91 -38.5t-35 -97.5t35 -97.5t91 -38.5t91 38.5t35 97.5z" />
    <glyph glyph-name="Abreve" unicode="&#x102;" horiz-adv-x="743" 
d="M198 925h80q0 -45 27 -70t67 -25t67 25t27 70h80q0 -78 -50 -126.5t-124 -48.5t-124 48.5t-50 126.5zM1 0l306 710h129l307 -710h-152l-69 162h-302l-69 -162h-150zM273 289h196l-98 231z" />
    <glyph glyph-name="abreve" unicode="&#x103;" horiz-adv-x="617" 
d="M494 732q0 -78 -50 -126t-124 -48t-124 48t-50 126v18h80v-18q0 -45 27 -70t67 -25t67 25t27 70v18h80v-18zM34 250q0 107 68 184t167 77q48 0 86.5 -20t57.5 -47v56h137v-500h-137v56q-19 -27 -57.5 -47t-86.5 -20q-99 0 -167 77t-68 184zM424 250q0 59 -35 97.5
t-91 38.5t-91 -38.5t-35 -97.5t35 -97.5t91 -38.5t91 38.5t35 97.5z" />
    <glyph glyph-name="Aogonek" unicode="&#x104;" horiz-adv-x="743" 
d="M1 0l306 710h129l307 -710q-87 -39 -87 -88q0 -26 36 -26q29 0 51 16v-93q-40 -28 -103 -28q-50 0 -80 28t-30 72q0 71 61 119l-69 162h-302l-69 -162h-150zM273 289h196l-98 231z" />
    <glyph glyph-name="aogonek" unicode="&#x105;" horiz-adv-x="617" 
d="M34 250q0 107 68 184t167 77q48 0 86.5 -20t57.5 -47v56h137v-500q-86 -39 -86 -92q0 -30 36 -30q30 0 50 16v-85q-37 -28 -98 -28q-49 0 -78 28t-29 72q0 67 68 119v56q-19 -27 -57.5 -47t-86.5 -20q-99 0 -167 77t-68 184zM424 250q0 59 -35 97.5t-91 38.5t-91 -38.5
t-35 -97.5t35 -97.5t91 -38.5t91 38.5t35 97.5z" />
    <glyph glyph-name="Cacute" unicode="&#x106;" horiz-adv-x="780" 
d="M360 770l72 157h154l-123 -157h-103zM38 355q0 156 106 261.5t266 105.5q122 0 218.5 -70.5t125.5 -183.5h-157q-22 52 -74 83t-113 31q-100 0 -163 -65t-63 -162t63 -162t163 -65q61 0 113 31t74 83h157q-29 -113 -125.5 -183.5t-218.5 -70.5q-160 0 -266 105.5
t-106 261.5z" />
    <glyph glyph-name="cacute" unicode="&#x107;" horiz-adv-x="580" 
d="M253 560l106 190h159l-163 -190h-102zM553 191q-21 -90 -88.5 -146t-167.5 -56q-113 0 -188 75.5t-75 185.5t75 185.5t188 75.5q100 0 167.5 -56t88.5 -146h-142q-33 78 -114 78q-55 0 -90 -37.5t-35 -99.5t35 -99.5t90 -37.5q81 0 114 78h142z" />
    <glyph glyph-name="Ccircumflex" unicode="&#x108;" horiz-adv-x="780" 
d="M230 763v109l174 73l174 -73v-109l-174 72zM38 355q0 156 106 261.5t266 105.5q122 0 218.5 -70.5t125.5 -183.5h-157q-22 52 -74 83t-113 31q-100 0 -163 -65t-63 -162t63 -162t163 -65q61 0 113 31t74 83h157q-29 -113 -125.5 -183.5t-218.5 -70.5q-160 0 -266 105.5
t-106 261.5z" />
    <glyph glyph-name="ccircumflex" unicode="&#x109;" horiz-adv-x="580" 
d="M299 756l174 -98v-110l-174 98l-174 -98v110zM553 191q-21 -90 -88.5 -146t-167.5 -56q-113 0 -188 75.5t-75 185.5t75 185.5t188 75.5q100 0 167.5 -56t88.5 -146h-142q-33 78 -114 78q-55 0 -90 -37.5t-35 -99.5t35 -99.5t90 -37.5q81 0 114 78h142z" />
    <glyph glyph-name="Cdotaccent" unicode="&#x10a;" horiz-adv-x="780" 
d="M479 847q0 -31 -22 -53t-53 -22t-53.5 22t-22.5 53t22 53.5t54 22.5q31 0 53 -22.5t22 -53.5zM38 355q0 156 106 261.5t266 105.5q122 0 218.5 -70.5t125.5 -183.5h-157q-22 52 -74 83t-113 31q-100 0 -163 -65t-63 -162t63 -162t163 -65q61 0 113 31t74 83h157
q-29 -113 -125.5 -183.5t-218.5 -70.5q-160 0 -266 105.5t-106 261.5z" />
    <glyph glyph-name="cdotaccent" unicode="&#x10b;" horiz-adv-x="580" 
d="M374 652q0 -31 -22 -53t-53 -22t-53.5 22t-22.5 53q0 32 22.5 54t53.5 22t53 -22.5t22 -53.5zM553 191q-21 -90 -88.5 -146t-167.5 -56q-113 0 -188 75.5t-75 185.5t75 185.5t188 75.5q100 0 167.5 -56t88.5 -146h-142q-33 78 -114 78q-55 0 -90 -37.5t-35 -99.5
t35 -99.5t90 -37.5q81 0 114 78h142z" />
    <glyph glyph-name="Ccaron" unicode="&#x10c;" horiz-adv-x="780" 
d="M404 763l-174 72v110l174 -73l174 73v-110zM38 355q0 156 106 261.5t266 105.5q122 0 218.5 -70.5t125.5 -183.5h-157q-22 52 -74 83t-113 31q-100 0 -163 -65t-63 -162t63 -162t163 -65q61 0 113 31t74 83h157q-29 -113 -125.5 -183.5t-218.5 -70.5q-160 0 -266 105.5
t-106 261.5z" />
    <glyph glyph-name="ccaron" unicode="&#x10d;" horiz-adv-x="580" 
d="M299 548l-174 98v110l174 -98l174 98v-110zM553 191q-21 -90 -88.5 -146t-167.5 -56q-113 0 -188 75.5t-75 185.5t75 185.5t188 75.5q100 0 167.5 -56t88.5 -146h-142q-33 78 -114 78q-55 0 -90 -37.5t-35 -99.5t35 -99.5t90 -37.5q81 0 114 78h142z" />
    <glyph glyph-name="Dcaron" unicode="&#x10e;" horiz-adv-x="716" 
d="M338 763l-174 72v110l174 -73l174 73v-110zM79 0v710h234q153 0 259 -103t106 -252t-106 -252t-259 -103h-234zM224 133h89q97 0 158 64t61 158t-61 158t-158 64h-89v-444z" />
    <glyph glyph-name="dcaron" unicode="&#x10f;" horiz-adv-x="617" 
d="M34 250q0 107 68 184t167 77q48 0 86.5 -20t57.5 -47v306h137v-750h-137v56q-19 -27 -57.5 -47t-86.5 -20q-99 0 -167 77t-68 184zM570 589l21 161h137l-65 -161h-93zM424 250q0 59 -35 97.5t-91 38.5t-91 -38.5t-35 -97.5t35 -97.5t91 -38.5t91 38.5t35 97.5z" />
    <glyph glyph-name="Dcroat" unicode="&#x110;" horiz-adv-x="731" 
d="M94 0v295h-72v126h72v289h234q153 0 259 -103t106 -252t-106 -252t-259 -103h-234zM239 133h89q97 0 158 64t61 158t-61 158t-158 64h-89v-156h128v-126h-128v-162z" />
    <glyph glyph-name="dcroat" unicode="&#x111;" horiz-adv-x="617" 
d="M34 250q0 107 68 184t167 77q48 0 86.5 -20t57.5 -47v123h-140v90h140v93h137v-93h62v-90h-62v-567h-137v56q-19 -27 -57.5 -47t-86.5 -20q-99 0 -167 77t-68 184zM424 250q0 59 -35 97.5t-91 38.5t-91 -38.5t-35 -97.5t35 -97.5t91 -38.5t91 38.5t35 97.5z" />
    <glyph glyph-name="Emacron" unicode="&#x112;" horiz-adv-x="568" 
d="M128 791v96h342v-96h-342zM79 0v710h442v-138h-297v-146h237v-138h-237v-150h297v-138h-442z" />
    <glyph glyph-name="emacron" unicode="&#x113;" horiz-adv-x="592" 
d="M130 613v97h342v-97h-342zM552 163q-23 -77 -92.5 -125.5t-163.5 -48.5q-115 0 -188.5 74t-73.5 188q0 112 74.5 186t188.5 74q115 0 190.5 -78.5t70.5 -214.5h-390q5 -47 39.5 -78.5t95.5 -31.5q36 0 65 15t41 40h143zM293 400q-46 0 -78 -25t-42 -67h235
q-12 47 -44 69.5t-71 22.5z" />
    <glyph glyph-name="Ebreve" unicode="&#x114;" horiz-adv-x="568" 
d="M125 925h80q0 -45 27 -70t67 -25t67 25t27 70h80q0 -78 -50 -126.5t-124 -48.5t-124 48.5t-50 126.5zM79 0v710h442v-138h-297v-146h237v-138h-237v-150h297v-138h-442z" />
    <glyph glyph-name="ebreve" unicode="&#x115;" horiz-adv-x="592" 
d="M475 732q0 -78 -50 -126t-124 -48t-124 48t-50 126v18h80v-18q0 -45 27 -70t67 -25t67 25t27 70v18h80v-18zM552 163q-23 -77 -92.5 -125.5t-163.5 -48.5q-115 0 -188.5 74t-73.5 188q0 112 74.5 186t188.5 74q115 0 190.5 -78.5t70.5 -214.5h-390q5 -47 39.5 -78.5
t95.5 -31.5q36 0 65 15t41 40h143zM293 400q-46 0 -78 -25t-42 -67h235q-12 47 -44 69.5t-71 22.5z" />
    <glyph glyph-name="Edotaccent" unicode="&#x116;" horiz-adv-x="568" 
d="M374 847q0 -31 -22 -53t-53 -22t-53.5 22t-22.5 53t22.5 53.5t53.5 22.5t53 -22.5t22 -53.5zM79 0v710h442v-138h-297v-146h237v-138h-237v-150h297v-138h-442z" />
    <glyph glyph-name="edotaccent" unicode="&#x117;" horiz-adv-x="592" 
d="M376 652q0 -31 -22 -53t-53 -22t-53.5 22t-22.5 53q0 32 22.5 54t53.5 22t53 -22.5t22 -53.5zM552 163q-23 -77 -92.5 -125.5t-163.5 -48.5q-115 0 -188.5 74t-73.5 188q0 112 74.5 186t188.5 74q115 0 190.5 -78.5t70.5 -214.5h-390q5 -47 39.5 -78.5t95.5 -31.5
q36 0 65 15t41 40h143zM293 400q-46 0 -78 -25t-42 -67h235q-12 47 -44 69.5t-71 22.5z" />
    <glyph glyph-name="Eogonek" unicode="&#x118;" horiz-adv-x="568" 
d="M79 0v710h442v-138h-297v-146h237v-138h-237v-150h297v-138q-40 -18 -63 -41.5t-23 -46.5q0 -26 36 -26q30 0 50 16v-93q-37 -28 -102 -28q-50 0 -80.5 28t-30.5 72q0 67 68 119h-297z" />
    <glyph glyph-name="eogonek" unicode="&#x119;" horiz-adv-x="593" 
d="M409 163h143q-7 -26 -34 -68q-68 -116 -68 -173q0 -20 12.5 -32t33.5 -12q24 0 46 16v-85q-37 -28 -98 -28q-51 0 -82 28.5t-31 74.5q0 51 49 117q-43 -12 -84 -12q-115 0 -188.5 74t-73.5 188q0 112 74.5 186t188.5 74q115 0 190.5 -78.5t70.5 -214.5h-390
q5 -47 39.5 -78.5t95.5 -31.5q36 0 65 15t41 40zM293 400q-46 0 -78 -25t-42 -67h235q-12 47 -44 69.5t-71 22.5z" />
    <glyph glyph-name="Ecaron" unicode="&#x11a;" horiz-adv-x="568" 
d="M299 763l-174 72v110l174 -73l174 73v-110zM79 0v710h442v-138h-297v-146h237v-138h-237v-150h297v-138h-442z" />
    <glyph glyph-name="ecaron" unicode="&#x11b;" horiz-adv-x="592" 
d="M301 548l-174 98v110l174 -98l174 98v-110zM552 163q-23 -77 -92.5 -125.5t-163.5 -48.5q-115 0 -188.5 74t-73.5 188q0 112 74.5 186t188.5 74q115 0 190.5 -78.5t70.5 -214.5h-390q5 -47 39.5 -78.5t95.5 -31.5q36 0 65 15t41 40h143zM293 400q-46 0 -78 -25t-42 -67
h235q-12 47 -44 69.5t-71 22.5z" />
    <glyph glyph-name="Gcircumflex" unicode="&#x11c;" horiz-adv-x="805" 
d="M236 763v109l174 73l174 -73v-109l-174 72zM38 355q0 156 106 261.5t266 105.5q113 0 206 -61t129 -161h-166q-26 38 -71.5 60t-97.5 22q-100 0 -163 -65t-63 -162t63 -162t165 -65q85 0 136.5 43t63.5 118h-217v136h367q12 -106 -11 -191t-73 -137.5t-118 -80.5
t-148 -28q-162 0 -268 105.5t-106 261.5z" />
    <glyph glyph-name="gcircumflex" unicode="&#x11d;" horiz-adv-x="618" 
d="M312 756l174 -98v-110l-174 98l-174 -98v110zM55 -31h134q25 -74 113 -74q48 0 80.5 31t32.5 87v59q-20 -29 -59.5 -47.5t-85.5 -18.5q-98 0 -167 73.5t-69 178.5t69 179t167 74q47 0 86 -19t59 -48v56h137v-469q0 -127 -72.5 -188.5t-180.5 -61.5q-104 0 -170 53
t-74 135zM426 258q0 56 -37 92t-90 36t-90 -36t-37 -92t37 -92t90 -36t90 36t37 92z" />
    <glyph glyph-name="Gbreve" unicode="&#x11e;" horiz-adv-x="805" 
d="M236 925h80q0 -45 27 -70t67 -25t67 25t27 70h80q0 -78 -50 -126.5t-124 -48.5t-124 48.5t-50 126.5zM38 355q0 156 106 261.5t266 105.5q113 0 206 -61t129 -161h-166q-26 38 -71.5 60t-97.5 22q-100 0 -163 -65t-63 -162t63 -162t165 -65q85 0 136.5 43t63.5 118h-217
v136h367q12 -106 -11 -191t-73 -137.5t-118 -80.5t-148 -28q-162 0 -268 105.5t-106 261.5z" />
    <glyph glyph-name="gbreve" unicode="&#x11f;" horiz-adv-x="618" 
d="M486 732q0 -78 -50 -126t-124 -48t-124 48t-50 126v18h80v-18q0 -45 27 -70t67 -25t67 25t27 70v18h80v-18zM55 -31h134q25 -74 113 -74q48 0 80.5 31t32.5 87v59q-20 -29 -59.5 -47.5t-85.5 -18.5q-98 0 -167 73.5t-69 178.5t69 179t167 74q47 0 86 -19t59 -48v56h137
v-469q0 -127 -72.5 -188.5t-180.5 -61.5q-104 0 -170 53t-74 135zM426 258q0 56 -37 92t-90 36t-90 -36t-37 -92t37 -92t90 -36t90 36t37 92z" />
    <glyph glyph-name="Gdotaccent" unicode="&#x120;" horiz-adv-x="805" 
d="M485 847q0 -31 -22 -53t-53 -22t-53.5 22t-22.5 53t22 53.5t54 22.5q31 0 53 -22.5t22 -53.5zM38 355q0 156 106 261.5t266 105.5q113 0 206 -61t129 -161h-166q-26 38 -71.5 60t-97.5 22q-100 0 -163 -65t-63 -162t63 -162t165 -65q85 0 136.5 43t63.5 118h-217v136h367
q12 -106 -11 -191t-73 -137.5t-118 -80.5t-148 -28q-162 0 -268 105.5t-106 261.5z" />
    <glyph glyph-name="gdotaccent" unicode="&#x121;" horiz-adv-x="618" 
d="M387 652q0 -31 -22 -53t-53 -22t-53.5 22t-22.5 53q0 32 22 54t54 22q31 0 53 -22.5t22 -53.5zM55 -31h134q25 -74 113 -74q48 0 80.5 31t32.5 87v59q-20 -29 -59.5 -47.5t-85.5 -18.5q-98 0 -167 73.5t-69 178.5t69 179t167 74q47 0 86 -19t59 -48v56h137v-469
q0 -127 -72.5 -188.5t-180.5 -61.5q-104 0 -170 53t-74 135zM426 258q0 56 -37 92t-90 36t-90 -36t-37 -92t37 -92t90 -36t90 36t37 92z" />
    <glyph glyph-name="Gcommaaccent" unicode="&#x122;" horiz-adv-x="805" 
d="M38 355q0 156 106 261.5t266 105.5q113 0 206 -61t129 -161h-166q-26 38 -71.5 60t-97.5 22q-100 0 -163 -65t-63 -162t63 -162t165 -65q85 0 136.5 43t63.5 118h-217v136h367q12 -106 -11 -191t-73 -137.5t-118 -80.5t-148 -28q-162 0 -268 105.5t-106 261.5zM338 -306
l42 94q-19 8 -32 26.5t-13 42.5q0 31 22 53t53 22t53 -22t22 -53q0 -27 -15 -48l-72 -115h-60z" />
    <glyph glyph-name="gcommaaccent" unicode="&#x123;" horiz-adv-x="618" 
d="M387 652q0 -31 -22 -53t-53 -22t-53 22t-22 53q0 26 15 48l72 115h60l-42 -94q19 -8 32 -26.5t13 -42.5zM55 -31h134q25 -74 113 -74q48 0 80.5 31t32.5 87v59q-20 -29 -59.5 -47.5t-85.5 -18.5q-98 0 -167 73.5t-69 178.5t69 179t167 74q47 0 86 -19t59 -48v56h137v-469
q0 -127 -72.5 -188.5t-180.5 -61.5q-104 0 -170 53t-74 135zM426 258q0 56 -37 92t-90 36t-90 -36t-37 -92t37 -92t90 -36t90 36t37 92z" />
    <glyph glyph-name="Hcircumflex" unicode="&#x124;" horiz-adv-x="756" 
d="M204 763v109l174 73l174 -73v-109l-174 72zM79 0v710h145v-283h308v283h145v-710h-145v289h-308v-289h-145z" />
    <glyph glyph-name="hcircumflex" unicode="&#x125;" horiz-adv-x="599" 
d="M152 763v109l174 73l174 -73v-109l-174 72zM66 0v750h137v-307q20 31 57.5 49.5t85.5 18.5q90 0 141.5 -59.5t51.5 -158.5v-293h-137v270q0 55 -23 85.5t-65 30.5q-50 0 -80.5 -36.5t-30.5 -105.5v-244h-137z" />
    <glyph glyph-name="Hbar" unicode="&#x126;" horiz-adv-x="787" 
d="M95 0v519h-72v100h72v91h145v-91h308v91h145v-91h72v-100h-72v-519h-145v289h-308v-289h-145zM240 427h308v92h-308v-92z" />
    <glyph glyph-name="hbar" unicode="&#x127;" horiz-adv-x="599" 
d="M66 0v567h-62v90h62v93h137v-93h140v-90h-140v-124q20 31 57.5 49.5t85.5 18.5q90 0 141.5 -59.5t51.5 -158.5v-293h-137v270q0 55 -23 85.5t-65 30.5q-50 0 -80.5 -36.5t-30.5 -105.5v-244h-137z" />
    <glyph glyph-name="Itilde" unicode="&#x128;" horiz-adv-x="303" 
d="M-37 778l4 26q8 52 41.5 82t76.5 30q34 0 77 -23t55 -23q18 0 27.5 11.5t16.5 35.5h79l-4 -26q-8 -52 -41.5 -82t-76.5 -30q-34 0 -77 23t-55 23q-18 0 -27.5 -11.5t-16.5 -35.5h-79zM79 0v710h145v-710h-145z" />
    <glyph glyph-name="itilde" unicode="&#x129;" horiz-adv-x="269" 
d="M-54 571l4 26q8 52 41.5 82t76.5 30q34 0 77 -23t55 -23q18 0 27.5 11.5t16.5 35.5h79l-4 -26q-8 -52 -41.5 -82t-76.5 -30q-34 0 -77 23t-55 23q-18 0 -27.5 -11.5t-16.5 -35.5h-79zM66 0v500h137v-500h-137z" />
    <glyph glyph-name="Imacron" unicode="&#x12a;" horiz-adv-x="303" 
d="M-19 791v96h342v-96h-342zM79 0v710h145v-710h-145z" />
    <glyph glyph-name="imacron" unicode="&#x12b;" horiz-adv-x="269" 
d="M-36 613v97h342v-97h-342zM66 0v500h137v-500h-137z" />
    <glyph glyph-name="Ibreve" unicode="&#x12c;" horiz-adv-x="303" 
d="M-22 925h80q0 -45 27 -70t67 -25t67 25t27 70h80q0 -78 -50 -126.5t-124 -48.5t-124 48.5t-50 126.5zM79 0v710h145v-710h-145z" />
    <glyph glyph-name="ibreve" unicode="&#x12d;" horiz-adv-x="269" 
d="M309 732q0 -78 -50 -126t-124 -48t-124 48t-50 126v18h80v-18q0 -45 27 -70t67 -25t67 25t27 70v18h80v-18zM66 0v500h137v-500h-137z" />
    <glyph glyph-name="Iogonek" unicode="&#x12e;" horiz-adv-x="303" 
d="M224 -191q-37 -28 -102 -28q-50 0 -80.5 28t-30.5 72q0 67 68 119v710h145v-710q-40 -18 -63 -41.5t-23 -46.5q0 -26 36 -26q30 0 50 16v-93z" />
    <glyph glyph-name="iogonek" unicode="&#x12f;" horiz-adv-x="269" 
d="M222 669q0 -36 -25.5 -61.5t-62.5 -25.5q-35 0 -61 25.5t-26 61.5t26 61.5t61 25.5q37 0 62.5 -25.5t25.5 -61.5zM-2 -119q0 67 68 119v500h137v-500q-86 -39 -86 -92q0 -30 36 -30q30 0 50 16v-85q-37 -28 -98 -28q-49 0 -78 28t-29 72z" />
    <glyph glyph-name="Idotaccent" unicode="&#x130;" horiz-adv-x="303" 
d="M227 847q0 -31 -22 -53t-53 -22t-53.5 22t-22.5 53t22 53.5t54 22.5q31 0 53 -22.5t22 -53.5zM79 0v710h145v-710h-145z" />
    <glyph glyph-name="dotlessi" unicode="&#x131;" horiz-adv-x="269" 
d="M66 0v500h137v-500h-137z" />
    <glyph glyph-name="Jcircumflex" unicode="&#x134;" horiz-adv-x="547" 
d="M226 763v109l174 73l174 -73v-109l-174 72zM473 194q0 -103 -64.5 -154.5t-162.5 -51.5q-96 0 -161 55t-65 161h143q0 -39 23.5 -60t59.5 -21t59.5 20.5t23.5 60.5v506h144v-516z" />
    <glyph glyph-name="jcircumflex" unicode="&#x135;" horiz-adv-x="277" 
d="M144 756l174 -98v-110l-174 98l-174 -98v110zM211 500v-538q0 -87 -53 -134t-133 -47q-36 0 -56 4v117q12 -2 26 -2q79 0 79 84v516h137z" />
    <glyph glyph-name="Kcommaaccent" unicode="&#x136;" horiz-adv-x="694" 
d="M79 0v710h144v-300l256 300h179l-292 -341l353 -369h-188l-308 323v-323h-144zM304 -306l42 94q-19 8 -32 26.5t-13 42.5q0 31 22 53t53 22t53 -22t22 -53q0 -27 -15 -48l-72 -115h-60z" />
    <glyph glyph-name="kcommaaccent" unicode="&#x137;" horiz-adv-x="556" 
d="M66 0v750h137v-434l162 184h165l-198 -225l244 -275h-169l-204 230v-230h-137zM233 -306l42 94q-19 8 -32 26.5t-13 42.5q0 31 22 53t53 22t53 -22t22 -53q0 -27 -15 -48l-72 -115h-60z" />
    <glyph glyph-name="Lacute" unicode="&#x139;" horiz-adv-x="551" 
d="M110 770l72 157h154l-123 -157h-103zM79 0v710h145v-572h304v-138h-449z" />
    <glyph glyph-name="lacute" unicode="&#x13a;" horiz-adv-x="269" 
d="M89 810l106 190h159l-163 -190h-102zM66 0v750h137v-750h-137z" />
    <glyph glyph-name="Lcommaaccent" unicode="&#x13b;" horiz-adv-x="551" 
d="M79 0v710h145v-572h304v-138h-449zM231 -306l42 94q-19 8 -32 26.5t-13 42.5q0 31 22 53t53 22t53 -22t22 -53q0 -27 -15 -48l-72 -115h-60z" />
    <glyph glyph-name="lcommaaccent" unicode="&#x13c;" horiz-adv-x="269" 
d="M66 0v750h137v-750h-137zM63 -306l42 94q-19 8 -32 26.5t-13 42.5q0 31 22 53t53 22t53 -22t22 -53q0 -27 -15 -48l-72 -115h-60z" />
    <glyph glyph-name="Lcaron" unicode="&#x13d;" horiz-adv-x="553" 
d="M294 589l21 161h137l-65 -161h-93zM79 0v710h145v-572h304v-138h-449z" />
    <glyph glyph-name="lcaron" unicode="&#x13e;" horiz-adv-x="269" 
d="M66 0v750h137v-750h-137zM223 589l21 161h137l-65 -161h-93z" />
    <glyph glyph-name="Ldot" unicode="&#x13f;" horiz-adv-x="558" 
d="M79 0v710h145v-572h304v-138h-449zM498 424q0 -31 -22 -53t-53 -22t-53.5 22t-22.5 53q0 32 22.5 54t53.5 22t53 -22.5t22 -53.5z" />
    <glyph glyph-name="ldot" unicode="&#x140;" horiz-adv-x="404" 
d="M66 0v750h137v-750h-137zM412 373q0 -31 -22 -53t-53 -22t-53.5 22t-22.5 53t22.5 53.5t53.5 22.5t53 -22.5t22 -53.5z" />
    <glyph glyph-name="Lslash" unicode="&#x141;" horiz-adv-x="580" 
d="M107 0v255l-71 -42v115l71 42v340h145v-255l136 80v-116l-136 -80v-201h304v-138h-449z" />
    <glyph glyph-name="lslash" unicode="&#x142;" horiz-adv-x="350" 
d="M107 0v279l-74 -43v107l74 44v363h137v-283l74 44v-108l-74 -43v-360h-137z" />
    <glyph glyph-name="Nacute" unicode="&#x143;" horiz-adv-x="792" 
d="M351 770l72 157h154l-123 -157h-103zM713 0h-125l-364 463v-463h-145v710h125l364 -463v463h145v-710z" />
    <glyph glyph-name="nacute" unicode="&#x144;" horiz-adv-x="599" 
d="M256 560l106 190h159l-163 -190h-102zM66 0v500h137v-57q20 31 57.5 49.5t85.5 18.5q90 0 141.5 -59.5t51.5 -158.5v-293h-137v270q0 55 -23 85.5t-65 30.5q-50 0 -80.5 -36.5t-30.5 -105.5v-244h-137z" />
    <glyph glyph-name="Ncommaaccent" unicode="&#x145;" horiz-adv-x="792" 
d="M713 0h-125l-364 463v-463h-145v710h125l364 -463v463h145v-710zM323 -306l42 94q-19 8 -32 26.5t-13 42.5q0 31 22 53t53 22t53 -22t22 -53q0 -27 -15 -48l-72 -115h-60z" />
    <glyph glyph-name="ncommaaccent" unicode="&#x146;" horiz-adv-x="599" 
d="M66 0v500h137v-57q20 31 57.5 49.5t85.5 18.5q90 0 141.5 -59.5t51.5 -158.5v-293h-137v270q0 55 -23 85.5t-65 30.5q-50 0 -80.5 -36.5t-30.5 -105.5v-244h-137zM230 -306l42 94q-19 8 -32 26.5t-13 42.5q0 31 22 53t53 22t53 -22t22 -53q0 -27 -15 -48l-72 -115h-60z
" />
    <glyph glyph-name="Ncaron" unicode="&#x147;" horiz-adv-x="792" 
d="M395 763l-174 72v110l174 -73l174 73v-110zM713 0h-125l-364 463v-463h-145v710h125l364 -463v463h145v-710z" />
    <glyph glyph-name="ncaron" unicode="&#x148;" horiz-adv-x="599" 
d="M302 548l-174 98v110l174 -98l174 98v-110zM66 0v500h137v-57q20 31 57.5 49.5t85.5 18.5q90 0 141.5 -59.5t51.5 -158.5v-293h-137v270q0 55 -23 85.5t-65 30.5q-50 0 -80.5 -36.5t-30.5 -105.5v-244h-137z" />
    <glyph glyph-name="Eng" unicode="&#x14a;" horiz-adv-x="792" 
d="M568 0v25l-344 438v-463h-145v710h125l364 -463v463h145v-748q0 -88 -53.5 -134.5t-137.5 -46.5q-52 0 -87 11v132q27 -8 57 -8q41 0 58.5 19.5t17.5 64.5z" />
    <glyph glyph-name="eng" unicode="&#x14b;" horiz-adv-x="599" 
d="M66 0v500h137v-57q20 31 57.5 49.5t85.5 18.5q90 0 141.5 -59.5t51.5 -158.5v-327q0 -88 -53.5 -134.5t-136.5 -46.5q-37 0 -65 5v121q20 -2 33 -2q45 0 65 19.5t20 64.5v277q0 55 -23 85.5t-65 30.5q-50 0 -80.5 -36.5t-30.5 -105.5v-244h-137z" />
    <glyph glyph-name="Omacron" unicode="&#x14c;" horiz-adv-x="808" 
d="M233 791v96h342v-96h-342zM771 355q0 -152 -107.5 -259.5t-259.5 -107.5t-259.5 107.5t-107.5 259.5t107.5 259.5t259.5 107.5t259.5 -107.5t107.5 -259.5zM183 355q0 -94 64.5 -160.5t156.5 -66.5t156.5 66.5t64.5 160.5t-64.5 160.5t-156.5 66.5t-156.5 -66.5
t-64.5 -160.5z" />
    <glyph glyph-name="omacron" unicode="&#x14d;" horiz-adv-x="592" 
d="M125 613v97h342v-97h-342zM559 250q0 -109 -77 -185t-186 -76t-186 76t-77 185t77 185t186 76t186 -76t77 -185zM171 250q0 -58 35.5 -95.5t89.5 -37.5t89 37.5t35 95.5t-35 95.5t-89 37.5t-89.5 -37.5t-35.5 -95.5z" />
    <glyph glyph-name="Obreve" unicode="&#x14e;" horiz-adv-x="808" 
d="M230 925h80q0 -45 27 -70t67 -25t67 25t27 70h80q0 -78 -50 -126.5t-124 -48.5t-124 48.5t-50 126.5zM771 355q0 -152 -107.5 -259.5t-259.5 -107.5t-259.5 107.5t-107.5 259.5t107.5 259.5t259.5 107.5t259.5 -107.5t107.5 -259.5zM183 355q0 -94 64.5 -160.5
t156.5 -66.5t156.5 66.5t64.5 160.5t-64.5 160.5t-156.5 66.5t-156.5 -66.5t-64.5 -160.5z" />
    <glyph glyph-name="obreve" unicode="&#x14f;" horiz-adv-x="592" 
d="M470 732q0 -78 -50 -126t-124 -48t-124 48t-50 126v18h80v-18q0 -45 27 -70t67 -25t67 25t27 70v18h80v-18zM559 250q0 -109 -77 -185t-186 -76t-186 76t-77 185t77 185t186 76t186 -76t77 -185zM171 250q0 -58 35.5 -95.5t89.5 -37.5t89 37.5t35 95.5t-35 95.5t-89 37.5
t-89.5 -37.5t-35.5 -95.5z" />
    <glyph glyph-name="Ohungarumlaut" unicode="&#x150;" horiz-adv-x="808" 
d="M456 770l66 157h144l-123 -157h-87zM274 770l66 157h144l-123 -157h-87zM771 355q0 -152 -107.5 -259.5t-259.5 -107.5t-259.5 107.5t-107.5 259.5t107.5 259.5t259.5 107.5t259.5 -107.5t107.5 -259.5zM183 355q0 -94 64.5 -160.5t156.5 -66.5t156.5 66.5t64.5 160.5
t-64.5 160.5t-156.5 66.5t-156.5 -66.5t-64.5 -160.5z" />
    <glyph glyph-name="ohungarumlaut" unicode="&#x151;" horiz-adv-x="592" 
d="M335 560l66 190h144l-123 -190h-87zM153 560l66 190h144l-123 -190h-87zM559 250q0 -109 -77 -185t-186 -76t-186 76t-77 185t77 185t186 76t186 -76t77 -185zM171 250q0 -58 35.5 -95.5t89.5 -37.5t89 37.5t35 95.5t-35 95.5t-89 37.5t-89.5 -37.5t-35.5 -95.5z" />
    <glyph glyph-name="OE" unicode="&#x152;" horiz-adv-x="1114" 
d="M625 0v69q-78 -81 -221 -81q-152 0 -259.5 107.5t-107.5 259.5t107.5 259.5t259.5 107.5q143 0 221 -81v69h442v-138h-297v-146h237v-138h-237v-150h297v-138h-442zM183 355q0 -94 64.5 -160.5t156.5 -66.5t156.5 66.5t64.5 160.5t-64.5 160.5t-156.5 66.5t-156.5 -66.5
t-64.5 -160.5z" />
    <glyph glyph-name="oe" unicode="&#x153;" horiz-adv-x="979" 
d="M939 163q-24 -77 -93.5 -125.5t-163.5 -48.5q-119 0 -195 81q-78 -81 -191 -81q-109 0 -186 76t-77 185t77 185t186 76q115 0 192 -82q77 82 195 82q115 0 190.5 -78.5t70.5 -214.5h-389q5 -48 39.5 -79t94.5 -31q36 0 65.5 15t40.5 40h144zM679 400q-46 0 -78 -25
t-42 -67h235q-12 47 -44 69.5t-71 22.5zM171 250q0 -58 35.5 -95.5t89.5 -37.5t89 37.5t35 95.5t-35 95.5t-89 37.5t-89.5 -37.5t-35.5 -95.5z" />
    <glyph glyph-name="Racute" unicode="&#x154;" horiz-adv-x="656" 
d="M257 770l72 157h154l-123 -157h-103zM79 0v710h272q98 0 158 -60t60 -150q0 -138 -146 -185l255 -315h-175l-243 299h-36v-299h-145zM224 423h110q41 0 66 20.5t25 56.5t-25 56.5t-66 20.5h-110v-154z" />
    <glyph glyph-name="racute" unicode="&#x155;" horiz-adv-x="395" 
d="M173 560l106 190h159l-163 -190h-102zM66 0v500h137v-80q13 37 47.5 61.5t76.5 24.5q26 0 46 -6v-139q-33 11 -62 11q-49 0 -78.5 -36t-29.5 -97v-239h-137z" />
    <glyph glyph-name="Rcommaaccent" unicode="&#x156;" horiz-adv-x="656" 
d="M79 0v710h272q98 0 158 -60t60 -150q0 -138 -146 -185l255 -315h-175l-243 299h-36v-299h-145zM224 423h110q41 0 66 20.5t25 56.5t-25 56.5t-66 20.5h-110v-154zM291 -306l42 94q-19 8 -32 26.5t-13 42.5q0 31 22 53t53 22t53 -22t22 -53q0 -27 -15 -48l-72 -115h-60z
" />
    <glyph glyph-name="rcommaaccent" unicode="&#x157;" horiz-adv-x="395" 
d="M66 0v500h137v-80q13 37 47.5 61.5t76.5 24.5q26 0 46 -6v-139q-33 11 -62 11q-49 0 -78.5 -36t-29.5 -97v-239h-137zM62 -306l42 94q-19 8 -32 26.5t-13 42.5q0 31 22 53t53 22t53 -22t22 -53q0 -27 -15 -48l-72 -115h-60z" />
    <glyph glyph-name="Rcaron" unicode="&#x158;" horiz-adv-x="656" 
d="M301 763l-174 72v110l174 -73l174 73v-110zM79 0v710h272q98 0 158 -60t60 -150q0 -138 -146 -185l255 -315h-175l-243 299h-36v-299h-145zM224 423h110q41 0 66 20.5t25 56.5t-25 56.5t-66 20.5h-110v-154z" />
    <glyph glyph-name="rcaron" unicode="&#x159;" horiz-adv-x="395" 
d="M219 548l-174 98v110l174 -98l174 98v-110zM66 0v500h137v-80q13 37 47.5 61.5t76.5 24.5q26 0 46 -6v-139q-33 11 -62 11q-49 0 -78.5 -36t-29.5 -97v-239h-137z" />
    <glyph glyph-name="Sacute" unicode="&#x15a;" horiz-adv-x="593" 
d="M250 770l72 157h154l-123 -157h-103zM34 220h145q7 -46 43 -72t85 -26q44 0 72.5 19.5t28.5 52.5q0 59 -95 86l-75 22q-87 25 -136 78t-50 132q-1 97 64.5 153.5t173.5 56.5q109 0 177 -65.5t72 -150.5h-144q-11 42 -40.5 62t-64.5 20q-39 0 -65 -17.5t-27 -48.5
q-1 -32 21.5 -52t67.5 -33l83 -23q88 -24 136 -79t48 -136q0 -92 -68.5 -151.5t-178.5 -59.5q-121 0 -194.5 69t-78.5 163z" />
    <glyph glyph-name="sacute" unicode="&#x15b;" horiz-adv-x="501" 
d="M205 560l106 190h159l-163 -190h-102zM468 141q0 -69 -58.5 -110.5t-150.5 -41.5q-96 0 -159 48t-67 122h143q4 -32 28 -48.5t59 -16.5q65 0 65 40q0 19 -14.5 30.5t-48.5 19.5l-94 24q-63 16 -95 57t-32 98q0 66 54.5 107t146.5 41q84 0 140 -42t62 -116h-138
q-9 51 -66 51q-27 0 -43 -10t-16 -28q0 -33 57 -46l88 -24q139 -35 139 -155z" />
    <glyph glyph-name="Scircumflex" unicode="&#x15c;" horiz-adv-x="593" 
d="M120 763v109l174 73l174 -73v-109l-174 72zM34 220h145q7 -46 43 -72t85 -26q44 0 72.5 19.5t28.5 52.5q0 59 -95 86l-75 22q-87 25 -136 78t-50 132q-1 97 64.5 153.5t173.5 56.5q109 0 177 -65.5t72 -150.5h-144q-11 42 -40.5 62t-64.5 20q-39 0 -65 -17.5t-27 -48.5
q-1 -32 21.5 -52t67.5 -33l83 -23q88 -24 136 -79t48 -136q0 -92 -68.5 -151.5t-178.5 -59.5q-121 0 -194.5 69t-78.5 163z" />
    <glyph glyph-name="scircumflex" unicode="&#x15d;" horiz-adv-x="501" 
d="M252 756l174 -98v-110l-174 98l-174 -98v110zM468 141q0 -69 -58.5 -110.5t-150.5 -41.5q-96 0 -159 48t-67 122h143q4 -32 28 -48.5t59 -16.5q65 0 65 40q0 19 -14.5 30.5t-48.5 19.5l-94 24q-63 16 -95 57t-32 98q0 66 54.5 107t146.5 41q84 0 140 -42t62 -116h-138
q-9 51 -66 51q-27 0 -43 -10t-16 -28q0 -33 57 -46l88 -24q139 -35 139 -155z" />
    <glyph glyph-name="Scedilla" unicode="&#x15e;" horiz-adv-x="593" 
d="M34 220h145q7 -46 43 -72t85 -26q44 0 72.5 19.5t28.5 52.5q0 59 -95 86l-75 22q-87 25 -136 78t-50 132q-1 97 64.5 153.5t173.5 56.5q109 0 177 -65.5t72 -150.5h-144q-11 42 -40.5 62t-64.5 20q-39 0 -65 -17.5t-27 -48.5q-1 -32 21.5 -52t67.5 -33l83 -23
q88 -24 136 -79t48 -136q0 -90 -66.5 -150t-174.5 -61l-22 -36q28 7 47 7q37 0 61 -21t24 -58q0 -43 -41 -71t-95 -28q-62 0 -100 15v63q30 -17 76 -17q62 0 62 33q0 28 -44 28q-22 0 -41 -10l-35 19l48 80q-98 15 -156.5 80.5t-62.5 147.5z" />
    <glyph glyph-name="scedilla" unicode="&#x15f;" horiz-adv-x="501" 
d="M129 -204v63q30 -17 76 -17q62 0 62 33q0 28 -44 28q-22 0 -41 -10l-35 19l50 83q-72 14 -116.5 58.5t-47.5 105.5h143q4 -32 28 -48.5t59 -16.5q65 0 65 40q0 19 -14.5 30.5t-48.5 19.5l-94 24q-63 16 -95 57t-32 98q0 66 54.5 107t146.5 41q84 0 140 -42t62 -116h-138
q-9 51 -66 51q-27 0 -43 -10t-16 -28q0 -33 57 -46l88 -24q139 -35 139 -155q0 -69 -58.5 -110.5t-150.5 -41.5h-3l-23 -37q26 7 47 7q37 0 61 -21t24 -58q0 -43 -41 -71t-95 -28q-62 0 -100 15z" />
    <glyph glyph-name="Scaron" unicode="&#x160;" horiz-adv-x="593" 
d="M294 763l-174 72v110l174 -73l174 73v-110zM34 220h145q7 -46 43 -72t85 -26q44 0 72.5 19.5t28.5 52.5q0 59 -95 86l-75 22q-87 25 -136 78t-50 132q-1 97 64.5 153.5t173.5 56.5q109 0 177 -65.5t72 -150.5h-144q-11 42 -40.5 62t-64.5 20q-39 0 -65 -17.5t-27 -48.5
q-1 -32 21.5 -52t67.5 -33l83 -23q88 -24 136 -79t48 -136q0 -92 -68.5 -151.5t-178.5 -59.5q-121 0 -194.5 69t-78.5 163z" />
    <glyph glyph-name="scaron" unicode="&#x161;" horiz-adv-x="501" 
d="M252 548l-174 98v110l174 -98l174 98v-110zM468 141q0 -69 -58.5 -110.5t-150.5 -41.5q-96 0 -159 48t-67 122h143q4 -32 28 -48.5t59 -16.5q65 0 65 40q0 19 -14.5 30.5t-48.5 19.5l-94 24q-63 16 -95 57t-32 98q0 66 54.5 107t146.5 41q84 0 140 -42t62 -116h-138
q-9 51 -66 51q-27 0 -43 -10t-16 -28q0 -33 57 -46l88 -24q139 -35 139 -155z" />
    <glyph glyph-name="uni0162" unicode="&#x162;" horiz-adv-x="568" 
d="M210 0v572h-189v138h526v-138h-191v-572h-146zM212 -306l42 94q-19 8 -32 26.5t-13 42.5q0 31 22 53t53 22t53 -22t22 -53q0 -27 -15 -48l-72 -115h-60z" />
    <glyph glyph-name="uni0163" unicode="&#x163;" horiz-adv-x="427" 
d="M395 5q-35 -11 -87 -11q-84 0 -137.5 46.5t-53.5 134.5v205h-101v120h101v139h137v-139h141v-120h-141v-178q0 -45 20 -65t65 -20q32 0 56 9v-121zM195 -306l42 94q-19 8 -32 26.5t-13 42.5q0 31 22 53t53 22t53 -22t22 -53q0 -27 -15 -48l-72 -115h-60z" />
    <glyph glyph-name="Tcaron" unicode="&#x164;" horiz-adv-x="568" 
d="M284 763l-174 72v110l174 -73l174 73v-110zM210 0v572h-189v138h526v-138h-191v-572h-146z" />
    <glyph glyph-name="tcaron" unicode="&#x165;" horiz-adv-x="427" 
d="M274 549l21 161h137l-65 -161h-93zM395 5q-35 -11 -87 -11q-84 0 -137.5 46.5t-53.5 134.5v205h-101v120h101v139h137v-139h141v-120h-141v-178q0 -45 20 -65t65 -20q32 0 56 9v-121z" />
    <glyph glyph-name="Tbar" unicode="&#x166;" horiz-adv-x="592" 
d="M222 0v295h-139v126h139v151h-189v138h526v-138h-191v-151h140v-126h-140v-295h-146z" />
    <glyph glyph-name="tbar" unicode="&#x167;" horiz-adv-x="438" 
d="M23 220v90h101v70h-101v120h101v139h137v-139h141v-120h-141v-70h141v-90h-141v-18q0 -45 20 -65t65 -20q32 0 56 9v-121q-35 -11 -87 -11q-84 0 -137.5 46.5t-53.5 134.5v45h-101z" />
    <glyph glyph-name="Utilde" unicode="&#x168;" horiz-adv-x="720" 
d="M171 778l4 26q8 52 41.5 82t76.5 30q34 0 77 -23t55 -23q18 0 27.5 11.5t16.5 35.5h79l-4 -26q-8 -52 -41.5 -82t-76.5 -30q-34 0 -77 23t-55 23q-18 0 -27.5 -11.5t-16.5 -35.5h-79zM649 280q0 -131 -81 -211.5t-208 -80.5q-128 0 -208.5 80t-80.5 212v430h145v-432
q0 -70 39.5 -110t104.5 -40t104.5 40t39.5 110v432h145v-430z" />
    <glyph glyph-name="utilde" unicode="&#x169;" horiz-adv-x="588" 
d="M102 571l4 26q8 52 41.5 82t76.5 30q34 0 77 -23t55 -23q18 0 27.5 11.5t16.5 35.5h79l-4 -26q-8 -52 -41.5 -82t-76.5 -30q-34 0 -77 23t-55 23q-18 0 -27.5 -11.5t-16.5 -35.5h-79zM60 210v290h137v-267q0 -119 85 -119q48 0 75.5 36t27.5 106v244h137v-500h-137v57
q-44 -68 -137 -68q-89 0 -138.5 60t-49.5 161z" />
    <glyph glyph-name="Umacron" unicode="&#x16a;" horiz-adv-x="720" 
d="M189 791v96h342v-96h-342zM649 280q0 -131 -81 -211.5t-208 -80.5q-128 0 -208.5 80t-80.5 212v430h145v-432q0 -70 39.5 -110t104.5 -40t104.5 40t39.5 110v432h145v-430z" />
    <glyph glyph-name="umacron" unicode="&#x16b;" horiz-adv-x="588" 
d="M120 613v97h342v-97h-342zM60 210v290h137v-267q0 -119 85 -119q48 0 75.5 36t27.5 106v244h137v-500h-137v57q-44 -68 -137 -68q-89 0 -138.5 60t-49.5 161z" />
    <glyph glyph-name="Ubreve" unicode="&#x16c;" horiz-adv-x="720" 
d="M186 925h80q0 -45 27 -70t67 -25t67 25t27 70h80q0 -78 -50 -126.5t-124 -48.5t-124 48.5t-50 126.5zM649 280q0 -131 -81 -211.5t-208 -80.5q-128 0 -208.5 80t-80.5 212v430h145v-432q0 -70 39.5 -110t104.5 -40t104.5 40t39.5 110v432h145v-430z" />
    <glyph glyph-name="ubreve" unicode="&#x16d;" horiz-adv-x="588" 
d="M465 732q0 -78 -50 -126t-124 -48t-124 48t-50 126v18h80v-18q0 -45 27 -70t67 -25t67 25t27 70v18h80v-18zM60 210v290h137v-267q0 -119 85 -119q48 0 75.5 36t27.5 106v244h137v-500h-137v57q-44 -68 -137 -68q-89 0 -138.5 60t-49.5 161z" />
    <glyph glyph-name="Uring" unicode="&#x16e;" horiz-adv-x="720" 
d="M483 873q0 -49 -36 -84.5t-86 -35.5t-86 35.5t-36 84.5t36 84.5t86 35.5t86 -35.5t36 -84.5zM302 873q0 -24 17 -41t42 -17t42 17t17 41t-17 41t-42 17t-42 -17t-17 -41zM649 280q0 -131 -81 -211.5t-208 -80.5q-128 0 -208.5 80t-80.5 212v430h145v-432q0 -70 39.5 -110
t104.5 -40t104.5 40t39.5 110v432h145v-430z" />
    <glyph glyph-name="uring" unicode="&#x16f;" horiz-adv-x="588" 
d="M414 663q0 -49 -36 -84.5t-86 -35.5t-86 35.5t-36 84.5t36 84.5t86 35.5t86 -35.5t36 -84.5zM233 663q0 -24 17 -41t42 -17t42 17t17 41t-17 41t-42 17t-42 -17t-17 -41zM60 210v290h137v-267q0 -119 85 -119q48 0 75.5 36t27.5 106v244h137v-500h-137v57
q-44 -68 -137 -68q-89 0 -138.5 60t-49.5 161z" />
    <glyph glyph-name="Uhungarumlaut" unicode="&#x170;" horiz-adv-x="720" 
d="M411 770l66 157h144l-123 -157h-87zM229 770l66 157h144l-123 -157h-87zM649 280q0 -131 -81 -211.5t-208 -80.5q-128 0 -208.5 80t-80.5 212v430h145v-432q0 -70 39.5 -110t104.5 -40t104.5 40t39.5 110v432h145v-430z" />
    <glyph glyph-name="uhungarumlaut" unicode="&#x171;" horiz-adv-x="588" 
d="M330 560l66 190h144l-123 -190h-87zM148 560l66 190h144l-123 -190h-87zM60 210v290h137v-267q0 -119 85 -119q48 0 75.5 36t27.5 106v244h137v-500h-137v57q-44 -68 -137 -68q-89 0 -138.5 60t-49.5 161z" />
    <glyph glyph-name="Uogonek" unicode="&#x172;" horiz-adv-x="720" 
d="M515 -191q-37 -28 -102 -28q-50 0 -80 28t-30 72q0 58 49 107q-127 3 -204 83t-77 209v430h145v-432q0 -70 39.5 -110t104.5 -40t104.5 40t39.5 110v432h145v-430q0 -146 -101 -231q-11 -10 -28 -24t-25 -21l-20 -17.5t-17.5 -16.5t-12 -14t-9.5 -14t-5 -12.5t-2 -13.5
q0 -14 10.5 -22t25.5 -8q30 0 50 16v-93z" />
    <glyph glyph-name="uogonek" unicode="&#x173;" horiz-adv-x="588" 
d="M60 210v290h137v-267q0 -119 85 -119q48 0 75.5 36t27.5 106v244h137v-500q-86 -39 -86 -92q0 -30 36 -30q30 0 50 16v-85q-37 -28 -98 -28q-49 0 -78 28t-29 72q0 67 68 119v57q-44 -68 -137 -68q-89 0 -138.5 60t-49.5 161z" />
    <glyph glyph-name="Wcircumflex" unicode="&#x174;" horiz-adv-x="961" 
d="M307 763v109l174 73l174 -73v-109l-174 72zM637 0l-156 377l-156 -377h-136l-171 710h154l108 -472l201 484l201 -484l108 472h154l-171 -710h-136z" />
    <glyph glyph-name="wcircumflex" unicode="&#x175;" horiz-adv-x="800" 
d="M401 756l174 -98v-110l-174 98l-174 -98v110zM494 0l-94 285l-93 -285h-136l-166 500h146l95 -320l101 320h105l102 -320l94 320h147l-165 -500h-136z" />
    <glyph glyph-name="Ycircumflex" unicode="&#x176;" horiz-adv-x="690" 
d="M171 763v109l174 73l174 -73v-109l-174 72zM272 0v299l-262 411h168l166 -269l167 269h169l-263 -412v-298h-145z" />
    <glyph glyph-name="ycircumflex" unicode="&#x177;" horiz-adv-x="570" 
d="M288 756l174 -98v-110l-174 98l-174 -98v110zM256 -209h-149l105 237l-210 472h150l134 -324l133 324h151z" />
    <glyph glyph-name="Ydieresis" unicode="&#x178;" horiz-adv-x="690" 
d="M303 847q0 -31 -22 -53t-53 -22t-53.5 22t-22.5 53t22 53.5t54 22.5q31 0 53 -22.5t22 -53.5zM538 847q0 -31 -22 -53t-53 -22t-53.5 22t-22.5 53t22.5 53.5t53.5 22.5t53 -22.5t22 -53.5zM272 0v299l-262 411h168l166 -269l167 269h169l-263 -412v-298h-145z" />
    <glyph glyph-name="Zacute" unicode="&#x179;" horiz-adv-x="618" 
d="M266 770l72 157h154l-123 -157h-103zM38 0v99l339 473h-333v138h529v-99l-340 -473h347v-138h-542z" />
    <glyph glyph-name="zacute" unicode="&#x17a;" horiz-adv-x="498" 
d="M202 560l106 190h159l-163 -190h-102zM41 0v107l234 269h-231v124h408v-108l-233 -268h241v-124h-419z" />
    <glyph glyph-name="Zdotaccent" unicode="&#x17b;" horiz-adv-x="618" 
d="M385 847q0 -31 -22 -53t-53 -22t-53.5 22t-22.5 53t22 53.5t54 22.5q31 0 53 -22.5t22 -53.5zM38 0v99l339 473h-333v138h529v-99l-340 -473h347v-138h-542z" />
    <glyph glyph-name="zdotaccent" unicode="&#x17c;" horiz-adv-x="498" 
d="M323 652q0 -31 -22 -53t-53 -22t-53.5 22t-22.5 53q0 32 22 54t54 22q31 0 53 -22.5t22 -53.5zM41 0v107l234 269h-231v124h408v-108l-233 -268h241v-124h-419z" />
    <glyph glyph-name="Zcaron" unicode="&#x17d;" horiz-adv-x="618" 
d="M310 763l-174 72v110l174 -73l174 73v-110zM38 0v99l339 473h-333v138h529v-99l-340 -473h347v-138h-542z" />
    <glyph glyph-name="zcaron" unicode="&#x17e;" horiz-adv-x="498" 
d="M248 548l-174 98v110l174 -98l174 98v-110zM41 0v107l234 269h-231v124h408v-108l-233 -268h241v-124h-419z" />
    <glyph glyph-name="uni018F" unicode="&#x18f;" horiz-adv-x="810" 
d="M772 355q0 -154 -105 -260.5t-262 -106.5t-262 106.5t-105 260.5v50h584q-21 84 -80 130.5t-138 46.5q-56 0 -103 -21.5t-73 -60.5h-167q35 99 133 160.5t211 61.5q153 0 260 -106t107 -261zM407 128q73 0 130.5 40t78.5 110h-419q25 -72 80 -111t130 -39z" />
    <glyph glyph-name="Scommaaccent" unicode="&#x218;" horiz-adv-x="593" 
d="M34 220h145q7 -46 43 -72t85 -26q44 0 72.5 19.5t28.5 52.5q0 59 -95 86l-75 22q-87 25 -136 78t-50 132q-1 97 64.5 153.5t173.5 56.5q109 0 177 -65.5t72 -150.5h-144q-11 42 -40.5 62t-64.5 20q-39 0 -65 -17.5t-27 -48.5q-1 -32 21.5 -52t67.5 -33l83 -23
q88 -24 136 -79t48 -136q0 -92 -68.5 -151.5t-178.5 -59.5q-121 0 -194.5 69t-78.5 163zM233 -306l42 94q-19 8 -32 26.5t-13 42.5q0 31 22 53t53 22t53 -22t22 -53q0 -27 -15 -48l-72 -115h-60z" />
    <glyph glyph-name="scommaaccent" unicode="&#x219;" horiz-adv-x="501" 
d="M468 141q0 -69 -58.5 -110.5t-150.5 -41.5q-96 0 -159 48t-67 122h143q4 -32 28 -48.5t59 -16.5q65 0 65 40q0 19 -14.5 30.5t-48.5 19.5l-94 24q-63 16 -95 57t-32 98q0 66 54.5 107t146.5 41q84 0 140 -42t62 -116h-138q-9 51 -66 51q-27 0 -43 -10t-16 -28
q0 -33 57 -46l88 -24q139 -35 139 -155zM171 -306l42 94q-19 8 -32 26.5t-13 42.5q0 31 22 53t53 22t53 -22t22 -53q0 -27 -15 -48l-72 -115h-60z" />
    <glyph glyph-name="Tcommaaccent" unicode="&#x21a;" horiz-adv-x="568" 
d="M210 0v572h-189v138h526v-138h-191v-572h-146zM212 -306l42 94q-19 8 -32 26.5t-13 42.5q0 31 22 53t53 22t53 -22t22 -53q0 -27 -15 -48l-72 -115h-60z" />
    <glyph glyph-name="tcommaaccent" unicode="&#x21b;" horiz-adv-x="427" 
d="M395 5q-35 -11 -87 -11q-84 0 -137.5 46.5t-53.5 134.5v205h-101v120h101v139h137v-139h141v-120h-141v-178q0 -45 20 -65t65 -20q32 0 56 9v-121zM195 -306l42 94q-19 8 -32 26.5t-13 42.5q0 31 22 53t53 22t53 -22t22 -53q0 -27 -15 -48l-72 -115h-60z" />
    <glyph glyph-name="uni0232" unicode="&#x232;" horiz-adv-x="690" 
d="M174 791v96h342v-96h-342zM272 0v299l-262 411h168l166 -269l167 269h169l-263 -412v-298h-145z" />
    <glyph glyph-name="uni0233" unicode="&#x233;" horiz-adv-x="570" 
d="M117 613v97h342v-97h-342zM256 -209h-149l105 237l-210 472h150l134 -324l133 324h151z" />
    <glyph glyph-name="dotlessj" unicode="&#x237;" horiz-adv-x="277" 
d="M211 500v-538q0 -87 -53 -134t-133 -47q-36 0 -56 4v117q12 -2 26 -2q79 0 79 84v516h137z" />
    <glyph glyph-name="uni0259" unicode="&#x259;" horiz-adv-x="593" 
d="M40 337q24 77 94 125.5t166 48.5q112 0 185 -74t73 -188q0 -116 -71 -188t-190 -72q-116 0 -192 78.5t-71 214.5h390q-5 47 -37.5 78.5t-88.5 31.5q-81 0 -115 -55h-143zM301 100q46 0 77.5 25t41.5 67h-235q12 -47 44 -69.5t72 -22.5z" />
    <glyph glyph-name="uni02BB" unicode="&#x2bb;" horiz-adv-x="275" 
d="M49 530l114 180h79l-72 -152q25 -10 42.5 -35.5t17.5 -56.5q0 -41 -29.5 -70.5t-70.5 -29.5t-70.5 29.5t-29.5 70.5q0 32 19 64z" />
    <glyph glyph-name="uni02BC" unicode="&#x2bc;" horiz-adv-x="280" 
d="M236 558l-112 -180h-81l74 152q-25 10 -42.5 35.5t-17.5 56.5q0 41 29.5 70.5t70.5 29.5t70.5 -29.5t29.5 -70.5q0 -32 -21 -64z" />
    <glyph glyph-name="circumflex" unicode="&#x2c6;" 
d="M0 756l174 -98v-110l-174 98l-174 -98v110z" />
    <glyph glyph-name="caron" unicode="&#x2c7;" 
d="M0 548l-174 98v110l174 -98l174 98v-110z" />
    <glyph glyph-name="breve" unicode="&#x2d8;" 
d="M174 732q0 -78 -50 -126t-124 -48t-124 48t-50 126v18h80v-18q0 -45 27 -70t67 -25t67 25t27 70v18h80v-18z" />
    <glyph glyph-name="dotaccent" unicode="&#x2d9;" 
d="M75 652q0 -31 -22 -53t-53 -22t-53.5 22t-22.5 53q0 32 22 54t54 22q31 0 53 -22.5t22 -53.5z" />
    <glyph glyph-name="ring" unicode="&#x2da;" 
d="M123 663q0 -49 -36 -84.5t-86 -35.5t-86 35.5t-36 84.5t36 84.5t86 35.5t86 -35.5t36 -84.5zM-58 663q0 -24 17 -41t42 -17t42 17t17 41t-17 41t-42 17t-42 -17t-17 -41z" />
    <glyph glyph-name="ogonek" unicode="&#x2db;" 
d="M-103 -119q0 67 68 119h137q-86 -39 -86 -92q0 -30 36 -30q30 0 50 16v-85q-37 -28 -98 -28q-49 0 -78 28t-29 72z" />
    <glyph glyph-name="tilde" unicode="&#x2dc;" 
d="M-189 571l4 26q8 52 41.5 82t76.5 30q34 0 77 -23t55 -23q18 0 27.5 11.5t16.5 35.5h79l-4 -26q-8 -52 -41.5 -82t-76.5 -30q-34 0 -77 23t-55 23q-18 0 -27.5 -11.5t-16.5 -35.5h-79z" />
    <glyph glyph-name="hungarumlaut" unicode="&#x2dd;" 
d="M-14 560l66 190h144l-123 -190h-87zM-196 560l66 190h144l-123 -190h-87z" />
    <glyph glyph-name="uni0401" unicode="&#x401;" horiz-adv-x="568" 
d="M257 847q0 -31 -22 -53t-53 -22t-53.5 22t-22.5 53t22 53.5t54 22.5q31 0 53 -22.5t22 -53.5zM492 847q0 -31 -22 -53t-53 -22t-53.5 22t-22.5 53t22.5 53.5t53.5 22.5t53 -22.5t22 -53.5zM79 0v710h442v-138h-297v-146h237v-138h-237v-150h297v-138h-442z" />
    <glyph glyph-name="uni0402" unicode="&#x402;" horiz-adv-x="772" 
d="M341 375q26 32 72.5 52t101.5 20q104 0 165 -64.5t61 -167.5q0 -111 -67.5 -169t-162.5 -58q-29 0 -78 7v130q29 -4 66 -4q45 0 72 24.5t27 69.5q0 42 -29 68t-82 26q-64 0 -105 -40.5t-41 -108.5v-160h-145v572h-175v138h534v-138h-214v-197z" />
    <glyph glyph-name="uni0403" unicode="&#x403;" horiz-adv-x="521" 
d="M246 770l72 157h154l-123 -157h-103zM499 710v-138h-274v-572h-146v710h420z" />
    <glyph glyph-name="uni0404" unicode="&#x404;" horiz-adv-x="779" 
d="M495 291h-303q19 -73 77.5 -118t140.5 -45q61 0 113 31t74 83h157q-29 -113 -125.5 -183.5t-218.5 -70.5q-160 0 -266 105.5t-106 261.5t106 261.5t266 105.5q122 0 218.5 -70.5t125.5 -183.5h-157q-22 52 -74 83t-113 31q-82 0 -140.5 -45t-77.5 -118h303v-128z" />
    <glyph glyph-name="uni0405" unicode="&#x405;" horiz-adv-x="594" 
d="M35 220h144q7 -46 43 -72t85 -26q44 0 72.5 19.5t28.5 52.5q0 59 -94 86l-76 22q-87 25 -136 78t-50 132q0 97 65 153.5t173 56.5q109 0 177 -65.5t72 -150.5h-143q-12 42 -41.5 62t-64.5 20q-39 0 -65 -17.5t-27 -48.5q-1 -32 21.5 -52t67.5 -33l84 -23
q87 -25 135.5 -79.5t48.5 -135.5q0 -92 -68.5 -151.5t-179.5 -59.5q-121 0 -194.5 69t-77.5 163z" />
    <glyph glyph-name="uni0406" unicode="&#x406;" horiz-adv-x="303" 
d="M79 0v710h145v-710h-145z" />
    <glyph glyph-name="uni0407" unicode="&#x407;" horiz-adv-x="303" 
d="M130 862q0 -31 -22 -53t-53 -22t-53.5 22t-22.5 53q0 32 22.5 54t53.5 22t53 -22.5t22 -53.5zM320 862q0 -31 -22.5 -53t-53.5 -22t-53 22t-22 53t22 53.5t53 22.5q32 0 54 -22t22 -54zM79 0v710h145v-710h-145z" />
    <glyph glyph-name="uni0408" unicode="&#x408;" horiz-adv-x="547" 
d="M473 194q0 -103 -64.5 -154.5t-162.5 -51.5q-96 0 -161 55t-65 161h143q0 -39 23.5 -60t59.5 -21t59.5 20.5t23.5 60.5v506h144v-516z" />
    <glyph glyph-name="uni0409" unicode="&#x409;" horiz-adv-x="1044" 
d="M144 710h512v-283h116q111 0 177 -58.5t66 -150.5q0 -93 -69 -155.5t-174 -62.5h-262v572h-221v-340q0 -119 -52.5 -181.5t-148.5 -62.5q-35 0 -68 5v134q24 -3 48 -3q39 0 57.5 26.5t18.5 98.5v461zM770 136q103 0 103 79q0 74 -103 74h-114v-153h114z" />
    <glyph glyph-name="uni040A" unicode="&#x40a;" horiz-adv-x="1045" 
d="M79 0v710h146v-283h295v283h145v-283h108q111 0 177 -58.5t66 -150.5q0 -93 -68.5 -155.5t-174.5 -62.5h-253v289h-295v-289h-146zM771 289h-106v-153h106q103 0 103 79q0 74 -103 74z" />
    <glyph glyph-name="uni040B" unicode="&#x40b;" horiz-adv-x="781" 
d="M196 572h-175v138h534v-138h-214v-197q60 72 172 72q99 0 162.5 -64t63.5 -168v-215h-146v178q0 67 -31 99t-85 32q-55 0 -95.5 -41t-40.5 -116v-152h-145v572z" />
    <glyph glyph-name="uni040C" unicode="&#x40c;" horiz-adv-x="694" 
d="M306 770l72 157h154l-123 -157h-103zM79 0v710h144v-300l256 300h179l-292 -341l353 -369h-188l-308 323v-323h-144z" />
    <glyph glyph-name="uni040E" unicode="&#x40e;" horiz-adv-x="724" 
d="M203 925h90q0 -43 23 -68.5t61 -25.5t61 25.5t23 68.5h90q0 -78 -50 -126.5t-124 -48.5t-124 48.5t-50 126.5zM132 -5v134q36 -4 64 -4q33 0 57 10.5t44 39.5l-277 535h166l193 -374l187 374h165l-272 -537q-50 -99 -106 -142t-136 -43q-47 0 -85 7z" />
    <glyph glyph-name="uni040F" unicode="&#x40f;" horiz-adv-x="728" 
d="M430 0v-148h-131v148h-220v710h146v-572h278v572h145v-710h-218z" />
    <glyph glyph-name="uni0410" unicode="&#x410;" horiz-adv-x="743" 
d="M1 0l306 710h129l307 -710h-152l-69 162h-302l-69 -162h-150zM273 289h196l-98 231z" />
    <glyph glyph-name="uni0411" unicode="&#x411;" horiz-adv-x="637" 
d="M225 444h141q105 0 173.5 -62t68.5 -160q0 -97 -68.5 -159.5t-173.5 -62.5h-287v710h468v-138h-322v-128zM364 134q47 0 75 23t28 65t-28 65.5t-75 23.5h-139v-177h139z" />
    <glyph glyph-name="uni0412" unicode="&#x412;" horiz-adv-x="634" 
d="M79 0v710h260q89 0 150 -60.5t61 -145.5q0 -78 -56 -127q48 -23 76.5 -66.5t28.5 -101.5q0 -89 -63 -149t-157 -60h-300zM224 419h101q37 0 60.5 22.5t23.5 56.5q0 33 -23.5 56.5t-60.5 23.5h-101v-159zM224 133h145q40 0 64.5 23t24.5 58t-24.5 58.5t-64.5 23.5h-145
v-163z" />
    <glyph glyph-name="uni0413" unicode="&#x413;" horiz-adv-x="521" 
d="M499 710v-138h-274v-572h-146v710h420z" />
    <glyph glyph-name="uni0414" unicode="&#x414;" horiz-adv-x="775" 
d="M612 -148v148h-452v-148h-131v286h12q91 0 91 202v370h520v-572h91v-286h-131zM277 572v-245q0 -122 -38 -189h268v434h-230z" />
    <glyph glyph-name="uni0415" unicode="&#x415;" horiz-adv-x="568" 
d="M79 0v710h442v-138h-297v-146h237v-138h-237v-150h297v-138h-442z" />
    <glyph glyph-name="uni0416" unicode="&#x416;" horiz-adv-x="1020" 
d="M163 0h-180l316 360l-285 350h171l252 -311v311h145v-313l253 313h172l-285 -351l315 -359h-180l-275 311v-311h-145v308z" />
    <glyph glyph-name="uni0417" unicode="&#x417;" horiz-adv-x="590" 
d="M194 515h-144q20 106 89.5 156.5t159.5 50.5q100 0 163 -52t63 -137q0 -98 -71 -153q96 -55 96 -172q0 -101 -72.5 -160.5t-177.5 -59.5q-106 0 -184.5 59.5t-91.5 167.5h145q12 -44 47 -67.5t83 -23.5q53 0 81.5 26t28.5 69q0 38 -26.5 61.5t-72.5 23.5h-84v122h76
q40 0 61.5 22.5t21.5 59.5q0 36 -23.5 58.5t-65.5 22.5q-37 0 -64 -20.5t-38 -53.5z" />
    <glyph glyph-name="uni0418" unicode="&#x418;" horiz-adv-x="792" 
d="M79 0v710h146v-463l363 463h125v-710h-144v464l-365 -464h-125z" />
    <glyph glyph-name="uni0419" unicode="&#x419;" horiz-adv-x="792" 
d="M232 925h90q0 -43 23 -68.5t61 -25.5t61 25.5t23 68.5h90q0 -78 -50 -126.5t-124 -48.5t-124 48.5t-50 126.5zM79 0v710h146v-463l363 463h125v-710h-144v464l-365 -464h-125z" />
    <glyph glyph-name="uni041A" unicode="&#x41a;" horiz-adv-x="694" 
d="M79 0v710h144v-300l256 300h179l-292 -341l353 -369h-188l-308 323v-323h-144z" />
    <glyph glyph-name="uni041B" unicode="&#x41b;" horiz-adv-x="743" 
d="M144 249v461h520v-710h-145v572h-230v-341q0 -118 -52.5 -180t-148.5 -63q-45 2 -68 5v134q22 -3 48 -3q39 0 57.5 26.5t18.5 98.5z" />
    <glyph glyph-name="uni041C" unicode="&#x41c;" horiz-adv-x="884" 
d="M442 163l-218 299v-462h-145v710h132l231 -316l231 316h132v-710h-145v462z" />
    <glyph glyph-name="uni041D" unicode="&#x41d;" horiz-adv-x="756" 
d="M79 0v710h145v-283h308v283h145v-710h-145v289h-308v-289h-145z" />
    <glyph glyph-name="uni041E" unicode="&#x41e;" horiz-adv-x="808" 
d="M771 355q0 -152 -107.5 -259.5t-259.5 -107.5t-259.5 107.5t-107.5 259.5t107.5 259.5t259.5 107.5t259.5 -107.5t107.5 -259.5zM183 355q0 -94 64.5 -160.5t156.5 -66.5t156.5 66.5t64.5 160.5t-64.5 160.5t-156.5 66.5t-156.5 -66.5t-64.5 -160.5z" />
    <glyph glyph-name="uni041F" unicode="&#x41f;" horiz-adv-x="748" 
d="M524 0v572h-300v-572h-145v710h590v-710h-145z" />
    <glyph glyph-name="uni0420" unicode="&#x420;" horiz-adv-x="591" 
d="M315 710q107 0 178 -68.5t71 -170.5t-71 -170.5t-178 -68.5h-91v-232h-145v710h236zM313 368q49 0 79.5 29.5t30.5 73.5t-30.5 73.5t-79.5 29.5h-89v-206h89z" />
    <glyph glyph-name="uni0421" unicode="&#x421;" horiz-adv-x="780" 
d="M38 355q0 156 106 261.5t266 105.5q122 0 218.5 -70.5t125.5 -183.5h-157q-22 52 -74 83t-113 31q-100 0 -163 -65t-63 -162t63 -162t163 -65q61 0 113 31t74 83h157q-29 -113 -125.5 -183.5t-218.5 -70.5q-160 0 -266 105.5t-106 261.5z" />
    <glyph glyph-name="uni0422" unicode="&#x422;" horiz-adv-x="568" 
d="M210 0v572h-189v138h526v-138h-191v-572h-146z" />
    <glyph glyph-name="uni0423" unicode="&#x423;" horiz-adv-x="724" 
d="M132 -5v134q36 -4 64 -4q33 0 57 10.5t44 39.5l-277 535h166l193 -374l187 374h165l-272 -537q-50 -99 -106 -142t-136 -43q-47 0 -85 7z" />
    <glyph glyph-name="uni0424" unicode="&#x424;" horiz-adv-x="898" 
d="M522 -30h-146v88h-1q-157 0 -248 78.5t-91 222.5q0 142 91 220.5t248 78.5h1v82h146v-82h1q157 0 248 -78.5t91 -220.5q0 -144 -91 -222.5t-248 -78.5h-1v-88zM376 190v338h-1q-99 1 -146 -44.5t-47 -123.5q0 -79 47 -124.5t146 -45.5h1zM522 190h1q99 0 146 45.5
t47 124.5q0 78 -47 123.5t-146 44.5h-1v-338z" />
    <glyph glyph-name="uni0425" unicode="&#x425;" horiz-adv-x="697" 
d="M533 0l-184 246l-185 -246h-170l267 359l-252 351h168l172 -238l171 238h168l-252 -351l267 -359h-170z" />
    <glyph glyph-name="uni0426" unicode="&#x426;" horiz-adv-x="770" 
d="M646 138h92v-286h-131v148h-528v710h146v-572h276v572h145v-572z" />
    <glyph glyph-name="uni0427" unicode="&#x427;" horiz-adv-x="687" 
d="M608 0h-146v317q-63 -73 -177 -73q-104 0 -173 66t-69 170v230h146v-193q0 -68 33 -101t93 -33q64 0 105.5 41t41.5 121v165h146v-710z" />
    <glyph glyph-name="uni0428" unicode="&#x428;" horiz-adv-x="978" 
d="M79 0v710h146v-572h191v572h146v-572h192v572h145v-710h-820z" />
    <glyph glyph-name="uni0429" unicode="&#x429;" horiz-adv-x="1023" 
d="M860 -148v148h-781v710h146v-572h191v572h146v-572h192v572h145v-572h92v-286h-131z" />
    <glyph glyph-name="uni042A" unicode="&#x42a;" horiz-adv-x="733" 
d="M343 454h118q106 0 174 -63.5t68 -163.5q0 -99 -68 -163t-174 -64h-264v572h-176v138h322v-256zM343 134h115q48 0 76 24t28 69t-28 69t-76 24h-115v-186z" />
    <glyph glyph-name="uni042B" unicode="&#x42b;" horiz-adv-x="899" 
d="M225 454h118q106 0 174 -63.5t68 -163.5q0 -99 -68 -163t-174 -64h-264v710h146v-256zM675 0v710h145v-710h-145zM225 134h115q48 0 76 24t28 69t-28 69t-76 24h-115v-186z" />
    <glyph glyph-name="uni042C" unicode="&#x42c;" horiz-adv-x="615" 
d="M225 454h118q106 0 174 -63.5t68 -163.5q0 -99 -68 -163t-174 -64h-264v710h146v-256zM225 134h115q48 0 76 24t28 69t-28 69t-76 24h-115v-186z" />
    <glyph glyph-name="uni042D" unicode="&#x42d;" horiz-adv-x="779" 
d="M25 242h157q22 -52 74 -83t113 -31q82 0 140.5 45t77.5 118h-303v128h303q-19 73 -77.5 118t-140.5 45q-61 0 -113 -31t-74 -83h-157q29 113 125.5 183.5t218.5 70.5q160 0 266 -105.5t106 -261.5t-106 -261.5t-266 -105.5q-122 0 -218.5 70.5t-125.5 183.5z" />
    <glyph glyph-name="uni042E" unicode="&#x42e;" horiz-adv-x="1077" 
d="M79 0v710h146v-286h108q22 132 119 215t231 83q152 0 254 -105t102 -262t-102 -262t-254 -105q-135 0 -232 84t-119 217h-107v-289h-146zM683 128q91 0 150 64t59 163t-59 163t-150 64q-92 0 -151 -64t-59 -163t59 -163t151 -64z" />
    <glyph glyph-name="uni042F" unicode="&#x42f;" horiz-adv-x="648" 
d="M-21 0l241 274q-62 27 -99 81t-37 123q0 102 66 167t176 65h243v-710h-146v246h-51l-218 -246h-175zM327 578q-46 0 -74 -27.5t-28 -72.5t28 -72.5t74 -27.5h96v200h-96z" />
    <glyph glyph-name="uni0430" unicode="&#x430;" horiz-adv-x="617" 
d="M34 250q0 107 68 184t167 77q48 0 86.5 -20t57.5 -47v56h137v-500h-137v56q-19 -27 -57.5 -47t-86.5 -20q-99 0 -167 77t-68 184zM424 250q0 59 -35 97.5t-91 38.5t-91 -38.5t-35 -97.5t35 -97.5t91 -38.5t91 38.5t35 97.5z" />
    <glyph glyph-name="uni0431" unicode="&#x431;" horiz-adv-x="606" 
d="M571 251q0 -110 -75.5 -186t-186.5 -76q-126 0 -193 82t-67 225v29q0 188 75 279t226 118l175 32v-130l-145 -26q-87 -16 -133.5 -54t-55.5 -110q55 54 144 54q108 0 172 -68t64 -169zM185 247q0 -61 34.5 -95.5t88.5 -34.5q55 0 90 34.5t35 95.5q0 51 -35 86.5t-89 35.5
q-55 0 -89.5 -36t-34.5 -86z" />
    <glyph glyph-name="uni0432" unicode="&#x432;" horiz-adv-x="556" 
d="M66 0v500h239q91 0 138.5 -44t47.5 -106q0 -46 -32 -84q64 -41 64 -114q0 -63 -45 -107.5t-138 -44.5h-274zM203 303h102q20 0 35 11.5t15 34.5t-15 34.5t-35 11.5h-102v-92zM203 112h130q24 0 39 13t15 37q0 23 -15.5 36t-38.5 13h-130v-99z" />
    <glyph glyph-name="uni0433" unicode="&#x433;" horiz-adv-x="428" 
d="M66 0v500h345v-120h-208v-380h-137z" />
    <glyph glyph-name="uni0434" unicode="&#x434;" horiz-adv-x="653" 
d="M29 120h13q70 0 70 129v251h430v-380h81v-243h-123v123h-348v-123h-123v243zM249 380v-139q0 -77 -25 -121h181v260h-156z" />
    <glyph glyph-name="uni0435" unicode="&#x435;" horiz-adv-x="592" 
d="M552 163q-23 -77 -92.5 -125.5t-163.5 -48.5q-115 0 -188.5 74t-73.5 188q0 112 74.5 186t188.5 74q115 0 190.5 -78.5t70.5 -214.5h-390q5 -47 39.5 -78.5t95.5 -31.5q36 0 65 15t41 40h143zM293 400q-46 0 -78 -25t-42 -67h235q-12 47 -44 69.5t-71 22.5z" />
    <glyph glyph-name="uni0436" unicode="&#x436;" horiz-adv-x="824" 
d="M159 0h-170l232 254l-199 246h159l163 -204v204h137v-201l161 201h159l-199 -246l233 -254h-170l-184 200v-200h-137v202z" />
    <glyph glyph-name="uni0437" unicode="&#x437;" horiz-adv-x="504" 
d="M469 147q0 -62 -56 -110t-158 -48q-54 0 -101 16.5t-83 55.5t-47 96h141q17 -56 89 -56q37 1 57 16t20 41q0 24 -17.5 38t-48.5 14h-61v94h56q27 0 42.5 12.5t15.5 36.5q0 23 -17 37t-49 14q-63 0 -79 -51h-137q11 56 46.5 92.5t79 51t94.5 14.5q94 0 143.5 -45.5
t49.5 -102.5q0 -65 -47 -99q67 -39 67 -117z" />
    <glyph glyph-name="uni0438" unicode="&#x438;" horiz-adv-x="616" 
d="M66 0v500h137v-295l224 295h122v-500h-136v295l-224 -295h-123z" />
    <glyph glyph-name="uni0439" unicode="&#x439;" horiz-adv-x="616" 
d="M490 732q0 -78 -50 -126t-124 -48t-124 48t-50 126v18h90v-18q0 -45 24 -70t60 -25t60 25t24 70v18h90v-18zM66 0v500h137v-295l224 295h122v-500h-136v295l-224 -295h-123z" />
    <glyph glyph-name="uni043A" unicode="&#x43a;" horiz-adv-x="551" 
d="M66 0v500h137v-203l169 203h163l-207 -246l241 -254h-176l-190 202v-202h-137z" />
    <glyph glyph-name="uni043B" unicode="&#x43b;" horiz-adv-x="609" 
d="M252 180q0 -94 -49 -142t-119 -48q-44 0 -65 5v116q22 -2 35 -2q31 0 46 19t15 69v303h428v-500h-137v380h-154v-200z" />
    <glyph glyph-name="uni043C" unicode="&#x43c;" horiz-adv-x="693" 
d="M347 108l-144 181v-289h-137v500h116l165 -207l164 207h116v-500h-137v289z" />
    <glyph glyph-name="uni043D" unicode="&#x43d;" horiz-adv-x="612" 
d="M66 0v500h137v-189h206v189h137v-500h-137v192h-206v-192h-137z" />
    <glyph glyph-name="uni043E" unicode="&#x43e;" horiz-adv-x="592" 
d="M559 250q0 -109 -77 -185t-186 -76t-186 76t-77 185t77 185t186 76t186 -76t77 -185zM171 250q0 -58 35.5 -95.5t89.5 -37.5t89 37.5t35 95.5t-35 95.5t-89 37.5t-89.5 -37.5t-35.5 -95.5z" />
    <glyph glyph-name="uni043F" unicode="&#x43f;" horiz-adv-x="602" 
d="M66 0v500h470v-500h-137v380h-196v-380h-137z" />
    <glyph glyph-name="uni0440" unicode="&#x440;" horiz-adv-x="617" 
d="M66 -209v709h137v-56q19 27 58 47t87 20q99 0 167 -77t68 -184t-68 -184t-167 -77q-48 0 -87 20t-58 47v-265h-137zM444 250q0 59 -35 97.5t-91 38.5t-91 -38.5t-35 -97.5t35 -97.5t91 -38.5t91 38.5t35 97.5z" />
    <glyph glyph-name="uni0441" unicode="&#x441;" horiz-adv-x="580" 
d="M553 191q-21 -90 -88.5 -146t-167.5 -56q-113 0 -188 75.5t-75 185.5t75 185.5t188 75.5q100 0 167.5 -56t88.5 -146h-142q-33 78 -114 78q-55 0 -90 -37.5t-35 -99.5t35 -99.5t90 -37.5q81 0 114 78h142z" />
    <glyph glyph-name="uni0442" unicode="&#x442;" horiz-adv-x="459" 
d="M156 0v380h-138v120h423v-120h-148v-380h-137z" />
    <glyph glyph-name="uni0443" unicode="&#x443;" horiz-adv-x="570" 
d="M570 500l-249 -563q-36 -81 -84 -118t-120 -37q-42 0 -67 4v117q30 -2 49 -2q56 0 88 69l25 58l-210 472h150l138 -313l129 313h151z" />
    <glyph glyph-name="uni0444" unicode="&#x444;" horiz-adv-x="764" 
d="M451 -209h-137v198h-11q-125 0 -197 76t-72 185t72 185t197 76h11v239h137v-239h10q125 0 197 -76t72 -185t-72 -185t-197 -76h-10v-198zM461 385h-10v-270h10q60 0 95.5 39t35.5 96t-35.5 96t-95.5 39zM314 115v270h-11q-60 0 -95.5 -39t-35.5 -96t35.5 -96t95.5 -39h11
z" />
    <glyph glyph-name="uni0445" unicode="&#x445;" horiz-adv-x="567" 
d="M3 0l194 245l-189 255h162l113 -153l113 153h163l-189 -255l194 -245h-164l-116 148l-116 -148h-165z" />
    <glyph glyph-name="uni0446" unicode="&#x446;" horiz-adv-x="646" 
d="M619 120v-243h-123v123h-430v500h137v-380h196v380h137v-380h83z" />
    <glyph glyph-name="uni0447" unicode="&#x447;" horiz-adv-x="563" 
d="M497 0h-137v202q-17 -22 -54.5 -37t-84.5 -15q-82 0 -134 50t-52 147v153h137v-137q0 -92 88 -92q41 0 70.5 27t29.5 83v119h137v-500z" />
    <glyph glyph-name="uni0448" unicode="&#x448;" horiz-adv-x="833" 
d="M66 0v500h137v-380h145v380h137v-380h145v380h137v-500h-701z" />
    <glyph glyph-name="uni0449" unicode="&#x449;" horiz-adv-x="878" 
d="M849 120v-243h-122v123h-661v500h137v-380h145v380h137v-380h145v380h137v-380h82z" />
    <glyph glyph-name="uni044A" unicode="&#x44a;" horiz-adv-x="584" 
d="M144 0v381h-125v119h262v-149h94q91 0 137.5 -54t46.5 -119q0 -67 -46.5 -122.5t-137.5 -55.5h-231zM281 234v-117h78q70 0 70 60q0 57 -70 57h-78z" />
    <glyph glyph-name="uni044B" unicode="&#x44b;" horiz-adv-x="752" 
d="M548 0v500h137v-500h-137zM66 0v500h137v-149h94q63 0 106.5 -28.5t60.5 -66t17 -78.5q0 -30 -10.5 -60t-31 -57t-57.5 -44t-85 -17h-231zM203 234v-117h78q71 0 71 60q0 57 -71 57h-78z" />
    <glyph glyph-name="uni044C" unicode="&#x44c;" horiz-adv-x="506" 
d="M66 0v500h137v-149h94q63 0 106.5 -28.5t60.5 -66t17 -78.5q0 -30 -10.5 -60t-31 -57t-57.5 -44t-85 -17h-231zM203 234v-117h78q71 0 71 60q0 57 -71 57h-78z" />
    <glyph glyph-name="uni044D" unicode="&#x44d;" horiz-adv-x="581" 
d="M28 191h142q33 -78 114 -78q45 0 77.5 26t42.5 71h-167v91h164q-13 40 -44 63t-73 23q-81 0 -114 -78h-142q21 90 88.5 146t167.5 56q113 0 188 -75.5t75 -185.5t-75 -185.5t-188 -75.5q-100 0 -167.5 56t-88.5 146z" />
    <glyph glyph-name="uni044E" unicode="&#x44e;" horiz-adv-x="821" 
d="M203 310h80q19 88 87.5 144.5t160.5 56.5q109 0 182 -76t73 -185t-73 -185t-182 -76q-92 0 -160 57t-88 145h-80v-191h-137v500h137v-190zM415 251q0 -58 32 -96t84 -38t84.5 37.5t32.5 95.5t-32.5 95.5t-84.5 37.5t-84 -37t-32 -95z" />
    <glyph glyph-name="uni044F" unicode="&#x44f;" horiz-adv-x="541" 
d="M-11 0l172 190q-91 45 -91 142q0 74 49 121t135 47h221v-500h-137v158h-47l-147 -158h-155zM262 268h76v121h-77q-62 0 -62 -63q0 -27 18 -42.5t45 -15.5z" />
    <glyph glyph-name="uni0451" unicode="&#x451;" horiz-adv-x="592" 
d="M255 652q0 -31 -22 -53t-53 -22t-53.5 22t-22.5 53q0 32 22 54t54 22q31 0 53 -22.5t22 -53.5zM490 652q0 -31 -22 -53t-53 -22t-53.5 22t-22.5 53q0 32 22.5 54t53.5 22t53 -22.5t22 -53.5zM552 163q-23 -77 -92.5 -125.5t-163.5 -48.5q-115 0 -188.5 74t-73.5 188
q0 112 74.5 186t188.5 74q115 0 190.5 -78.5t70.5 -214.5h-390q5 -47 39.5 -78.5t95.5 -31.5q36 0 65 15t41 40h143zM293 400q-46 0 -78 -25t-42 -67h235q-12 47 -44 69.5t-71 22.5z" />
    <glyph glyph-name="uni0452" unicode="&#x452;" horiz-adv-x="599" 
d="M539 -38q0 -87 -53 -134t-132 -47q-37 0 -57 4v117q14 -2 26 -2q40 0 59.5 19.5t19.5 64.5v286q0 55 -23 85.5t-65 30.5q-50 0 -80.5 -36.5t-30.5 -105.5v-244h-137v577h-88v91h88v82h137v-82h166v-91h-166v-134q20 31 57.5 49.5t85.5 18.5q90 0 141.5 -59.5t51.5 -158.5
v-331z" />
    <glyph glyph-name="uni0453" unicode="&#x453;" horiz-adv-x="428" 
d="M192 560l106 190h159l-163 -190h-102zM66 0v500h345v-120h-208v-380h-137z" />
    <glyph glyph-name="uni0454" unicode="&#x454;" horiz-adv-x="581" 
d="M553 191q-21 -90 -88.5 -146t-167.5 -56q-113 0 -188 75.5t-75 185.5t75 185.5t188 75.5q100 0 167.5 -56t88.5 -146h-142q-33 78 -114 78q-42 0 -73 -23t-44 -63h164v-91h-167q10 -45 42.5 -71t77.5 -26q81 0 114 78h142z" />
    <glyph glyph-name="uni0455" unicode="&#x455;" horiz-adv-x="501" 
d="M468 141q0 -69 -58.5 -110.5t-150.5 -41.5q-96 0 -159 48t-67 122h143q4 -32 28 -48.5t59 -16.5q65 0 65 40q0 19 -14.5 30.5t-48.5 19.5l-94 24q-63 16 -95 57t-32 98q0 66 54.5 107t146.5 41q84 0 140 -42t62 -116h-138q-9 51 -66 51q-27 0 -43 -10t-16 -28
q0 -33 57 -46l88 -24q139 -35 139 -155z" />
    <glyph glyph-name="uni0456" unicode="&#x456;" horiz-adv-x="269" 
d="M222 669q0 -36 -25.5 -61.5t-62.5 -25.5q-35 0 -61 25.5t-26 61.5t26 61.5t61 25.5q37 0 62.5 -25.5t25.5 -61.5zM66 0v500h137v-500h-137z" />
    <glyph glyph-name="uni0457" unicode="&#x457;" horiz-adv-x="269" 
d="M115 652q0 -31 -22 -53t-53 -22t-53.5 22t-22.5 53q0 32 22 54t54 22q31 0 53 -22.5t22 -53.5zM305 652q0 -31 -22.5 -53t-53.5 -22t-53 22t-22 53t22 53.5t53 22.5t53.5 -22t22.5 -54zM66 0v500h137v-500h-137z" />
    <glyph glyph-name="uni0458" unicode="&#x458;" horiz-adv-x="277" 
d="M230 669q0 -36 -25.5 -61.5t-62.5 -25.5q-35 0 -61 25.5t-26 61.5t26 61.5t61 25.5q37 0 62.5 -25.5t25.5 -61.5zM211 500v-538q0 -87 -53 -134t-133 -47q-36 0 -56 4v117q12 -2 26 -2q79 0 79 84v516h137z" />
    <glyph glyph-name="uni0459" unicode="&#x459;" horiz-adv-x="832" 
d="M115 500h425v-189h103q81 0 122.5 -46.5t41.5 -105.5q0 -60 -41.5 -109.5t-122.5 -49.5h-240v380h-151v-200q0 -94 -49 -142t-119 -48q-44 0 -65 5v116q22 -2 35 -2q31 0 46 19t15 69v303zM540 197v-82h89q49 0 49 40q0 20 -13.5 31t-35.5 11h-89z" />
    <glyph glyph-name="uni045A" unicode="&#x45a;" horiz-adv-x="828" 
d="M638 311q82 0 123.5 -46.5t41.5 -105.5q0 -60 -42 -109.5t-123 -49.5h-239v192h-196v-192h-137v500h137v-189h196v189h137v-189h102zM625 115q49 0 49 40q0 20 -13.5 31t-35.5 11h-89v-82h89z" />
    <glyph glyph-name="uni045B" unicode="&#x45b;" horiz-adv-x="599" 
d="M66 576h-88v90h88v81h137v-81h166v-90h-166v-133q20 31 57.5 49.5t85.5 18.5q90 0 141.5 -59.5t51.5 -158.5v-293h-137v270q0 55 -23 85.5t-65 30.5q-50 0 -80.5 -36.5t-30.5 -105.5v-244h-137v576z" />
    <glyph glyph-name="uni045C" unicode="&#x45c;" horiz-adv-x="551" 
d="M251 560l106 190h159l-163 -190h-102zM66 0v500h137v-203l169 203h163l-207 -246l241 -254h-176l-190 202v-202h-137z" />
    <glyph glyph-name="uni045E" unicode="&#x45e;" horiz-adv-x="570" 
d="M460 732q0 -78 -50 -126t-124 -48t-124 48t-50 126v18h90v-18q0 -45 24 -70t60 -25t60 25t24 70v18h90v-18zM570 500l-249 -563q-36 -81 -84 -118t-120 -37q-42 0 -67 4v117q30 -2 49 -2q56 0 88 69l25 58l-210 472h150l138 -313l129 313h151z" />
    <glyph glyph-name="uni045F" unicode="&#x45f;" horiz-adv-x="603" 
d="M537 0h-174v-123h-122v123h-175v500h137v-379h197v379h137v-500z" />
    <glyph glyph-name="uni0462" unicode="&#x462;" horiz-adv-x="751" 
d="M355 438h118q106 0 174 -61t68 -158q0 -95 -68 -157t-174 -62h-264v516h-180v127h180v67h146v-67h218v-127h-218v-78zM355 134h115q48 0 76 21.5t28 63.5q0 41 -28 63t-76 22h-115v-170z" />
    <glyph glyph-name="uni0463" unicode="&#x463;" horiz-adv-x="562" 
d="M17 410v90h98v250h137v-250h170v-90h-170v-59h94q63 0 106.5 -28.5t60.5 -66t17 -78.5q0 -30 -10.5 -60t-31 -57t-57.5 -44t-85 -17h-231v410h-98zM331 234h-79v-117h79q70 0 70 60q0 57 -70 57z" />
    <glyph glyph-name="uni0472" unicode="&#x472;" horiz-adv-x="808" 
d="M771 355q0 -152 -107.5 -259.5t-259.5 -107.5t-259.5 107.5t-107.5 259.5t107.5 259.5t259.5 107.5t259.5 -107.5t107.5 -259.5zM305 439q46 0 105.5 -19.5t90.5 -19.5q61 0 112 29q-22 67 -79.5 110t-129.5 43q-78 0 -137.5 -49t-77.5 -124q52 30 116 30zM305 312
q-59 0 -111 -27q21 -69 79 -113t131 -44q79 0 139 50.5t77 126.5q-55 -31 -119 -31q-37 0 -100.5 19t-95.5 19z" />
    <glyph glyph-name="uni0473" unicode="&#x473;" horiz-adv-x="592" 
d="M559 250q0 -109 -77 -185t-186 -76t-186 76t-77 185t77 185t186 76t186 -76t77 -185zM296 383q-42 0 -74.5 -24.5t-44.5 -64.5h237q-12 40 -44 64.5t-74 24.5zM296 117q43 0 75 24.5t43 65.5h-237q12 -41 44 -65.5t75 -24.5z" />
    <glyph glyph-name="uni0474" unicode="&#x474;" horiz-adv-x="789" 
d="M161 710l200 -493l135 334q38 96 83.5 133.5t116.5 37.5q38 0 74 -9v-136q-56 8 -84 -4.5t-53 -73.5l-208 -499h-129l-293 710h158z" />
    <glyph glyph-name="uni0475" unicode="&#x475;" horiz-adv-x="607" 
d="M495 330l-148 -330h-125l-221 500h151l132 -319l73 175q36 87 76 121t102 34q31 0 59 -8v-118q-41 5 -62 -6t-37 -49z" />
    <glyph glyph-name="uni0490" unicode="&#x490;" horiz-adv-x="521" 
d="M79 0v710h289v148h131v-286h-274v-572h-146z" />
    <glyph glyph-name="uni0491" unicode="&#x491;" horiz-adv-x="428" 
d="M66 0v500h222v123h123v-243h-208v-380h-137z" />
    <glyph glyph-name="uni0492" unicode="&#x492;" horiz-adv-x="552" 
d="M20 292v128h89v290h420v-138h-274v-152h162v-128h-162v-292h-146v292h-89z" />
    <glyph glyph-name="uni0493" unicode="&#x493;" horiz-adv-x="461" 
d="M99 0v197h-79v90h79v213h345v-120h-208v-93h106v-90h-106v-197h-137z" />
    <glyph glyph-name="uni0496" unicode="&#x496;" horiz-adv-x="1047" 
d="M163 0h-180l316 360l-285 350h171l252 -311v311h145v-313l253 313h172l-285 -351l194 -221h125v-286h-131v148h-53l-275 311v-311h-145v308z" />
    <glyph glyph-name="uni0497" unicode="&#x497;" horiz-adv-x="845" 
d="M159 0h-170l232 254l-199 246h159l163 -204v204h137v-201l161 201h159l-199 -246l123 -134h112v-243h-122v123h-50l-184 200v-200h-137v202z" />
    <glyph glyph-name="uni049A" unicode="&#x49a;" horiz-adv-x="722" 
d="M79 0v710h144v-300l256 300h179l-292 -341l221 -231h134v-286h-131v148h-59l-308 323v-323h-144z" />
    <glyph glyph-name="uni049B" unicode="&#x49b;" horiz-adv-x="575" 
d="M66 0v500h137v-203l169 203h163l-207 -246l127 -134h117v-243h-122v123h-57l-190 202v-202h-137z" />
    <glyph glyph-name="uni04A2" unicode="&#x4a2;" horiz-adv-x="801" 
d="M79 0v710h145v-283h308v283h145v-572h93v-286h-131v148h-107v289h-308v-289h-145z" />
    <glyph glyph-name="uni04A3" unicode="&#x4a3;" horiz-adv-x="657" 
d="M66 0v500h137v-189h206v189h137v-380h83v-243h-122v123h-98v192h-206v-192h-137z" />
    <glyph glyph-name="uni04AE" unicode="&#x4ae;" horiz-adv-x="690" 
d="M272 0v299l-262 411h168l166 -269l167 269h169l-263 -412v-298h-145z" />
    <glyph glyph-name="uni04AF" unicode="&#x4af;" horiz-adv-x="573" 
d="M218 -209v209l-217 500h152l134 -332l133 332h153l-218 -500v-209h-137z" />
    <glyph glyph-name="uni04B0" unicode="&#x4b0;" horiz-adv-x="682" 
d="M268 0v170h-147v129h147l-262 411h168l166 -269l167 269h169l-262 -411h145v-129h-146v-170h-145z" />
    <glyph glyph-name="uni04B1" unicode="&#x4b1;" horiz-adv-x="573" 
d="M90 -90v90h128l-217 500h152l134 -332l133 332h153l-218 -500h128v-90h-128v-119h-137v119h-128z" />
    <glyph glyph-name="uni04B2" unicode="&#x4b2;" horiz-adv-x="740" 
d="M602 -148v148h-69l-184 246l-185 -246h-170l267 359l-252 351h168l172 -238l171 238h168l-252 -351l164 -221h133v-286h-131z" />
    <glyph glyph-name="uni04B3" unicode="&#x4b3;" horiz-adv-x="589" 
d="M3 0l194 245l-189 255h162l113 -153l113 153h163l-189 -255l99 -125h104v-243h-122v123h-51l-116 148l-116 -148h-165z" />
    <glyph glyph-name="uni04B6" unicode="&#x4b6;" horiz-adv-x="732" 
d="M570 -148v148h-108v317q-63 -73 -177 -73q-104 0 -173 66t-69 170v230h146v-193q0 -68 33 -101t93 -33q64 0 105.5 41t41.5 121v165h146v-572h93v-286h-131z" />
    <glyph glyph-name="uni04B7" unicode="&#x4b7;" horiz-adv-x="608" 
d="M458 -123v123h-98v202q-17 -22 -54.5 -37t-84.5 -15q-82 0 -134 50t-52 147v153h137v-137q0 -92 88 -92q41 0 70.5 27t29.5 83v119h137v-380h83v-243h-122z" />
    <glyph glyph-name="uni04BA" unicode="&#x4ba;" horiz-adv-x="687" 
d="M79 710h146v-317q63 73 177 73q104 0 173 -66t69 -170v-230h-146v193q0 68 -33 101t-93 33q-64 0 -105.5 -41t-41.5 -121v-165h-146v710z" />
    <glyph glyph-name="uni04BB" unicode="&#x4bb;" horiz-adv-x="599" 
d="M66 0v750h137v-307q20 31 57.5 49.5t85.5 18.5q90 0 141.5 -59.5t51.5 -158.5v-293h-137v270q0 55 -23 85.5t-65 30.5q-50 0 -80.5 -36.5t-30.5 -105.5v-244h-137z" />
    <glyph glyph-name="uni04C0" unicode="&#x4c0;" horiz-adv-x="303" 
d="M79 0v710h145v-710h-145z" />
    <glyph glyph-name="uni04CF" unicode="&#x4cf;" horiz-adv-x="269" 
d="M66 0v750h137v-750h-137z" />
    <glyph glyph-name="uni04D8" unicode="&#x4d8;" horiz-adv-x="809" 
d="M771 355q0 -154 -105 -260.5t-262 -106.5t-262 106.5t-105 260.5v50h584q-21 84 -80 130.5t-138 46.5q-56 0 -102.5 -21.5t-73.5 -60.5h-167q35 99 133 160.5t211 61.5q153 0 260 -106t107 -261zM406 128q74 0 131 39.5t78 110.5h-419q25 -72 80 -111t130 -39z" />
    <glyph glyph-name="uni04D9" unicode="&#x4d9;" horiz-adv-x="592" 
d="M40 337q24 77 93.5 125.5t162.5 48.5q115 0 188.5 -74t73.5 -188q0 -112 -74 -186t-188 -74q-115 0 -191 78.5t-71 214.5h390q-5 47 -39.5 78.5t-95.5 31.5q-36 0 -65 -15t-41 -40h-143zM299 100q47 0 79 25t42 67h-235q12 -47 44 -69.5t70 -22.5z" />
    <glyph glyph-name="uni04E2" unicode="&#x4e2;" horiz-adv-x="792" 
d="M235 791v96h342v-96h-342zM79 0v710h146v-463l363 463h125v-710h-144v464l-365 -464h-125z" />
    <glyph glyph-name="uni04E3" unicode="&#x4e3;" horiz-adv-x="616" 
d="M145 613v97h342v-97h-342zM66 0v500h137v-295l224 295h122v-500h-136v295l-224 -295h-123z" />
    <glyph glyph-name="uni04E8" unicode="&#x4e8;" horiz-adv-x="808" 
d="M771 355q0 -152 -107.5 -259.5t-259.5 -107.5t-259.5 107.5t-107.5 259.5t107.5 259.5t259.5 107.5t259.5 -107.5t107.5 -259.5zM404 582q-75 0 -133.5 -46t-78.5 -118h424q-20 72 -78.5 118t-133.5 46zM404 128q75 0 133 45.5t79 116.5h-424q21 -71 79 -116.5t133 -45.5
z" />
    <glyph glyph-name="uni04E9" unicode="&#x4e9;" horiz-adv-x="592" 
d="M559 250q0 -109 -77 -185t-186 -76t-186 76t-77 185t77 185t186 76t186 -76t77 -185zM296 383q-42 0 -74.5 -24.5t-44.5 -64.5h237q-12 40 -44 64.5t-74 24.5zM296 117q43 0 75 24.5t43 65.5h-237q12 -41 44 -65.5t75 -24.5z" />
    <glyph glyph-name="uni04EE" unicode="&#x4ee;" horiz-adv-x="724" 
d="M206 791v96h342v-96h-342zM132 -5v134q36 -4 64 -4q33 0 57 10.5t44 39.5l-277 535h166l193 -374l187 374h165l-272 -537q-50 -99 -106 -142t-136 -43q-47 0 -85 7z" />
    <glyph glyph-name="uni04EF" unicode="&#x4ef;" horiz-adv-x="570" 
d="M115 613v97h342v-97h-342zM570 500l-249 -563q-36 -81 -84 -118t-120 -37q-42 0 -67 4v117q30 -2 49 -2q56 0 88 69l25 58l-210 472h150l138 -313l129 313h151z" />
    <glyph glyph-name="Wgrave" unicode="&#x1e80;" horiz-adv-x="961" 
d="M526 770h-103l-123 157h154zM637 0l-156 377l-156 -377h-136l-171 710h154l108 -472l201 484l201 -484l108 472h154l-171 -710h-136z" />
    <glyph glyph-name="wgrave" unicode="&#x1e81;" horiz-adv-x="800" 
d="M350 560l-163 190h159l106 -190h-102zM494 0l-94 285l-93 -285h-136l-166 500h146l95 -320l101 320h105l102 -320l94 320h147l-165 -500h-136z" />
    <glyph glyph-name="Wacute" unicode="&#x1e82;" horiz-adv-x="961" 
d="M437 770l72 157h154l-123 -157h-103zM637 0l-156 377l-156 -377h-136l-171 710h154l108 -472l201 484l201 -484l108 472h154l-171 -710h-136z" />
    <glyph glyph-name="wacute" unicode="&#x1e83;" horiz-adv-x="800" 
d="M355 560l106 190h159l-163 -190h-102zM494 0l-94 285l-93 -285h-136l-166 500h146l95 -320l101 320h105l102 -320l94 320h147l-165 -500h-136z" />
    <glyph glyph-name="Wdieresis" unicode="&#x1e84;" horiz-adv-x="961" 
d="M439 847q0 -31 -22 -53t-53 -22t-53.5 22t-22.5 53t22 53.5t54 22.5q31 0 53 -22.5t22 -53.5zM674 847q0 -31 -22 -53t-53 -22t-53.5 22t-22.5 53t22.5 53.5t53.5 22.5t53 -22.5t22 -53.5zM637 0l-156 377l-156 -377h-136l-171 710h154l108 -472l201 484l201 -484
l108 472h154l-171 -710h-136z" />
    <glyph glyph-name="wdieresis" unicode="&#x1e85;" horiz-adv-x="800" 
d="M359 652q0 -31 -22 -53t-53 -22t-53.5 22t-22.5 53q0 32 22 54t54 22q31 0 53 -22.5t22 -53.5zM594 652q0 -31 -22 -53t-53 -22t-53.5 22t-22.5 53q0 32 22.5 54t53.5 22t53 -22.5t22 -53.5zM494 0l-94 285l-93 -285h-136l-166 500h146l95 -320l101 320h105l102 -320
l94 320h147l-165 -500h-136z" />
    <glyph glyph-name="uni1E9E" unicode="&#x1e9e;" horiz-adv-x="648" 
d="M79 0v710h484v-98l-99 -155q144 -50 144 -213q0 -114 -71.5 -179t-187.5 -65h-46v138h43q50 0 83 27.5t33 78.5q0 50 -33 77.5t-83 27.5h-43v100l82 129h-161v-578h-145z" />
    <glyph glyph-name="uni1ECA" unicode="&#x1eca;" horiz-adv-x="303" 
d="M79 0v710h145v-710h-145zM227 -144q0 -31 -22 -53t-53 -22t-53.5 22t-22.5 53q0 32 22 54t54 22q31 0 53 -22.5t22 -53.5z" />
    <glyph glyph-name="uni1ECB" unicode="&#x1ecb;" horiz-adv-x="269" 
d="M222 669q0 -36 -25.5 -61.5t-62.5 -25.5q-35 0 -61 25.5t-26 61.5t26 61.5t61 25.5q37 0 62.5 -25.5t25.5 -61.5zM66 0v500h137v-500h-137zM210 -144q0 -31 -22 -53t-53 -22t-53.5 22t-22.5 53q0 32 22.5 54t53.5 22t53 -22.5t22 -53.5z" />
    <glyph glyph-name="uni1ECC" unicode="&#x1ecc;" horiz-adv-x="808" 
d="M771 355q0 -152 -107.5 -259.5t-259.5 -107.5t-259.5 107.5t-107.5 259.5t107.5 259.5t259.5 107.5t259.5 -107.5t107.5 -259.5zM183 355q0 -94 64.5 -160.5t156.5 -66.5t156.5 66.5t64.5 160.5t-64.5 160.5t-156.5 66.5t-156.5 -66.5t-64.5 -160.5zM479 -144
q0 -31 -22 -53t-53 -22t-53.5 22t-22.5 53q0 32 22 54t54 22q31 0 53 -22.5t22 -53.5z" />
    <glyph glyph-name="uni1ECD" unicode="&#x1ecd;" horiz-adv-x="592" 
d="M559 250q0 -109 -77 -185t-186 -76t-186 76t-77 185t77 185t186 76t186 -76t77 -185zM171 250q0 -58 35.5 -95.5t89.5 -37.5t89 37.5t35 95.5t-35 95.5t-89 37.5t-89.5 -37.5t-35.5 -95.5zM371 -144q0 -31 -22 -53t-53 -22t-53.5 22t-22.5 53q0 32 22 54t54 22
q31 0 53 -22.5t22 -53.5z" />
    <glyph glyph-name="uni1EE4" unicode="&#x1ee4;" horiz-adv-x="720" 
d="M649 280q0 -131 -81 -211.5t-208 -80.5q-128 0 -208.5 80t-80.5 212v430h145v-432q0 -70 39.5 -110t104.5 -40t104.5 40t39.5 110v432h145v-430zM435 -144q0 -31 -22 -53t-53 -22t-53.5 22t-22.5 53q0 32 22 54t54 22q31 0 53 -22.5t22 -53.5z" />
    <glyph glyph-name="uni1EE5" unicode="&#x1ee5;" horiz-adv-x="588" 
d="M60 210v290h137v-267q0 -119 85 -119q48 0 75.5 36t27.5 106v244h137v-500h-137v57q-44 -68 -137 -68q-89 0 -138.5 60t-49.5 161zM372 -144q0 -31 -22 -53t-53 -22t-53.5 22t-22.5 53q0 32 22.5 54t53.5 22t53 -22.5t22 -53.5z" />
    <glyph glyph-name="Ygrave" unicode="&#x1ef2;" horiz-adv-x="690" 
d="M390 770h-103l-123 157h154zM272 0v299l-262 411h168l166 -269l167 269h169l-263 -412v-298h-145z" />
    <glyph glyph-name="ygrave" unicode="&#x1ef3;" horiz-adv-x="570" 
d="M236 560l-163 190h159l106 -190h-102zM256 -209h-149l105 237l-210 472h150l134 -324l133 324h151z" />
    <glyph glyph-name="uni2007" unicode="&#x2007;" horiz-adv-x="590" 
 />
    <glyph glyph-name="uni2008" unicode="&#x2008;" horiz-adv-x="279" 
 />
    <glyph glyph-name="uni2009" unicode="&#x2009;" horiz-adv-x="125" 
 />
    <glyph glyph-name="uni200B" unicode="&#x200b;" 
 />
    <glyph glyph-name="endash" unicode="&#x2013;" horiz-adv-x="587" 
d="M57 214v132h473v-132h-473z" />
    <glyph glyph-name="emdash" unicode="&#x2014;" horiz-adv-x="881" 
d="M57 214v132h767v-132h-767z" />
    <glyph glyph-name="quoteleft" unicode="&#x2018;" horiz-adv-x="275" 
d="M49 530l114 180h79l-72 -152q25 -10 42.5 -35.5t17.5 -56.5q0 -41 -29.5 -70.5t-70.5 -29.5t-70.5 29.5t-29.5 70.5q0 32 19 64z" />
    <glyph glyph-name="quoteright" unicode="&#x2019;" horiz-adv-x="280" 
d="M236 558l-112 -180h-81l74 152q-25 10 -42.5 35.5t-17.5 56.5q0 41 29.5 70.5t70.5 29.5t70.5 -29.5t29.5 -70.5q0 -32 -21 -64z" />
    <glyph glyph-name="quotesinglbase" unicode="&#x201a;" horiz-adv-x="282" 
d="M220 28l-112 -180h-81l73 152q-24 10 -41.5 35.5t-17.5 56.5q0 41 29 70.5t71 29.5q41 0 70 -29.5t29 -70.5q0 -31 -20 -64z" />
    <glyph glyph-name="quotedblleft" unicode="&#x201c;" horiz-adv-x="505" 
d="M49 530l114 180h79l-72 -152q25 -10 42.5 -35.5t17.5 -56.5q0 -41 -29.5 -70.5t-70.5 -29.5t-70.5 29.5t-29.5 70.5q0 32 19 64zM279 530l114 180h79l-72 -152q25 -10 42.5 -35.5t17.5 -56.5q0 -41 -29.5 -70.5t-70.5 -29.5t-70.5 29.5t-29.5 70.5q0 32 19 64z" />
    <glyph glyph-name="quotedblright" unicode="&#x201d;" horiz-adv-x="510" 
d="M236 558l-112 -180h-81l74 152q-25 10 -42.5 35.5t-17.5 56.5q0 41 29.5 70.5t70.5 29.5t70.5 -29.5t29.5 -70.5q0 -32 -21 -64zM466 558l-112 -180h-81l74 152q-25 10 -42.5 35.5t-17.5 56.5q0 41 29.5 70.5t70.5 29.5t70.5 -29.5t29.5 -70.5q0 -32 -21 -64z" />
    <glyph glyph-name="quotedblbase" unicode="&#x201e;" horiz-adv-x="512" 
d="M220 28l-112 -180h-81l73 152q-24 10 -41.5 35.5t-17.5 56.5q0 41 29 70.5t71 29.5q41 0 70 -29.5t29 -70.5q0 -31 -20 -64zM450 28l-112 -180h-81l73 152q-24 10 -41.5 35.5t-17.5 56.5q0 41 29 70.5t71 29.5q41 0 70 -29.5t29 -70.5q0 -31 -20 -64z" />
    <glyph glyph-name="dagger" unicode="&#x2020;" horiz-adv-x="517" 
d="M201 -98v489h-174v109h174v210h115v-210h174v-109h-174v-489h-115z" />
    <glyph glyph-name="daggerdbl" unicode="&#x2021;" horiz-adv-x="543" 
d="M503 112h-174v-210h-116v210h-173v109h173v170h-173v109h173v210h116v-210h174v-109h-174v-170h174v-109z" />
    <glyph glyph-name="bullet" unicode="&#x2022;" horiz-adv-x="400" 
d="M337 302q0 -56 -40.5 -96t-96.5 -40t-96 40t-40 96t40 96t96 40t96.5 -40t40.5 -96z" />
    <glyph glyph-name="ellipsis" unicode="&#x2026;" horiz-adv-x="800" 
d="M500 92q0 -41 -29 -70.5t-71 -29.5q-41 0 -70.5 29.5t-29.5 70.5t29.5 70.5t70.5 29.5q42 0 71 -29.5t29 -70.5zM766 92q0 -41 -29 -70.5t-71 -29.5q-41 0 -70.5 29.5t-29.5 70.5t29.5 70.5t70.5 29.5q42 0 71 -29.5t29 -70.5zM233 92q0 -41 -29 -70.5t-71 -29.5
q-41 0 -70.5 29.5t-29.5 70.5t29.5 70.5t70.5 29.5q42 0 71 -29.5t29 -70.5z" />
    <glyph glyph-name="perthousand" unicode="&#x2030;" horiz-adv-x="1399" 
d="M422 521q0 -81 -58 -139t-139 -58q-82 0 -139.5 58t-57.5 139q0 82 57.5 139.5t139.5 57.5q81 0 139 -57.5t58 -139.5zM194 0l450 710h142l-450 -710h-142zM145 521q0 -33 23.5 -57t56.5 -24t56.5 24t23.5 57t-23.5 57t-56.5 24t-56.5 -24t-23.5 -57zM1371 189
q0 -81 -58 -139t-139 -58q-82 0 -139.5 58t-57.5 139q0 82 57.5 139.5t139.5 57.5q81 0 139 -57.5t58 -139.5zM952 189q0 -81 -58 -139t-139 -58q-82 0 -139.5 58t-57.5 139q0 82 57.5 139.5t139.5 57.5q81 0 139 -57.5t58 -139.5zM1094 189q0 -33 23.5 -57t56.5 -24t56 24
t23 57t-23 57t-56 24t-56.5 -24t-23.5 -57zM675 189q0 -33 23.5 -57t56.5 -24t56 24t23 57t-23 57t-56 24t-56.5 -24t-23.5 -57z" />
    <glyph glyph-name="guilsinglleft" unicode="&#x2039;" horiz-adv-x="322" 
d="M29 250l141 217h118l-116 -217l116 -217h-118z" />
    <glyph glyph-name="guilsinglright" unicode="&#x203a;" horiz-adv-x="322" 
d="M293 250l-141 -217h-118l116 217l-116 217h118z" />
    <glyph glyph-name="fraction" unicode="&#x2044;" horiz-adv-x="180" 
d="M-217 0l500 710h118l-500 -710h-118z" />
    <glyph glyph-name="uni2060" unicode="&#x2060;" horiz-adv-x="223" 
 />
    <glyph glyph-name="zero.superior" unicode="&#x2070;" horiz-adv-x="389" 
d="M359 577q0 -76 -46 -125t-118 -49q-73 0 -119 49t-46 125v98q0 76 46 125t119 49q72 0 118 -49t46 -125v-98zM127 577q0 -36 19 -57t49 -21t48.5 21t18.5 57v98q0 36 -18.5 57t-48.5 21t-49 -21t-19 -57v-98z" />
    <glyph glyph-name="four.superior" unicode="&#x2074;" horiz-adv-x="395" 
d="M223 410v90h-208v79l218 263h88v-253h55v-89h-55v-90h-98zM223 589v109l-90 -109h90z" />
    <glyph glyph-name="five.superior" unicode="&#x2075;" horiz-adv-x="350" 
d="M19 539h100q5 -18 21 -29t38 -11q23 0 38.5 16t15.5 40q0 23 -16 38.5t-39 15.5q-46 0 -58 -45l-87 26l47 252h217v-95h-141l-12 -61q22 11 53 11q61 0 97 -41.5t36 -106.5q0 -64 -41 -105t-107 -41q-65 0 -112 38t-50 98z" />
    <glyph glyph-name="six.superior" unicode="&#x2076;" horiz-adv-x="339" 
d="M320 554q0 -65 -41 -108t-111 -43q-69 0 -111 42t-42 102q0 35 10.5 58t40.5 67l115 170h119l-102 -151q48 -4 85 -40.5t37 -96.5zM112 553q0 -24 15.5 -40t40.5 -16q23 0 38.5 16.5t15.5 39.5t-15.5 39.5t-38.5 16.5q-25 0 -40.5 -16t-15.5 -40z" />
    <glyph glyph-name="seven.superior" unicode="&#x2077;" horiz-adv-x="346" 
d="M138 410h-111l193 337h-194v95h309v-85z" />
    <glyph glyph-name="eight.superior" unicode="&#x2078;" horiz-adv-x="363" 
d="M339 542q0 -59 -45.5 -99t-111.5 -40q-67 0 -112 39.5t-45 99.5q0 65 53 101q-35 34 -35 88q0 48 38.5 83t100.5 35t99.5 -34.5t37.5 -83.5q0 -53 -34 -88q54 -35 54 -101zM135 720q0 -19 13.5 -31.5t33.5 -12.5q19 0 33 12.5t14 31.5q0 18 -14 31t-33 13
q-20 0 -33.5 -12.5t-13.5 -31.5zM125 547q0 -22 15.5 -38.5t41.5 -16.5q25 0 40.5 16.5t15.5 38.5q0 21 -15.5 37t-40.5 16q-26 0 -41.5 -16t-15.5 -37z" />
    <glyph glyph-name="nine.superior" unicode="&#x2079;" horiz-adv-x="339" 
d="M39 410l102 151q-48 4 -85 40.5t-37 96.5q0 66 41.5 108.5t111.5 42.5q69 0 110.5 -42t41.5 -102q0 -35 -10.5 -58t-40.5 -67l-115 -170h-119zM117 699q0 -23 15.5 -39.5t39.5 -16.5t39.5 16.5t15.5 39.5q0 24 -15.5 40t-39.5 16t-39.5 -16t-15.5 -40z" />
    <glyph glyph-name="zero.inferior" unicode="&#x2080;" horiz-adv-x="389" 
d="M359 52q0 -76 -46 -125t-118 -49q-73 0 -119 49t-46 125v98q0 76 46 125t119 49q72 0 118 -49t46 -125v-98zM127 52q0 -36 19 -57t49 -21t48.5 21t18.5 57v98q0 36 -18.5 57t-48.5 21t-49 -21t-19 -57v-98z" />
    <glyph glyph-name="one.inferior" unicode="&#x2081;" horiz-adv-x="243" 
d="M100 -115v336h-95l68 96h124v-432h-97z" />
    <glyph glyph-name="two.inferior" unicode="&#x2082;" horiz-adv-x="355" 
d="M325 -19v-96h-300v32q0 33 9.5 60t31 49t38 35t46.5 33q8 5 12 8q63 41 63 82q0 19 -12 31.5t-34 12.5q-25 0 -40 -15t-14 -35h-98q0 63 44.5 104.5t110.5 41.5q59 0 100 -36t41 -100q0 -55 -23 -90t-64 -63q-64 -41 -72 -54h161z" />
    <glyph glyph-name="three.inferior" unicode="&#x2083;" horiz-adv-x="364" 
d="M338 9q0 -57 -42.5 -94t-110.5 -37q-65 0 -113 39.5t-51 111.5h97q6 -55 67 -55q25 0 40.5 12.5t15.5 32.5q0 21 -16.5 34t-43.5 13h-39v77h33q53 0 53 44q0 18 -13 29.5t-33 11.5q-24 0 -39.5 -15t-15.5 -35h-97q0 66 46.5 106t106.5 40q68 0 105.5 -37t37.5 -91
q0 -58 -43 -93q23 -11 39 -35.5t16 -58.5z" />
    <glyph glyph-name="four.inferior" unicode="&#x2084;" horiz-adv-x="395" 
d="M223 -115v90h-208v79l218 263h88v-253h55v-89h-55v-90h-98zM223 64v109l-90 -109h90z" />
    <glyph glyph-name="five.inferior" unicode="&#x2085;" horiz-adv-x="350" 
d="M19 14h100q5 -18 21 -29t38 -11q23 0 38.5 16t15.5 40q0 23 -16 38.5t-39 15.5q-46 0 -58 -45l-87 26l47 252h217v-95h-141l-12 -61q22 11 53 11q61 0 97 -41.5t36 -106.5q0 -64 -41 -105t-107 -41q-65 0 -112 38t-50 98z" />
    <glyph glyph-name="six.inferior" unicode="&#x2086;" horiz-adv-x="339" 
d="M320 29q0 -65 -41 -108t-111 -43q-69 0 -111 42t-42 102q0 35 10.5 58t40.5 67l115 170h119l-102 -151q48 -4 85 -40.5t37 -96.5zM112 28q0 -24 15.5 -40t40.5 -16q23 0 38.5 16.5t15.5 39.5t-15.5 39.5t-38.5 16.5q-25 0 -40.5 -16t-15.5 -40z" />
    <glyph glyph-name="seven.inferior" unicode="&#x2087;" horiz-adv-x="346" 
d="M138 -115h-111l193 337h-194v95h309v-85z" />
    <glyph glyph-name="eight.inferior" unicode="&#x2088;" horiz-adv-x="363" 
d="M339 17q0 -59 -45.5 -99t-111.5 -40q-67 0 -112 39.5t-45 99.5q0 65 53 101q-35 34 -35 88q0 48 38.5 83t100.5 35t99.5 -34.5t37.5 -83.5q0 -53 -34 -88q54 -35 54 -101zM135 195q0 -19 13.5 -31.5t33.5 -12.5q19 0 33 12.5t14 31.5q0 18 -14 31t-33 13
q-20 0 -33.5 -12.5t-13.5 -31.5zM125 22q0 -22 15.5 -38.5t41.5 -16.5q25 0 40.5 16.5t15.5 38.5q0 21 -15.5 37t-40.5 16q-26 0 -41.5 -16t-15.5 -37z" />
    <glyph glyph-name="nine.inferior" unicode="&#x2089;" horiz-adv-x="339" 
d="M39 -115l102 151q-48 4 -85 40.5t-37 96.5q0 66 41.5 108.5t111.5 42.5q69 0 110.5 -42t41.5 -102q0 -35 -10.5 -58t-40.5 -67l-115 -170h-119zM117 174q0 -23 15.5 -39.5t39.5 -16.5t39.5 16.5t15.5 39.5q0 24 -15.5 40t-39.5 16t-39.5 -16t-15.5 -40z" />
    <glyph glyph-name="Euro" unicode="&#x20ac;" horiz-adv-x="852" 
d="M28 263l21 56h63q-2 24 -2 36q0 13 2 37h-84l21 57h72q31 122 129.5 197.5t228.5 75.5q115 0 203.5 -58.5t130.5 -163.5h-157q-61 87 -176 87q-76 0 -132.5 -37.5t-81.5 -100.5h356l-20 -57h-351q-3 -18 -3 -37q0 -12 2 -36h326l-19 -56h-292q25 -64 82 -102t133 -38
q115 0 176 87h157q-42 -105 -130.5 -163.5t-203.5 -58.5q-131 0 -230 76.5t-128 198.5h-93z" />
    <glyph glyph-name="uni20B4" unicode="&#x20b4;" horiz-adv-x="629" 
d="M40 389v57h342q32 26 32 68q0 37 -24.5 58t-64.5 21q-87 0 -113 -87h-136q17 101 86.5 158.5t169.5 57.5q94 0 156 -52t62 -136q0 -55 -23 -88h57v-57h-544zM40 277v57h544v-57h-344q-35 -24 -35 -72q0 -40 29.5 -64t81.5 -24t86 25.5t41 76.5h136q-8 -105 -79.5 -168
t-182.5 -63q-109 0 -179 54.5t-70 138.5q0 61 30 96h-58z" />
    <glyph glyph-name="uni20B8" unicode="&#x20b8;" horiz-adv-x="588" 
d="M31 653v57h526v-57h-526zM225 0v463h-194v135h526v-135h-195v-463h-137z" />
    <glyph glyph-name="uni20BD" unicode="&#x20bd;" horiz-adv-x="619" 
d="M134 0v128h-85v58h85v69h-85v132h85v323h214q106 0 174 -63t68 -165t-68 -164.5t-174 -62.5h-77v-69h162v-58h-162v-128h-137zM271 387h75q47 0 75 24.5t28 70.5t-27.5 70.5t-75.5 24.5h-75v-190z" />
    <glyph glyph-name="afii61352" unicode="&#x2116;" horiz-adv-x="1101" 
d="M1065 560q0 -64 -45.5 -109.5t-109.5 -45.5t-109 45.5t-45 109.5t45 109.5t109 45.5t109.5 -45.5t45.5 -109.5zM713 0h-125l-364 463v-463h-145v710h125l364 -463v463h145v-710zM846 560q0 -27 19 -46t46 -19q26 0 45 19t19 46t-19 46t-45 19q-27 0 -46 -19t-19 -46z
M761 269v90h299v-90h-299z" />
    <glyph glyph-name="uni2117" unicode="&#x2117;" horiz-adv-x="807" 
d="M770 355q0 -151 -108 -259t-259 -108t-258.5 108t-107.5 259t107.5 259t258.5 108t259 -108t108 -259zM121 355q0 -117 83 -200t199 -83q117 0 200 83t83 200t-83 200t-200 83q-116 0 -199 -83t-83 -200zM429 540q56 0 93 -36.5t37 -90.5t-37 -90.5t-93 -36.5h-43v-117
h-84v371h127zM428 365q22 0 36.5 14t14.5 34q0 21 -14.5 35t-36.5 14h-42v-97h42z" />
    <glyph glyph-name="trademark" unicode="&#x2122;" horiz-adv-x="811" 
d="M389 348v362h98l79 -122l78 122h99v-362h-101v186l-76 -116l-77 118v-188h-100zM129 348v258h-97v104h300v-104h-97v-258h-106z" />
    <glyph glyph-name="uni2150" unicode="&#x2150;" horiz-adv-x="847" 
d="M100 278v336h-95l68 96h124v-432h-97zM63 0l500 710h118l-500 -710h-118zM640 0h-111l193 337h-194v95h309v-85z" />
    <glyph glyph-name="uni2151" unicode="&#x2151;" horiz-adv-x="799" 
d="M100 278v336h-95l68 96h124v-432h-97zM63 0l500 710h118l-500 -710h-118zM499 0l102 151q-48 4 -85 40.5t-37 96.5q0 66 41.5 108.5t111.5 42.5q69 0 110.5 -42t41.5 -102q0 -35 -10.5 -58t-40.5 -67l-115 -170h-119zM577 289q0 -23 15.5 -39.5t39.5 -16.5t39.5 16.5
t15.5 39.5q0 24 -15.5 40t-39.5 16t-39.5 -16t-15.5 -40z" />
    <glyph glyph-name="uni2152" unicode="&#x2152;" horiz-adv-x="1092" 
d="M100 278v336h-95l68 96h124v-432h-97zM63 0l500 710h118l-500 -710h-118zM1062 167q0 -76 -46 -125t-118 -49q-73 0 -119 49t-46 125v98q0 76 46 125t119 49q72 0 118 -49t46 -125v-98zM560 0v336h-95l68 96h124v-432h-97zM830 167q0 -36 19 -57t49 -21t48.5 21t18.5 57
v98q0 36 -18.5 57t-48.5 21t-49 -21t-19 -57v-98z" />
    <glyph glyph-name="onethird" unicode="&#x2153;" horiz-adv-x="824" 
d="M100 278v336h-95l68 96h124v-432h-97zM63 0l500 710h118l-500 -710h-118zM798 124q0 -57 -42.5 -94t-110.5 -37q-65 0 -113 39.5t-51 111.5h97q6 -55 67 -55q25 0 40.5 12.5t15.5 32.5q0 21 -16.5 34t-43.5 13h-39v77h33q53 0 53 44q0 18 -13 29.5t-33 11.5
q-24 0 -39.5 -15t-15.5 -35h-97q0 66 46.5 106t106.5 40q68 0 105.5 -37t37.5 -91q0 -58 -43 -93q23 -11 39 -35.5t16 -58.5z" />
    <glyph glyph-name="twothirds" unicode="&#x2154;" horiz-adv-x="922" 
d="M325 374v-96h-300v32q0 33 9.5 60t31 49t38 35t46.5 33q8 5 12 8q63 41 63 82q0 19 -12 31.5t-34 12.5q-25 0 -40 -15t-14 -35h-98q0 63 44.5 104.5t110.5 41.5q59 0 100 -36t41 -100q0 -55 -23 -90t-64 -63q-64 -41 -72 -54h161zM161 0l500 710h118l-500 -710h-118z
M896 124q0 -57 -42.5 -94t-110.5 -37q-65 0 -113 39.5t-51 111.5h97q6 -55 67 -55q25 0 40.5 12.5t15.5 32.5q0 21 -16.5 34t-43.5 13h-39v77h33q53 0 53 44q0 18 -13 29.5t-33 11.5q-24 0 -39.5 -15t-15.5 -35h-97q0 66 46.5 106t106.5 40q68 0 105.5 -37t37.5 -91
q0 -58 -43 -93q23 -11 39 -35.5t16 -58.5z" />
    <glyph glyph-name="uni2155" unicode="&#x2155;" horiz-adv-x="810" 
d="M100 278v336h-95l68 96h124v-432h-97zM63 0l500 710h118l-500 -710h-118zM478 129h100q5 -18 21 -29t38 -11q23 0 38.5 16t15.5 40q0 23 -16 38.5t-39 15.5q-46 0 -58 -45l-87 26l47 252h217v-95h-141l-12 -61q22 11 53 11q61 0 97 -41.5t36 -106.5q0 -64 -41 -105
t-107 -41q-65 0 -112 38t-50 98z" />
    <glyph glyph-name="uni2156" unicode="&#x2156;" horiz-adv-x="907" 
d="M325 374v-96h-300v32q0 33 9.5 60t31 49t38 35t46.5 33q8 5 12 8q63 41 63 82q0 19 -12 31.5t-34 12.5q-25 0 -40 -15t-14 -35h-98q0 63 44.5 104.5t110.5 41.5q59 0 100 -36t41 -100q0 -55 -23 -90t-64 -63q-64 -41 -72 -54h161zM161 0l500 710h118l-500 -710h-118z
M576 129h100q5 -18 21 -29t38 -11q23 0 38.5 16t15.5 40q0 23 -16 38.5t-39 15.5q-46 0 -58 -45l-87 26l47 252h217v-95h-141l-12 -61q22 11 53 11q61 0 97 -41.5t36 -106.5q0 -64 -41 -105t-107 -41q-65 0 -112 38t-50 98z" />
    <glyph glyph-name="uni2157" unicode="&#x2157;" horiz-adv-x="894" 
d="M338 402q0 -57 -42.5 -94t-110.5 -37q-65 0 -113 39.5t-51 111.5h97q6 -55 67 -55q25 0 40.5 12.5t15.5 32.5q0 21 -16.5 34t-43.5 13h-39v77h33q53 0 53 44q0 18 -13 29.5t-33 11.5q-24 0 -39.5 -15t-15.5 -35h-97q0 66 46.5 106t106.5 40q68 0 105.5 -37t37.5 -91
q0 -58 -43 -93q23 -11 39 -35.5t16 -58.5zM147 0l500 710h118l-500 -710h-118zM562 129h100q5 -18 21 -29t38 -11q23 0 38.5 16t15.5 40q0 23 -16 38.5t-39 15.5q-46 0 -58 -45l-87 26l47 252h217v-95h-141l-12 -61q22 11 53 11q61 0 97 -41.5t36 -106.5q0 -64 -41 -105
t-107 -41q-65 0 -112 38t-50 98z" />
    <glyph glyph-name="uni2158" unicode="&#x2158;" horiz-adv-x="924" 
d="M223 278v90h-208v79l218 263h88v-253h55v-89h-55v-90h-98zM178 0l500 710h118l-500 -710h-118zM223 457v109l-90 -109h90zM593 129h100q5 -18 21 -29t38 -11q23 0 38.5 16t15.5 40q0 23 -16 38.5t-39 15.5q-46 0 -58 -45l-87 26l47 252h217v-95h-141l-12 -61q22 11 53 11
q61 0 97 -41.5t36 -106.5q0 -64 -41 -105t-107 -41q-65 0 -112 38t-50 98z" />
    <glyph glyph-name="uni2159" unicode="&#x2159;" horiz-adv-x="767" 
d="M100 278v336h-95l68 96h124v-432h-97zM63 0l500 710h118l-500 -710h-118zM748 144q0 -65 -41 -108t-111 -43q-69 0 -111 42t-42 102q0 35 10.5 58t40.5 67l115 170h119l-102 -151q48 -4 85 -40.5t37 -96.5zM540 143q0 -24 15.5 -40t40.5 -16q23 0 38.5 16.5t15.5 39.5
t-15.5 39.5t-38.5 16.5q-25 0 -40.5 -16t-15.5 -40z" />
    <glyph glyph-name="uni215A" unicode="&#x215a;" horiz-adv-x="837" 
d="M19 407h100q5 -18 21 -29t38 -11q23 0 38.5 16t15.5 40q0 23 -16 38.5t-39 15.5q-46 0 -58 -45l-87 26l47 252h217v-95h-141l-12 -61q22 11 53 11q61 0 97 -41.5t36 -106.5q0 -64 -41 -105t-107 -41q-65 0 -112 38t-50 98zM133 0l500 710h118l-500 -710h-118zM818 144
q0 -65 -41 -108t-111 -43q-69 0 -111 42t-42 102q0 35 10.5 58t40.5 67l115 170h119l-102 -151q48 -4 85 -40.5t37 -96.5zM610 143q0 -24 15.5 -40t40.5 -16q23 0 38.5 16.5t15.5 39.5t-15.5 39.5t-38.5 16.5q-25 0 -40.5 -16t-15.5 -40z" />
    <glyph glyph-name="oneeighth" unicode="&#x215b;" horiz-adv-x="823" 
d="M100 278v336h-95l68 96h124v-432h-97zM63 0l500 710h118l-500 -710h-118zM799 132q0 -59 -45.5 -99t-111.5 -40q-67 0 -112 39.5t-45 99.5q0 65 53 101q-35 34 -35 88q0 48 38.5 83t100.5 35t99.5 -34.5t37.5 -83.5q0 -53 -34 -88q54 -35 54 -101zM595 310
q0 -19 13.5 -31.5t33.5 -12.5q19 0 33 12.5t14 31.5q0 18 -14 31t-33 13q-20 0 -33.5 -12.5t-13.5 -31.5zM585 137q0 -22 15.5 -38.5t41.5 -16.5q25 0 40.5 16.5t15.5 38.5q0 21 -15.5 37t-40.5 16q-26 0 -41.5 -16t-15.5 -37z" />
    <glyph glyph-name="threeeighths" unicode="&#x215c;" horiz-adv-x="907" 
d="M338 402q0 -57 -42.5 -94t-110.5 -37q-65 0 -113 39.5t-51 111.5h97q6 -55 67 -55q25 0 40.5 12.5t15.5 32.5q0 21 -16.5 34t-43.5 13h-39v77h33q53 0 53 44q0 18 -13 29.5t-33 11.5q-24 0 -39.5 -15t-15.5 -35h-97q0 66 46.5 106t106.5 40q68 0 105.5 -37t37.5 -91
q0 -58 -43 -93q23 -11 39 -35.5t16 -58.5zM147 0l500 710h118l-500 -710h-118zM883 132q0 -59 -45.5 -99t-111.5 -40q-67 0 -112 39.5t-45 99.5q0 65 53 101q-35 34 -35 88q0 48 38.5 83t100.5 35t99.5 -34.5t37.5 -83.5q0 -53 -34 -88q54 -35 54 -101zM679 310
q0 -19 13.5 -31.5t33.5 -12.5q19 0 33 12.5t14 31.5q0 18 -14 31t-33 13q-20 0 -33.5 -12.5t-13.5 -31.5zM669 137q0 -22 15.5 -38.5t41.5 -16.5q25 0 40.5 16.5t15.5 38.5q0 21 -15.5 37t-40.5 16q-26 0 -41.5 -16t-15.5 -37z" />
    <glyph glyph-name="fiveeighths" unicode="&#x215d;" horiz-adv-x="893" 
d="M19 407h100q5 -18 21 -29t38 -11q23 0 38.5 16t15.5 40q0 23 -16 38.5t-39 15.5q-46 0 -58 -45l-87 26l47 252h217v-95h-141l-12 -61q22 11 53 11q61 0 97 -41.5t36 -106.5q0 -64 -41 -105t-107 -41q-65 0 -112 38t-50 98zM133 0l500 710h118l-500 -710h-118zM869 132
q0 -59 -45.5 -99t-111.5 -40q-67 0 -112 39.5t-45 99.5q0 65 53 101q-35 34 -35 88q0 48 38.5 83t100.5 35t99.5 -34.5t37.5 -83.5q0 -53 -34 -88q54 -35 54 -101zM665 310q0 -19 13.5 -31.5t33.5 -12.5q19 0 33 12.5t14 31.5q0 18 -14 31t-33 13q-20 0 -33.5 -12.5
t-13.5 -31.5zM655 137q0 -22 15.5 -38.5t41.5 -16.5q25 0 40.5 16.5t15.5 38.5q0 21 -15.5 37t-40.5 16q-26 0 -41.5 -16t-15.5 -37z" />
    <glyph glyph-name="seveneighths" unicode="&#x215e;" horiz-adv-x="830" 
d="M138 278h-111l193 337h-194v95h309v-85zM69 0l500 710h118l-500 -710h-118zM805 132q0 -59 -45.5 -99t-111.5 -40q-67 0 -112 39.5t-45 99.5q0 65 53 101q-35 34 -35 88q0 48 38.5 83t100.5 35t99.5 -34.5t37.5 -83.5q0 -53 -34 -88q54 -35 54 -101zM601 310
q0 -19 13.5 -31.5t33.5 -12.5q19 0 33 12.5t14 31.5q0 18 -14 31t-33 13q-20 0 -33.5 -12.5t-13.5 -31.5zM591 137q0 -22 15.5 -38.5t41.5 -16.5q25 0 40.5 16.5t15.5 38.5q0 21 -15.5 37t-40.5 16q-26 0 -41.5 -16t-15.5 -37z" />
    <glyph glyph-name="uni215F" unicode="&#x215f;" horiz-adv-x="460" 
d="M100 278v336h-95l68 96h124v-432h-97zM63 0l500 710h118l-500 -710h-118z" />
    <glyph glyph-name="uni2190" unicode="&#x2190;" horiz-adv-x="817" 
d="M346 -57l-306 306l306 306l75 -78l-172 -173h511v-110h-511l172 -173z" />
    <glyph glyph-name="uni2191" unicode="&#x2191;" horiz-adv-x="696" 
d="M293 0v513l-173 -173l-78 76l306 306l306 -306l-78 -76l-173 173v-513h-110z" />
    <glyph glyph-name="uni2192" unicode="&#x2192;" horiz-adv-x="817" 
d="M471 -57l-75 78l172 173h-511v110h511l-172 173l75 78l306 -306z" />
    <glyph glyph-name="uni2193" unicode="&#x2193;" horiz-adv-x="692" 
d="M346 -12l-306 306l78 76l173 -173v513h110v-513l173 173l78 -76z" />
    <glyph glyph-name="uni2196" unicode="&#x2196;" horiz-adv-x="722" 
d="M602 -12l-399 398v-247h-110v433h433v-110h-246l398 -397z" />
    <glyph glyph-name="uni2197" unicode="&#x2197;" horiz-adv-x="722" 
d="M120 -12l-76 77l398 397h-247v110h433v-433h-109v247z" />
    <glyph glyph-name="uni2198" unicode="&#x2198;" horiz-adv-x="717" 
d="M197 0v110h246l-398 397l77 77l399 -398v247h109v-433h-433z" />
    <glyph glyph-name="uni2199" unicode="&#x2199;" horiz-adv-x="717" 
d="M595 584l77 -77l-398 -397h246v-110h-433v433h109v-247z" />
    <glyph glyph-name="uni21B0" unicode="&#x21b0;" horiz-adv-x="839" 
d="M650 -209v403h-401l172 -173l-75 -78l-306 306l306 306l75 -78l-172 -173h511v-513h-110z" />
    <glyph glyph-name="uni21B1" unicode="&#x21b1;" horiz-adv-x="839" 
d="M79 -209v513h511l-173 173l76 78l306 -306l-306 -306l-76 78l173 173h-401v-403h-110z" />
    <glyph glyph-name="uni21B2" unicode="&#x21b2;" horiz-adv-x="849" 
d="M346 -57l-306 306l306 306l76 -78l-173 -173h401v406h110v-516h-511l173 -173z" />
    <glyph glyph-name="uni21B3" unicode="&#x21b3;" horiz-adv-x="849" 
d="M503 -57l-75 78l172 173h-511v516h110v-406h401l-172 173l75 78l306 -306z" />
    <glyph glyph-name="minus" unicode="&#x2212;" horiz-adv-x="541" 
d="M60 230v119h421v-119h-421z" />
    <glyph glyph-name="commaaccent" unicode="&#xf6c3;" 
d="M-72 -306l42 94q-19 8 -32 26.5t-13 42.5q0 31 22 53t53 22t53 -22t22 -53q0 -27 -15 -48l-72 -115h-60z" />
    <glyph glyph-name="cyrbreve.case" unicode="&#xf6d1;" 
d="M-174 925h90q0 -43 23 -68.5t61 -25.5t61 25.5t23 68.5h90q0 -78 -50 -126.5t-124 -48.5t-124 48.5t-50 126.5z" />
    <glyph glyph-name="cyrbreve" unicode="&#xf6d4;" 
d="M174 732q0 -78 -50 -126t-124 -48t-124 48t-50 126v18h90v-18q0 -45 24 -70t60 -25t60 25t24 70v18h90v-18z" />
    <glyph glyph-name="uniFB00" unicode="&#xfb00;" horiz-adv-x="788" 
d="M119 0v380h-101v120h101v75q0 88 53.5 134.5t137.5 46.5q52 0 87 -11v-121q-11 8 -56 8t-65 -19.5t-20 -64.5v-48h110v-120h-110v-380h-137zM495 0v380h-80v120h80v75q0 88 53.5 134.5t137.5 46.5q51 0 87 -11v-121q-21 8 -57 8q-44 0 -64 -19.5t-20 -64.5v-48h141v-120
h-141v-380h-137z" />
    <glyph glyph-name="fi" unicode="&#xfb01;" horiz-adv-x="681" 
d="M119 0v380h-101v120h101v65q0 89 54.5 140t136.5 51q52 0 87 -11v-121q-24 9 -56 9q-45 0 -65 -20t-20 -65v-48h141v-120h-141v-380h-137zM634 669q0 -36 -25.5 -61.5t-62.5 -25.5q-35 0 -61 25.5t-26 61.5t26 61.5t61 25.5q37 0 62.5 -25.5t25.5 -61.5zM478 0v500h137
v-500h-137z" />
    <glyph glyph-name="fl" unicode="&#xfb02;" horiz-adv-x="681" 
d="M119 0v380h-101v120h101v65q0 89 54.5 140t136.5 51q52 0 87 -11v-121q-24 9 -56 9q-45 0 -65 -20t-20 -65v-48h141v-120h-141v-380h-137zM478 0v750h137v-750h-137z" />
    <glyph glyph-name="uniFB03" unicode="&#xfb03;" horiz-adv-x="1057" 
d="M1010 669q0 -36 -25.5 -61.5t-62.5 -25.5q-35 0 -61 25.5t-26 61.5t26 61.5t61 25.5q37 0 62.5 -25.5t25.5 -61.5zM119 0v380h-101v120h101v75q0 88 53.5 134.5t137.5 46.5q52 0 87 -11v-121q-11 8 -56 8t-65 -19.5t-20 -64.5v-48h110v-120h-110v-380h-137zM495 0v380
h-80v120h80v75q0 88 53.5 134.5t137.5 46.5q51 0 87 -11v-121q-21 8 -57 8q-44 0 -64 -19.5t-20 -64.5v-48h141v-120h-141v-380h-137zM854 0v500h137v-500h-137z" />
    <glyph glyph-name="uniFB04" unicode="&#xfb04;" horiz-adv-x="1057" 
d="M119 0v380h-101v120h101v75q0 88 53.5 134.5t137.5 46.5q52 0 87 -11v-121q-11 8 -56 8t-65 -19.5t-20 -64.5v-48h110v-120h-110v-380h-137zM495 0v380h-80v120h80v75q0 88 53.5 134.5t137.5 46.5q51 0 87 -11v-121q-21 8 -57 8q-44 0 -64 -19.5t-20 -64.5v-48h141v-120
h-141v-380h-137zM854 0v750h137v-750h-137z" />
    <glyph glyph-name="uniFEFF" unicode="&#xfeff;" 
 />
    <glyph glyph-name="CR" horiz-adv-x="228" 
 />
    <glyph glyph-name="L_periodcentered" horiz-adv-x="558" 
d="M79 0v710h145v-572h304v-138h-449zM498 424q0 -31 -22 -53t-53 -22t-53.5 22t-22.5 53q0 32 22.5 54t53.5 22t53 -22.5t22 -53.5z" />
    <glyph glyph-name="l_periodcentered" horiz-adv-x="404" 
d="M66 0v750h137v-750h-137zM412 373q0 -31 -22 -53t-53 -22t-53.5 22t-22.5 53t22.5 53.5t53.5 22.5t53 -22.5t22 -53.5z" />
    <glyph glyph-name="uni0446.loclBGR" horiz-adv-x="643" 
d="M396 256v244h137v-341q0 -21 8.5 -30t30.5 -9h44v-243h-123v123h-6q-34 0 -57 18t-23 51v5q-46 -85 -154 -85q-90 0 -141.5 59.5t-51.5 158.5v293h137v-270q0 -55 23 -85.5t66 -30.5q49 0 79.5 36.5t30.5 105.5z" />
    <glyph glyph-name="uni043F.loclBGR" horiz-adv-x="599" 
d="M66 0v500h137v-57q20 31 57.5 49.5t85.5 18.5q90 0 141.5 -59.5t51.5 -158.5v-293h-137v270q0 55 -23 85.5t-65 30.5q-50 0 -80.5 -36.5t-30.5 -105.5v-244h-137z" />
    <glyph glyph-name="uni0437.loclBGR" horiz-adv-x="534" 
d="M9 -24h142q10 -34 39.5 -54t72.5 -20q48 0 74.5 27.5t26.5 73.5t-28 73.5t-85 27.5h-62v113h62q43 0 67 24.5t24 65.5q0 37 -23.5 60t-62.5 23q-70 0 -94 -57h-139q19 88 85.5 133t157.5 45q95 0 151 -55.5t56 -132.5q0 -101 -71 -151q48 -25 74 -72t26 -107
q0 -98 -64.5 -155t-173.5 -57q-100 0 -169.5 50t-85.5 145z" />
    <glyph glyph-name="uni0448.loclBGR" horiz-adv-x="893" 
d="M197 500v-267q0 -119 78 -119q46 0 73 36t27 106v244h137v-267q0 -119 77 -119q46 0 73.5 36t27.5 106v244h137v-500h-137v57q-47 -68 -133 -68q-109 0 -155 93q-21 -45 -65 -69t-90 -24q-89 0 -138 59t-49 162v290h137z" />
    <glyph glyph-name="uni0433.loclBGR" horiz-adv-x="500" 
d="M33 141q0 119 138 155l89 24q56 14 56 46q0 18 -16 28t-42 10q-56 0 -67 -51h-137q5 73 61 115.5t140 42.5q93 0 147 -41t54 -107q0 -57 -31.5 -98t-94.5 -57l-95 -24q-33 -9 -48 -20t-15 -30q0 -18 17 -29t48 -11q36 0 60 16.5t27 48.5h144q-5 -74 -67.5 -122
t-159.5 -48q-92 0 -150 41t-58 111z" />
    <glyph glyph-name="uni0438.loclBGR" horiz-adv-x="588" 
d="M60 210v290h137v-267q0 -119 85 -119q48 0 75.5 36t27.5 106v244h137v-500h-137v57q-44 -68 -137 -68q-89 0 -138.5 60t-49.5 161z" />
    <glyph glyph-name="uni044E.loclBGR" horiz-adv-x="821" 
d="M203 310h80q19 88 87.5 144.5t160.5 56.5q109 0 182 -76t73 -185t-73 -185t-182 -76q-92 0 -160 57t-88 145h-80v-191h-137v750h137v-440zM415 251q0 -58 32 -96t84 -38t84.5 37.5t32.5 95.5t-32.5 95.5t-84.5 37.5t-84 -37t-32 -95z" />
    <glyph glyph-name="uni0432.loclBGR" horiz-adv-x="563" 
d="M294 -11h-15q-104 0 -162 62.5t-58 166.5v311q0 107 55 168.5t162 61.5q101 0 156 -57t55 -149q0 -105 -62 -155q49 -23 75.5 -70.5t26.5 -110.5q0 -104 -63 -166t-170 -62zM196 546v-95h78q41 0 62 24.5t21 68.5t-20.5 69t-60.5 25q-38 0 -59 -24t-21 -68zM289 110h9
q46 0 69 31.5t23 83.5q0 54 -24.5 84t-72.5 30h-97v-118q0 -111 93 -111z" />
    <glyph glyph-name="uni0434.loclBGR" horiz-adv-x="619" 
d="M56 -31h133q26 -74 114 -74q48 0 80 30.5t32 87.5v59q-19 -29 -58 -47.5t-86 -18.5q-98 0 -167 73.5t-69 178.5t69 179t167 74q47 0 86 -19t58 -48v56h137v-469q0 -127 -72 -188.5t-180 -61.5q-104 0 -170.5 53t-73.5 135zM426 258q0 57 -36.5 92.5t-89.5 35.5t-90 -36
t-37 -92t37 -92t90 -36t89.5 36t36.5 92z" />
    <glyph glyph-name="uni0439.loclBGR" horiz-adv-x="588" 
d="M465 732q0 -78 -50 -126t-124 -48t-124 48t-50 126v18h90v-18q0 -45 24 -70t60 -25t60 25t24 70v18h90v-18zM60 210v290h137v-267q0 -119 85 -119q48 0 75.5 36t27.5 106v244h137v-500h-137v57q-44 -68 -137 -68q-89 0 -138.5 60t-49.5 161z" />
    <glyph glyph-name="uni0431.loclSRB" horiz-adv-x="592" 
d="M557 250q0 -110 -75 -185.5t-186 -75.5t-186 75.5t-75 185.5q0 124 94 193q-61 54 -61 131q0 82 58.5 129t172.5 47h181v-120h-185q-43 0 -68 -18t-25 -53t25 -53.5t68 -18.5h17q102 0 173.5 -69.5t71.5 -167.5zM172 247q0 -60 34 -95t89 -35t89.5 34.5t34.5 95.5
q0 49 -35.5 85t-90.5 36q-58 0 -89.5 -35t-31.5 -86z" />
    <glyph glyph-name="uni044C.loclBGR" horiz-adv-x="501" 
d="M286 -11h-36q-92 0 -140.5 55t-48.5 126v330h137v-149h88q93 0 141.5 -55t48.5 -126t-48.5 -126t-141.5 -55zM198 170q0 -64 74 -64t74 64t-74 64h-74v-64z" />
    <glyph glyph-name="uni0449.loclBGR" horiz-adv-x="938" 
d="M197 500v-267q0 -119 78 -119q46 0 73 36t27 106v244h137v-267q0 -119 77 -119q46 0 73.5 36t27.5 106v244h137v-341q0 -21 8.5 -30t29.5 -9h44v-243h-123v123h-5q-34 0 -57.5 18t-23.5 51v1q-52 -81 -143 -81q-109 0 -155 93q-21 -45 -65 -69t-90 -24q-89 0 -138 59
t-49 162v290h137z" />
    <glyph glyph-name="uni0442.loclBGR" horiz-adv-x="893" 
d="M66 0v500h137v-57q47 68 133 68q107 0 155 -92q22 44 65.5 68t89.5 24q88 0 137.5 -59.5t49.5 -161.5v-290h-137v267q0 119 -78 119q-46 0 -73 -36t-27 -106v-244h-137v267q0 119 -78 119q-46 0 -73 -36t-27 -106v-244h-137z" />
    <glyph glyph-name="uni043A.loclBGR" horiz-adv-x="551" 
d="M66 0v750h137v-453l169 203h163l-207 -246l241 -254h-176l-190 202v-202h-137z" />
    <glyph glyph-name="uni0436.loclBGR" horiz-adv-x="824" 
d="M159 0h-170l232 254l-199 246h159l163 -204v454h137v-451l161 201h159l-199 -246l233 -254h-170l-184 200v-200h-137v202z" />
    <glyph glyph-name="uni044A.loclBGR" horiz-adv-x="583" 
d="M368 -11h-36q-92 0 -140.5 55t-48.5 126v210h-125v120h262v-149h88q93 0 141.5 -55t48.5 -126t-48.5 -126t-141.5 -55zM354 106q74 0 74 64t-74 64h-74v-64q0 -64 74 -64z" />
    <glyph glyph-name="apple" horiz-adv-x="535" 
d="M234 675l129 48l-131 -252l233 10l-415 -492l242 402l-205 -12zM360 710q0 5 5 5t5 -5t-5 -5t-5 5zM370 700q0 5 5 5t5 -5t-5 -5t-5 5zM360 700q0 5 5 5t5 -5t-5 -5t-5 5zM350 690q0 5 5 5t5 -5t-5 -5t-5 5zM360 690q0 5 5 5t5 -5t-5 -5t-5 5zM370 690q0 5 5 5t5 -5
t-5 -5t-5 5zM380 690q0 5 5 5t5 -5t-5 -5t-5 5zM350 680q0 5 5 5t5 -5t-5 -5t-5 5zM360 680q0 5 5 5t5 -5t-5 -5t-5 5zM370 680q0 5 5 5t5 -5t-5 -5t-5 5zM380 680q0 5 5 5t5 -5t-5 -5t-5 5zM350 670q0 5 5 5t5 -5t-5 -5t-5 5zM360 670q0 5 5 5t5 -5t-5 -5t-5 5zM370 670
q0 5 5 5t5 -5t-5 -5t-5 5zM340 670q0 5 5 5t5 -5t-5 -5t-5 5zM350 660q0 5 5 5t5 -5t-5 -5t-5 5zM360 660q0 5 5 5t5 -5t-5 -5t-5 5zM370 660q0 5 5 5t5 -5t-5 -5t-5 5zM340 660q0 5 5 5t5 -5t-5 -5t-5 5zM340 650q0 5 5 5t5 -5t-5 -5t-5 5zM350 650q0 5 5 5t5 -5t-5 -5
t-5 5zM360 650q0 5 5 5t5 -5t-5 -5t-5 5zM330 650q0 5 5 5t5 -5t-5 -5t-5 5zM350 640q0 5 5 5t5 -5t-5 -5t-5 5zM330 640q0 5 5 5t5 -5t-5 -5t-5 5zM340 640q0 5 5 5t5 -5t-5 -5t-5 5zM350 630q0 5 5 5t5 -5t-5 -5t-5 5zM320 630q0 5 5 5t5 -5t-5 -5t-5 5zM330 630q0 5 5 5
t5 -5t-5 -5t-5 5zM340 630q0 5 5 5t5 -5t-5 -5t-5 5zM320 620q0 5 5 5t5 -5t-5 -5t-5 5zM330 620q0 5 5 5t5 -5t-5 -5t-5 5zM340 620q0 5 5 5t5 -5t-5 -5t-5 5zM310 610q0 5 5 5t5 -5t-5 -5t-5 5zM320 610q0 5 5 5t5 -5t-5 -5t-5 5zM330 610q0 5 5 5t5 -5t-5 -5t-5 5z
M340 610q0 5 5 5t5 -5t-5 -5t-5 5zM330 600q0 5 5 5t5 -5t-5 -5t-5 5zM300 600q0 5 5 5t5 -5t-5 -5t-5 5zM310 600q0 5 5 5t5 -5t-5 -5t-5 5zM320 600q0 5 5 5t5 -5t-5 -5t-5 5zM330 590q0 5 5 5t5 -5t-5 -5t-5 5zM300 590q0 5 5 5t5 -5t-5 -5t-5 5zM310 590q0 5 5 5t5 -5
t-5 -5t-5 5zM320 590q0 5 5 5t5 -5t-5 -5t-5 5zM290 580q0 5 5 5t5 -5t-5 -5t-5 5zM300 580q0 5 5 5t5 -5t-5 -5t-5 5zM310 580q0 5 5 5t5 -5t-5 -5t-5 5zM320 580q0 5 5 5t5 -5t-5 -5t-5 5zM290 570q0 5 5 5t5 -5t-5 -5t-5 5zM300 570q0 5 5 5t5 -5t-5 -5t-5 5zM310 570
q0 5 5 5t5 -5t-5 -5t-5 5zM290 560q0 5 5 5t5 -5t-5 -5t-5 5zM300 560q0 5 5 5t5 -5t-5 -5t-5 5zM310 560q0 5 5 5t5 -5t-5 -5t-5 5zM280 560q0 5 5 5t5 -5t-5 -5t-5 5zM290 550q0 5 5 5t5 -5t-5 -5t-5 5zM300 550q0 5 5 5t5 -5t-5 -5t-5 5zM280 550q0 5 5 5t5 -5t-5 -5
t-5 5zM290 540q0 5 5 5t5 -5t-5 -5t-5 5zM300 540q0 5 5 5t5 -5t-5 -5t-5 5zM280 540q0 5 5 5t5 -5t-5 -5t-5 5zM270 540q0 5 5 5t5 -5t-5 -5t-5 5zM280 530q0 5 5 5t5 -5t-5 -5t-5 5zM290 530q0 5 5 5t5 -5t-5 -5t-5 5zM270 530q0 5 5 5t5 -5t-5 -5t-5 5zM290 520q0 5 5 5
t5 -5t-5 -5t-5 5zM260 520q0 5 5 5t5 -5t-5 -5t-5 5zM270 520q0 5 5 5t5 -5t-5 -5t-5 5zM280 520q0 5 5 5t5 -5t-5 -5t-5 5zM280 510q0 5 5 5t5 -5t-5 -5t-5 5zM260 510q0 5 5 5t5 -5t-5 -5t-5 5zM270 510q0 5 5 5t5 -5t-5 -5t-5 5zM250 500q0 5 5 5t5 -5t-5 -5t-5 5z
M270 500q0 5 5 5t5 -5t-5 -5t-5 5zM280 500q0 5 5 5t5 -5t-5 -5t-5 5zM260 500q0 5 5 5t5 -5t-5 -5t-5 5zM250 490q0 5 5 5t5 -5t-5 -5t-5 5zM260 490q0 5 5 5t5 -5t-5 -5t-5 5zM270 490q0 5 5 5t5 -5t-5 -5t-5 5zM270 480q0 5 5 5t5 -5t-5 -5t-5 5zM240 480q0 5 5 5t5 -5
t-5 -5t-5 5zM250 480q0 5 5 5t5 -5t-5 -5t-5 5zM260 480q0 5 5 5t5 -5t-5 -5t-5 5zM460 470q0 5 5 5t5 -5t-5 -5t-5 5zM470 460q0 5 5 5t5 -5t-5 -5t-5 5zM460 460q0 5 5 5t5 -5t-5 -5t-5 5zM450 460q0 5 5 5t5 -5t-5 -5t-5 5zM470 450q0 5 5 5t5 -5t-5 -5t-5 5zM450 450
q0 5 5 5t5 -5t-5 -5t-5 5zM460 450q0 5 5 5t5 -5t-5 -5t-5 5zM450 440q0 5 5 5t5 -5t-5 -5t-5 5zM440 440q0 5 5 5t5 -5t-5 -5t-5 5zM480 440q0 5 5 5t5 -5t-5 -5t-5 5zM470 440q0 5 5 5t5 -5t-5 -5t-5 5zM460 440q0 5 5 5t5 -5t-5 -5t-5 5zM440 430q0 5 5 5t5 -5t-5 -5
t-5 5zM480 430q0 5 5 5t5 -5t-5 -5t-5 5zM470 430q0 5 5 5t5 -5t-5 -5t-5 5zM460 430q0 5 5 5t5 -5t-5 -5t-5 5zM450 430q0 5 5 5t5 -5t-5 -5t-5 5zM430 430q0 5 5 5t5 -5t-5 -5t-5 5zM460 420q0 5 5 5t5 -5t-5 -5t-5 5zM420 420q0 5 5 5t5 -5t-5 -5t-5 5zM430 420q0 5 5 5
t5 -5t-5 -5t-5 5zM440 420q0 5 5 5t5 -5t-5 -5t-5 5zM450 420q0 5 5 5t5 -5t-5 -5t-5 5zM470 420q0 5 5 5t5 -5t-5 -5t-5 5zM420 410q0 5 5 5t5 -5t-5 -5t-5 5zM410 410q0 5 5 5t5 -5t-5 -5t-5 5zM460 410q0 5 5 5t5 -5t-5 -5t-5 5zM450 410q0 5 5 5t5 -5t-5 -5t-5 5z
M440 410q0 5 5 5t5 -5t-5 -5t-5 5zM430 410q0 5 5 5t5 -5t-5 -5t-5 5zM420 400q0 5 5 5t5 -5t-5 -5t-5 5zM410 400q0 5 5 5t5 -5t-5 -5t-5 5zM400 400q0 5 5 5t5 -5t-5 -5t-5 5zM450 400q0 5 5 5t5 -5t-5 -5t-5 5zM440 400q0 5 5 5t5 -5t-5 -5t-5 5zM430 400q0 5 5 5t5 -5
t-5 -5t-5 5zM420 390q0 5 5 5t5 -5t-5 -5t-5 5zM430 390q0 5 5 5t5 -5t-5 -5t-5 5zM400 390q0 5 5 5t5 -5t-5 -5t-5 5zM390 390q0 5 5 5t5 -5t-5 -5t-5 5zM410 390q0 5 5 5t5 -5t-5 -5t-5 5zM440 390q0 5 5 5t5 -5t-5 -5t-5 5zM260 380q0 5 5 5t5 -5t-5 -5t-5 5zM250 380
q0 5 5 5t5 -5t-5 -5t-5 5zM240 380q0 5 5 5t5 -5t-5 -5t-5 5zM230 380q0 5 5 5t5 -5t-5 -5t-5 5zM220 380q0 5 5 5t5 -5t-5 -5t-5 5zM210 380q0 5 5 5t5 -5t-5 -5t-5 5zM200 380q0 5 5 5t5 -5t-5 -5t-5 5zM190 380q0 5 5 5t5 -5t-5 -5t-5 5zM420 380q0 5 5 5t5 -5t-5 -5
t-5 5zM410 380q0 5 5 5t5 -5t-5 -5t-5 5zM400 380q0 5 5 5t5 -5t-5 -5t-5 5zM390 380q0 5 5 5t5 -5t-5 -5t-5 5zM430 380q0 5 5 5t5 -5t-5 -5t-5 5zM270 380q0 5 5 5t5 -5t-5 -5t-5 5zM410 370q0 5 5 5t5 -5t-5 -5t-5 5zM90 370q0 5 5 5t5 -5t-5 -5t-5 5zM100 370q0 5 5 5
t5 -5t-5 -5t-5 5zM110 370q0 5 5 5t5 -5t-5 -5t-5 5zM120 370q0 5 5 5t5 -5t-5 -5t-5 5zM130 370q0 5 5 5t5 -5t-5 -5t-5 5zM140 370q0 5 5 5t5 -5t-5 -5t-5 5zM380 370q0 5 5 5t5 -5t-5 -5t-5 5zM390 370q0 5 5 5t5 -5t-5 -5t-5 5zM150 370q0 5 5 5t5 -5t-5 -5t-5 5z
M160 370q0 5 5 5t5 -5t-5 -5t-5 5zM170 370q0 5 5 5t5 -5t-5 -5t-5 5zM180 370q0 5 5 5t5 -5t-5 -5t-5 5zM190 370q0 5 5 5t5 -5t-5 -5t-5 5zM200 370q0 5 5 5t5 -5t-5 -5t-5 5zM400 370q0 5 5 5t5 -5t-5 -5t-5 5zM420 370q0 5 5 5t5 -5t-5 -5t-5 5zM210 370q0 5 5 5t5 -5
t-5 -5t-5 5zM220 370q0 5 5 5t5 -5t-5 -5t-5 5zM230 370q0 5 5 5t5 -5t-5 -5t-5 5zM240 370q0 5 5 5t5 -5t-5 -5t-5 5zM250 370q0 5 5 5t5 -5t-5 -5t-5 5zM260 370q0 5 5 5t5 -5t-5 -5t-5 5zM390 360q0 5 5 5t5 -5t-5 -5t-5 5zM410 360q0 5 5 5t5 -5t-5 -5t-5 5zM90 360
q0 5 5 5t5 -5t-5 -5t-5 5zM100 360q0 5 5 5t5 -5t-5 -5t-5 5zM110 360q0 5 5 5t5 -5t-5 -5t-5 5zM120 360q0 5 5 5t5 -5t-5 -5t-5 5zM400 360q0 5 5 5t5 -5t-5 -5t-5 5zM260 360q0 5 5 5t5 -5t-5 -5t-5 5zM250 360q0 5 5 5t5 -5t-5 -5t-5 5zM240 360q0 5 5 5t5 -5t-5 -5
t-5 5zM230 360q0 5 5 5t5 -5t-5 -5t-5 5zM220 360q0 5 5 5t5 -5t-5 -5t-5 5zM210 360q0 5 5 5t5 -5t-5 -5t-5 5zM130 360q0 5 5 5t5 -5t-5 -5t-5 5zM140 360q0 5 5 5t5 -5t-5 -5t-5 5zM150 360q0 5 5 5t5 -5t-5 -5t-5 5zM160 360q0 5 5 5t5 -5t-5 -5t-5 5zM170 360q0 5 5 5
t5 -5t-5 -5t-5 5zM180 360q0 5 5 5t5 -5t-5 -5t-5 5zM190 360q0 5 5 5t5 -5t-5 -5t-5 5zM380 360q0 5 5 5t5 -5t-5 -5t-5 5zM370 360q0 5 5 5t5 -5t-5 -5t-5 5zM200 360q0 5 5 5t5 -5t-5 -5t-5 5zM360 350q0 5 5 5t5 -5t-5 -5t-5 5zM180 350q0 5 5 5t5 -5t-5 -5t-5 5z
M170 350q0 5 5 5t5 -5t-5 -5t-5 5zM160 350q0 5 5 5t5 -5t-5 -5t-5 5zM150 350q0 5 5 5t5 -5t-5 -5t-5 5zM370 350q0 5 5 5t5 -5t-5 -5t-5 5zM410 350q0 5 5 5t5 -5t-5 -5t-5 5zM400 350q0 5 5 5t5 -5t-5 -5t-5 5zM140 350q0 5 5 5t5 -5t-5 -5t-5 5zM130 350q0 5 5 5t5 -5
t-5 -5t-5 5zM120 350q0 5 5 5t5 -5t-5 -5t-5 5zM110 350q0 5 5 5t5 -5t-5 -5t-5 5zM100 350q0 5 5 5t5 -5t-5 -5t-5 5zM390 350q0 5 5 5t5 -5t-5 -5t-5 5zM380 350q0 5 5 5t5 -5t-5 -5t-5 5zM400 340q0 5 5 5t5 -5t-5 -5t-5 5zM390 340q0 5 5 5t5 -5t-5 -5t-5 5zM380 340
q0 5 5 5t5 -5t-5 -5t-5 5zM370 340q0 5 5 5t5 -5t-5 -5t-5 5zM360 340q0 5 5 5t5 -5t-5 -5t-5 5zM350 340q0 5 5 5t5 -5t-5 -5t-5 5zM370 330q0 5 5 5t5 -5t-5 -5t-5 5zM380 330q0 5 5 5t5 -5t-5 -5t-5 5zM390 330q0 5 5 5t5 -5t-5 -5t-5 5zM360 330q0 5 5 5t5 -5t-5 -5
t-5 5zM350 330q0 5 5 5t5 -5t-5 -5t-5 5zM340 330q0 5 5 5t5 -5t-5 -5t-5 5zM360 320q0 5 5 5t5 -5t-5 -5t-5 5zM380 320q0 5 5 5t5 -5t-5 -5t-5 5zM370 320q0 5 5 5t5 -5t-5 -5t-5 5zM340 320q0 5 5 5t5 -5t-5 -5t-5 5zM350 320q0 5 5 5t5 -5t-5 -5t-5 5zM350 310q0 5 5 5
t5 -5t-5 -5t-5 5zM340 310q0 5 5 5t5 -5t-5 -5t-5 5zM330 310q0 5 5 5t5 -5t-5 -5t-5 5zM360 310q0 5 5 5t5 -5t-5 -5t-5 5zM370 310q0 5 5 5t5 -5t-5 -5t-5 5zM330 300q0 5 5 5t5 -5t-5 -5t-5 5zM320 300q0 5 5 5t5 -5t-5 -5t-5 5zM340 300q0 5 5 5t5 -5t-5 -5t-5 5z
M350 300q0 5 5 5t5 -5t-5 -5t-5 5zM360 300q0 5 5 5t5 -5t-5 -5t-5 5zM310 290q0 5 5 5t5 -5t-5 -5t-5 5zM320 290q0 5 5 5t5 -5t-5 -5t-5 5zM330 290q0 5 5 5t5 -5t-5 -5t-5 5zM340 290q0 5 5 5t5 -5t-5 -5t-5 5zM350 290q0 5 5 5t5 -5t-5 -5t-5 5zM330 280q0 5 5 5t5 -5
t-5 -5t-5 5zM300 280q0 5 5 5t5 -5t-5 -5t-5 5zM310 280q0 5 5 5t5 -5t-5 -5t-5 5zM320 280q0 5 5 5t5 -5t-5 -5t-5 5zM340 280q0 5 5 5t5 -5t-5 -5t-5 5zM310 270q0 5 5 5t5 -5t-5 -5t-5 5zM320 270q0 5 5 5t5 -5t-5 -5t-5 5zM330 270q0 5 5 5t5 -5t-5 -5t-5 5zM290 270
q0 5 5 5t5 -5t-5 -5t-5 5zM300 270q0 5 5 5t5 -5t-5 -5t-5 5zM310 260q0 5 5 5t5 -5t-5 -5t-5 5zM290 260q0 5 5 5t5 -5t-5 -5t-5 5zM300 260q0 5 5 5t5 -5t-5 -5t-5 5zM320 260q0 5 5 5t5 -5t-5 -5t-5 5zM310 250q0 5 5 5t5 -5t-5 -5t-5 5zM300 250q0 5 5 5t5 -5t-5 -5
t-5 5zM290 250q0 5 5 5t5 -5t-5 -5t-5 5zM280 250q0 5 5 5t5 -5t-5 -5t-5 5zM300 240q0 5 5 5t5 -5t-5 -5t-5 5zM290 240q0 5 5 5t5 -5t-5 -5t-5 5zM280 240q0 5 5 5t5 -5t-5 -5t-5 5zM270 240q0 5 5 5t5 -5t-5 -5t-5 5zM290 230q0 5 5 5t5 -5t-5 -5t-5 5zM280 230q0 5 5 5
t5 -5t-5 -5t-5 5zM270 230q0 5 5 5t5 -5t-5 -5t-5 5zM260 230q0 5 5 5t5 -5t-5 -5t-5 5zM280 220q0 5 5 5t5 -5t-5 -5t-5 5zM270 220q0 5 5 5t5 -5t-5 -5t-5 5zM260 220q0 5 5 5t5 -5t-5 -5t-5 5zM250 220q0 5 5 5t5 -5t-5 -5t-5 5zM280 210q0 5 5 5t5 -5t-5 -5t-5 5z
M270 210q0 5 5 5t5 -5t-5 -5t-5 5zM260 210q0 5 5 5t5 -5t-5 -5t-5 5zM250 210q0 5 5 5t5 -5t-5 -5t-5 5zM240 210q0 5 5 5t5 -5t-5 -5t-5 5zM270 200q0 5 5 5t5 -5t-5 -5t-5 5zM250 200q0 5 5 5t5 -5t-5 -5t-5 5zM230 200q0 5 5 5t5 -5t-5 -5t-5 5zM240 200q0 5 5 5t5 -5
t-5 -5t-5 5zM260 200q0 5 5 5t5 -5t-5 -5t-5 5zM250 190q0 5 5 5t5 -5t-5 -5t-5 5zM260 190q0 5 5 5t5 -5t-5 -5t-5 5zM230 190q0 5 5 5t5 -5t-5 -5t-5 5zM240 190q0 5 5 5t5 -5t-5 -5t-5 5zM250 180q0 5 5 5t5 -5t-5 -5t-5 5zM230 180q0 5 5 5t5 -5t-5 -5t-5 5zM240 180
q0 5 5 5t5 -5t-5 -5t-5 5zM220 180q0 5 5 5t5 -5t-5 -5t-5 5zM210 170q0 5 5 5t5 -5t-5 -5t-5 5zM240 170q0 5 5 5t5 -5t-5 -5t-5 5zM230 170q0 5 5 5t5 -5t-5 -5t-5 5zM220 170q0 5 5 5t5 -5t-5 -5t-5 5zM230 160q0 5 5 5t5 -5t-5 -5t-5 5zM220 160q0 5 5 5t5 -5t-5 -5
t-5 5zM210 160q0 5 5 5t5 -5t-5 -5t-5 5zM200 160q0 5 5 5t5 -5t-5 -5t-5 5zM220 150q0 5 5 5t5 -5t-5 -5t-5 5zM210 150q0 5 5 5t5 -5t-5 -5t-5 5zM200 150q0 5 5 5t5 -5t-5 -5t-5 5zM190 150q0 5 5 5t5 -5t-5 -5t-5 5zM190 140q0 5 5 5t5 -5t-5 -5t-5 5zM200 140q0 5 5 5
t5 -5t-5 -5t-5 5zM210 140q0 5 5 5t5 -5t-5 -5t-5 5zM180 140q0 5 5 5t5 -5t-5 -5t-5 5zM180 130q0 5 5 5t5 -5t-5 -5t-5 5zM190 130q0 5 5 5t5 -5t-5 -5t-5 5zM200 130q0 5 5 5t5 -5t-5 -5t-5 5zM170 120q0 5 5 5t5 -5t-5 -5t-5 5zM180 120q0 5 5 5t5 -5t-5 -5t-5 5z
M190 120q0 5 5 5t5 -5t-5 -5t-5 5zM160 110q0 5 5 5t5 -5t-5 -5t-5 5zM170 110q0 5 5 5t5 -5t-5 -5t-5 5zM180 110q0 5 5 5t5 -5t-5 -5t-5 5zM150 100q0 5 5 5t5 -5t-5 -5t-5 5zM160 100q0 5 5 5t5 -5t-5 -5t-5 5zM170 100q0 5 5 5t5 -5t-5 -5t-5 5zM160 90q0 5 5 5t5 -5
t-5 -5t-5 5zM150 90q0 5 5 5t5 -5t-5 -5t-5 5zM170 90q0 5 5 5t5 -5t-5 -5t-5 5zM140 90q0 5 5 5t5 -5t-5 -5t-5 5zM150 80q0 5 5 5t5 -5t-5 -5t-5 5zM160 80q0 5 5 5t5 -5t-5 -5t-5 5zM130 80q0 5 5 5t5 -5t-5 -5t-5 5zM140 80q0 5 5 5t5 -5t-5 -5t-5 5zM130 70q0 5 5 5
t5 -5t-5 -5t-5 5zM150 70q0 5 5 5t5 -5t-5 -5t-5 5zM140 70q0 5 5 5t5 -5t-5 -5t-5 5zM120 60q0 5 5 5t5 -5t-5 -5t-5 5zM130 60q0 5 5 5t5 -5t-5 -5t-5 5zM140 60q0 5 5 5t5 -5t-5 -5t-5 5zM110 50q0 5 5 5t5 -5t-5 -5t-5 5zM120 50q0 5 5 5t5 -5t-5 -5t-5 5zM130 50
q0 5 5 5t5 -5t-5 -5t-5 5zM100 40q0 5 5 5t5 -5t-5 -5t-5 5zM120 40q0 5 5 5t5 -5t-5 -5t-5 5zM110 40q0 5 5 5t5 -5t-5 -5t-5 5zM90 30q0 5 5 5t5 -5t-5 -5t-5 5zM100 30q0 5 5 5t5 -5t-5 -5t-5 5zM110 30q0 5 5 5t5 -5t-5 -5t-5 5zM90 20q0 5 5 5t5 -5t-5 -5t-5 5zM100 20
q0 5 5 5t5 -5t-5 -5t-5 5zM80 20q0 5 5 5t5 -5t-5 -5t-5 5zM70 10q0 5 5 5t5 -5t-5 -5t-5 5zM80 10q0 5 5 5t5 -5t-5 -5t-5 5zM90 10q0 5 5 5t5 -5t-5 -5t-5 5zM70 0q0 5 5 5t5 -5t-5 -5t-5 5zM80 0q0 5 5 5t5 -5t-5 -5t-5 5zM60 -10q0 5 5 5t5 -5t-5 -5t-5 5zM70 -10
q0 5 5 5t5 -5t-5 -5t-5 5zM60 -20q0 5 5 5t5 -5t-5 -5t-5 5z" />
    <glyph glyph-name="dot" 
d="M88 669q0 -36 -25.5 -61.5t-62.5 -25.5q-35 0 -61 25.5t-26 61.5t26 61.5t61 25.5q37 0 62.5 -25.5t25.5 -61.5z" />
    <glyph glyph-name="dotaccent.l" 
d="M75 0q0 -31 -22 -53t-53 -22t-53.5 22t-22.5 53q0 32 22 54t54 22q31 0 53 -22.5t22 -53.5z" />
    <glyph glyph-name="dotaccent.low" 
d="M75 -144q0 -31 -22 -53t-53 -22t-53.5 22t-22.5 53q0 32 22 54t54 22q31 0 53 -22.5t22 -53.5z" />
    <glyph glyph-name="caron.slovak" 
d="M-79 549l21 161h137l-65 -161h-93z" />
    <glyph glyph-name="commaaccent.top" 
d="M75 652q0 -31 -22 -53t-53 -22t-53 22t-22 53q0 26 15 48l72 115h60l-42 -94q19 -8 32 -26.5t13 -42.5z" />
    <glyph glyph-name="dieresis.i" 
d="M-20 652q0 -31 -22 -53t-53 -22t-53.5 22t-22.5 53q0 32 22.5 54t53.5 22t53 -22.5t22 -53.5zM170 652q0 -31 -22.5 -53t-53.5 -22t-53 22t-22 53t22 53.5t53 22.5q32 0 54 -22t22 -54z" />
    <glyph glyph-name="zero.slashed" horiz-adv-x="631" 
d="M580 270q0 -123 -74 -202t-190 -79q-117 0 -191 79t-74 202v172q0 122 74 201t191 79q116 0 190 -79t74 -201v-172zM188 442v-103l250 147q-10 48 -42.5 74.5t-79.5 26.5q-58 0 -93 -39t-35 -106zM443 270v102l-251 -146q11 -49 44 -75.5t80 -26.5q57 0 92 39t35 107z
" />
    <glyph glyph-name="one.pof" horiz-adv-x="343" 
d="M136 0v440h-130l97 120h170v-560h-137z" />
    <glyph glyph-name="two.pof" horiz-adv-x="501" 
d="M453 120v-120h-411v41q0 23 5 44.5t11.5 37.5t20.5 34t23 28.5t29.5 26.5t30 23t33.5 23.5t32 21.5q85 57 85 111q0 24 -16.5 41.5t-44.5 17.5q-33 0 -52 -20.5t-17 -48.5h-137q0 83 60 136t152 53q80 0 136 -46.5t56 -129.5q0 -69 -30.5 -113.5t-86.5 -84.5
q-82 -56 -95 -76h216z" />
    <glyph glyph-name="three.pof" horiz-adv-x="530" 
d="M487 110q0 -82 -61.5 -135t-156.5 -53q-93 0 -162.5 57.5t-73.5 156.5h135q5 -45 31.5 -69t67.5 -24q36 0 59 21.5t23 55.5q1 38 -23.5 61t-64.5 23h-54v100h46q34 0 56 20.5t23 52.5q1 33 -19 53t-51 20q-36 0 -58 -24.5t-23 -63.5h-137q0 94 67 151t158 57
q92 0 146.5 -52.5t54.5 -130.5q0 -42 -19 -78t-46 -57q34 -17 58 -54.5t24 -87.5z" />
    <glyph glyph-name="four.pof" horiz-adv-x="559" 
d="M312 -68v143h-296v99l309 386h124v-373h77v-112h-77v-143h-137zM312 187v175l-131 -175h131z" />
    <glyph glyph-name="five.pof" horiz-adv-x="510" 
d="M28 115h142q6 -32 29.5 -52t57.5 -20q39 0 60.5 26.5t21.5 69.5t-23 69.5t-59 26.5q-63 0 -92 -65l-118 33l71 357h310v-119h-205l-24 -117q36 22 87 22q82 0 136 -57.5t54 -149.5q0 -101 -58.5 -159t-160.5 -58q-91 0 -158 55t-71 138z" />
    <glyph glyph-name="six.pof" horiz-adv-x="527" 
d="M489 206q0 -93 -63 -155t-164 -62q-98 0 -162 60t-64 145q0 36 10 67t22 51t41 61l179 254h166l-153 -217q73 -6 130.5 -62t57.5 -142zM262 301q-40 0 -64 -27t-24 -70q0 -42 24.5 -69.5t63.5 -27.5q40 0 64.5 27t24.5 70t-24.5 70t-64.5 27z" />
    <glyph glyph-name="seven.pof" horiz-adv-x="484" 
d="M183 -68h-155l277 509h-275v119h436v-106z" />
    <glyph glyph-name="eight.pof" horiz-adv-x="549" 
d="M509 192q0 -87 -69.5 -145t-164.5 -58q-96 0 -165.5 58t-69.5 145q0 100 85 149q-59 49 -59 126q0 74 59 122t150 48q90 0 148.5 -48t58.5 -122q0 -77 -59 -126q86 -49 86 -149zM199 456q0 -31 21 -51.5t55 -20.5q33 0 53.5 21t20.5 51q0 31 -21 52t-53 21q-34 0 -55 -21
t-21 -52zM181 194q0 -39 26 -65.5t68 -26.5q40 0 66 26.5t26 65.5t-26 66t-66 27q-42 0 -68 -26.5t-26 -66.5z" />
    <glyph glyph-name="nine.pof" horiz-adv-x="526" 
d="M38 353q0 93 63 155t163 62q99 0 163 -60t64 -145q0 -36 -10 -67t-22 -51t-41 -61l-180 -254h-165l152 217q-73 6 -130 62.5t-57 141.5zM264 258q40 0 64.5 27t24.5 70t-24.5 70t-64.5 27q-39 0 -63.5 -27.5t-24.5 -69.5q0 -43 24 -70t64 -27z" />
    <glyph glyph-name="zero.pof" horiz-adv-x="547" 
d="M498 216q0 -98 -63 -161.5t-162 -63.5t-161.5 63.5t-62.5 161.5v129q0 98 62.5 161.5t161.5 63.5t162 -63.5t63 -161.5v-129zM186 216q0 -49 24 -77t63 -28q40 0 64 28t24 77v129q0 48 -24 76t-64 28q-39 0 -63 -28t-24 -76v-129z" />
    <glyph glyph-name="zero.slashed.pof" horiz-adv-x="547" 
d="M498 216q0 -98 -63 -161.5t-162 -63.5t-161.5 63.5t-62.5 161.5v129q0 98 62.5 161.5t161.5 63.5t162 -63.5t63 -161.5v-129zM186 345v-58l169 99q-17 63 -82 63q-39 0 -63 -28t-24 -76zM361 216v58l-170 -99q19 -64 82 -64q40 0 64 28t24 77z" />
    <glyph glyph-name="one.tlf" horiz-adv-x="590" 
d="M60 0v128h174v447h-147l100 135h184v-582h174v-128h-485z" />
    <glyph glyph-name="two.tlf" horiz-adv-x="590" 
d="M533 135v-135h-484v47q0 29 6 56t14.5 47.5t25.5 42.5t29 36t36.5 34t37.5 29.5t41 29t39 27.5q54 39 83 72.5t29 73.5t-25 66t-69 26q-47 0 -77.5 -28.5t-29.5 -71.5h-138q0 103 70.5 169t177.5 66q96 0 162 -57.5t66 -161.5q0 -85 -36.5 -139.5t-113.5 -110.5
q-7 -5 -46.5 -31.5t-61 -46t-30.5 -40.5h294z" />
    <glyph glyph-name="three.tlf" horiz-adv-x="590" 
d="M546 202q0 -94 -68 -153.5t-178 -59.5q-107 0 -183.5 64.5t-80.5 176.5h136q5 -51 39.5 -78.5t88.5 -27.5q47 0 77 24.5t31 64.5q0 44 -31.5 69.5t-84.5 25.5h-60v112h54q48 0 74.5 23t27.5 62q1 36 -25.5 59t-66.5 23q-48 0 -79 -28.5t-30 -71.5h-138q0 106 74 170.5
t173 64.5q106 0 168 -59t62 -147q0 -49 -23 -89.5t-56 -63.5q43 -20 71 -62t28 -99z" />
    <glyph glyph-name="four.tlf" horiz-adv-x="590" 
d="M356 0v162h-353v111l368 437h122v-422h93v-126h-93v-162h-137zM356 288v219l-184 -219h184z" />
    <glyph glyph-name="five.tlf" horiz-adv-x="590" 
d="M40 206h142q9 -36 40 -59t71 -23q51 0 81 31.5t30 78.5t-31 78.5t-78 31.5q-40 0 -69.5 -20.5t-41.5 -53.5l-121 37l80 403h346v-133h-240l-26 -132q39 23 97 23q100 0 160.5 -68.5t60.5 -176.5q0 -106 -68 -170t-180 -64q-100 0 -174.5 62t-78.5 155z" />
    <glyph glyph-name="six.tlf" horiz-adv-x="590" 
d="M540 233q0 -106 -68 -175.5t-180 -69.5q-111 0 -179 69.5t-68 175.5q0 50 18 87.5t64 101.5l212 287h169l-183 -249q84 -2 149.5 -64.5t65.5 -162.5zM183 231q0 -47 31 -79t78 -32q48 0 79 32t31 79q0 46 -31.5 79t-78.5 33t-78 -32.5t-31 -79.5z" />
    <glyph glyph-name="seven.tlf" horiz-adv-x="590" 
d="M220 0h-155l321 577h-332v133h495v-118z" />
    <glyph glyph-name="eight.tlf" horiz-adv-x="590" 
d="M547 218q0 -100 -72 -164.5t-180 -64.5t-180 64.5t-72 164.5q0 115 91 171q-61 53 -61 141q0 83 61.5 137.5t160.5 54.5t160.5 -54.5t61.5 -137.5q0 -86 -61 -141q91 -53 91 -171zM206 518q0 -35 25.5 -58.5t63.5 -23.5t63.5 23.5t25.5 58.5t-25.5 58.5t-63.5 23.5
t-63.5 -23.5t-25.5 -58.5zM184 221q0 -43 30.5 -74t80.5 -31t80.5 31t30.5 74t-30.5 74t-80.5 31t-80.5 -31t-30.5 -74z" />
    <glyph glyph-name="nine.tlf" horiz-adv-x="590" 
d="M80 0l184 250q-84 2 -149.5 64.5t-65.5 162.5q0 106 68.5 175.5t179.5 69.5t179.5 -69.5t68.5 -175.5q0 -49 -18 -86.5t-65 -102.5l-212 -288h-170zM187 479q0 -46 31.5 -79t78.5 -33t78.5 33t31.5 79q0 47 -31 79t-79 32q-47 0 -78.5 -32t-31.5 -79z" />
    <glyph glyph-name="zero.tlf" horiz-adv-x="590" 
d="M559 270q0 -123 -74 -202t-190 -79q-117 0 -191 79t-74 202v172q0 122 74 201t191 79q116 0 190 -79t74 -201v-172zM167 270q0 -68 35 -107t93 -39q57 0 92 39t35 107v172q0 67 -35 106t-92 39q-58 0 -93 -39t-35 -106v-172z" />
    <glyph glyph-name="zero.slashed.tlf" horiz-adv-x="590" 
d="M559 270q0 -123 -74 -202t-190 -79q-117 0 -191 79t-74 202v172q0 122 74 201t191 79q116 0 190 -79t74 -201v-172zM167 442v-103l250 147q-10 48 -42.5 74.5t-79.5 26.5q-58 0 -93 -39t-35 -106zM422 270v102l-251 -146q11 -49 44 -75.5t80 -26.5q57 0 92 39t35 107z
" />
    <glyph glyph-name="zero.slashed.superior" horiz-adv-x="389" 
d="M359 577q0 -76 -46 -125t-118 -49q-73 0 -119 49t-46 125v98q0 76 46 125t119 49q72 0 118 -49t46 -125v-98zM127 675v-47l132 74q-14 51 -64 51q-30 0 -49 -21t-19 -57zM262 577v48l-132 -73q6 -25 23.5 -39t41.5 -14q30 0 48.5 21t18.5 57z" />
    <glyph glyph-name="zero.slashed.inferior" horiz-adv-x="389" 
d="M359 52q0 -76 -46 -125t-118 -49q-73 0 -119 49t-46 125v98q0 76 46 125t119 49q72 0 118 -49t46 -125v-98zM127 150v-47l132 74q-14 51 -64 51q-30 0 -49 -21t-19 -57zM262 52v48l-132 -73q6 -25 23.5 -39t41.5 -14q30 0 48.5 21t18.5 57z" />
    <glyph glyph-name="one.numr" horiz-adv-x="243" 
d="M100 278v336h-95l68 96h124v-432h-97z" />
    <glyph glyph-name="two.numr" horiz-adv-x="355" 
d="M325 374v-96h-300v32q0 33 9.5 60t31 49t38 35t46.5 33q8 5 12 8q63 41 63 82q0 19 -12 31.5t-34 12.5q-25 0 -40 -15t-14 -35h-98q0 63 44.5 104.5t110.5 41.5q59 0 100 -36t41 -100q0 -55 -23 -90t-64 -63q-64 -41 -72 -54h161z" />
    <glyph glyph-name="three.numr" horiz-adv-x="364" 
d="M338 402q0 -57 -42.5 -94t-110.5 -37q-65 0 -113 39.5t-51 111.5h97q6 -55 67 -55q25 0 40.5 12.5t15.5 32.5q0 21 -16.5 34t-43.5 13h-39v77h33q53 0 53 44q0 18 -13 29.5t-33 11.5q-24 0 -39.5 -15t-15.5 -35h-97q0 66 46.5 106t106.5 40q68 0 105.5 -37t37.5 -91
q0 -58 -43 -93q23 -11 39 -35.5t16 -58.5z" />
    <glyph glyph-name="four.numr" horiz-adv-x="395" 
d="M223 278v90h-208v79l218 263h88v-253h55v-89h-55v-90h-98zM223 457v109l-90 -109h90z" />
    <glyph glyph-name="five.numr" horiz-adv-x="350" 
d="M19 407h100q5 -18 21 -29t38 -11q23 0 38.5 16t15.5 40q0 23 -16 38.5t-39 15.5q-46 0 -58 -45l-87 26l47 252h217v-95h-141l-12 -61q22 11 53 11q61 0 97 -41.5t36 -106.5q0 -64 -41 -105t-107 -41q-65 0 -112 38t-50 98z" />
    <glyph glyph-name="six.numr" horiz-adv-x="339" 
d="M320 422q0 -65 -41 -108t-111 -43q-69 0 -111 42t-42 102q0 35 10.5 58t40.5 67l115 170h119l-102 -151q48 -4 85 -40.5t37 -96.5zM112 421q0 -24 15.5 -40t40.5 -16q23 0 38.5 16.5t15.5 39.5t-15.5 39.5t-38.5 16.5q-25 0 -40.5 -16t-15.5 -40z" />
    <glyph glyph-name="seven.numr" horiz-adv-x="346" 
d="M138 278h-111l193 337h-194v95h309v-85z" />
    <glyph glyph-name="eight.numr" horiz-adv-x="363" 
d="M339 410q0 -59 -45.5 -99t-111.5 -40q-67 0 -112 39.5t-45 99.5q0 65 53 101q-35 34 -35 88q0 48 38.5 83t100.5 35t99.5 -34.5t37.5 -83.5q0 -53 -34 -88q54 -35 54 -101zM135 588q0 -19 13.5 -31.5t33.5 -12.5q19 0 33 12.5t14 31.5q0 18 -14 31t-33 13
q-20 0 -33.5 -12.5t-13.5 -31.5zM125 415q0 -22 15.5 -38.5t41.5 -16.5q25 0 40.5 16.5t15.5 38.5q0 21 -15.5 37t-40.5 16q-26 0 -41.5 -16t-15.5 -37z" />
    <glyph glyph-name="nine.numr" horiz-adv-x="339" 
d="M39 278l102 151q-48 4 -85 40.5t-37 96.5q0 66 41.5 108.5t111.5 42.5q69 0 110.5 -42t41.5 -102q0 -35 -10.5 -58t-40.5 -67l-115 -170h-119zM117 567q0 -23 15.5 -39.5t39.5 -16.5t39.5 16.5t15.5 39.5q0 24 -15.5 40t-39.5 16t-39.5 -16t-15.5 -40z" />
    <glyph glyph-name="zero.numr" horiz-adv-x="389" 
d="M359 445q0 -76 -46 -125t-118 -49q-73 0 -119 49t-46 125v98q0 76 46 125t119 49q72 0 118 -49t46 -125v-98zM127 445q0 -36 19 -57t49 -21t48.5 21t18.5 57v98q0 36 -18.5 57t-48.5 21t-49 -21t-19 -57v-98z" />
    <glyph glyph-name="zero.slashed.numr" horiz-adv-x="389" 
d="M359 445q0 -76 -46 -125t-118 -49q-73 0 -119 49t-46 125v98q0 76 46 125t119 49q72 0 118 -49t46 -125v-98zM127 543v-47l132 74q-14 51 -64 51q-30 0 -49 -21t-19 -57zM262 445v48l-132 -73q6 -25 23.5 -39t41.5 -14q30 0 48.5 21t18.5 57z" />
    <glyph glyph-name="one.dnom" horiz-adv-x="243" 
d="M100 0v336h-95l68 96h124v-432h-97z" />
    <glyph glyph-name="two.dnom" horiz-adv-x="355" 
d="M325 96v-96h-300v32q0 33 9.5 60t31 49t38 35t46.5 33q8 5 12 8q63 41 63 82q0 19 -12 31.5t-34 12.5q-25 0 -40 -15t-14 -35h-98q0 63 44.5 104.5t110.5 41.5q59 0 100 -36t41 -100q0 -55 -23 -90t-64 -63q-64 -41 -72 -54h161z" />
    <glyph glyph-name="three.dnom" horiz-adv-x="364" 
d="M338 124q0 -57 -42.5 -94t-110.5 -37q-65 0 -113 39.5t-51 111.5h97q6 -55 67 -55q25 0 40.5 12.5t15.5 32.5q0 21 -16.5 34t-43.5 13h-39v77h33q53 0 53 44q0 18 -13 29.5t-33 11.5q-24 0 -39.5 -15t-15.5 -35h-97q0 66 46.5 106t106.5 40q68 0 105.5 -37t37.5 -91
q0 -58 -43 -93q23 -11 39 -35.5t16 -58.5z" />
    <glyph glyph-name="four.dnom" horiz-adv-x="395" 
d="M223 0v90h-208v79l218 263h88v-253h55v-89h-55v-90h-98zM223 179v109l-90 -109h90z" />
    <glyph glyph-name="five.dnom" horiz-adv-x="350" 
d="M18 129h100q5 -18 21 -29t38 -11q23 0 38.5 16t15.5 40q0 23 -16 38.5t-39 15.5q-46 0 -58 -45l-87 26l47 252h217v-95h-141l-12 -61q22 11 53 11q61 0 97 -41.5t36 -106.5q0 -64 -41 -105t-107 -41q-65 0 -112 38t-50 98z" />
    <glyph glyph-name="six.dnom" horiz-adv-x="339" 
d="M320 144q0 -65 -41 -108t-111 -43q-69 0 -111 42t-42 102q0 35 10.5 58t40.5 67l115 170h119l-102 -151q48 -4 85 -40.5t37 -96.5zM112 143q0 -24 15.5 -40t40.5 -16q23 0 38.5 16.5t15.5 39.5t-15.5 39.5t-38.5 16.5q-25 0 -40.5 -16t-15.5 -40z" />
    <glyph glyph-name="seven.dnom" horiz-adv-x="346" 
d="M138 0h-111l193 337h-194v95h309v-85z" />
    <glyph glyph-name="eight.dnom" horiz-adv-x="363" 
d="M339 132q0 -59 -45.5 -99t-111.5 -40q-67 0 -112 39.5t-45 99.5q0 65 53 101q-35 34 -35 88q0 48 38.5 83t100.5 35t99.5 -34.5t37.5 -83.5q0 -53 -34 -88q54 -35 54 -101zM135 310q0 -19 13.5 -31.5t33.5 -12.5q19 0 33 12.5t14 31.5q0 18 -14 31t-33 13
q-20 0 -33.5 -12.5t-13.5 -31.5zM125 137q0 -22 15.5 -38.5t41.5 -16.5q25 0 40.5 16.5t15.5 38.5q0 21 -15.5 37t-40.5 16q-26 0 -41.5 -16t-15.5 -37z" />
    <glyph glyph-name="nine.dnom" horiz-adv-x="339" 
d="M39 0l102 151q-48 4 -85 40.5t-37 96.5q0 66 41.5 108.5t111.5 42.5q69 0 110.5 -42t41.5 -102q0 -35 -10.5 -58t-40.5 -67l-115 -170h-119zM117 289q0 -23 15.5 -39.5t39.5 -16.5t39.5 16.5t15.5 39.5q0 24 -15.5 40t-39.5 16t-39.5 -16t-15.5 -40z" />
    <glyph glyph-name="zero.dnom" horiz-adv-x="389" 
d="M359 167q0 -76 -46 -125t-118 -49q-73 0 -119 49t-46 125v98q0 76 46 125t119 49q72 0 118 -49t46 -125v-98zM127 167q0 -36 19 -57t49 -21t48.5 21t18.5 57v98q0 36 -18.5 57t-48.5 21t-49 -21t-19 -57v-98z" />
    <glyph glyph-name="zero.slashed.dnom" horiz-adv-x="389" 
d="M359 167q0 -76 -46 -125t-118 -49q-73 0 -119 49t-46 125v98q0 76 46 125t119 49q72 0 118 -49t46 -125v-98zM127 265v-47l132 74q-14 51 -64 51q-30 0 -49 -21t-19 -57zM262 167v48l-132 -73q6 -25 23.5 -39t41.5 -14q30 0 48.5 21t18.5 57z" />
    <glyph glyph-name="hyphen.case" horiz-adv-x="406" 
d="M60 289v132h286v-132h-286z" />
    <glyph glyph-name="uni00AD.case" horiz-adv-x="406" 
d="M60 289v132h286v-132h-286z" />
    <glyph glyph-name="endash.case" horiz-adv-x="593" 
d="M60 289v132h473v-132h-473z" />
    <glyph glyph-name="emdash.case" horiz-adv-x="887" 
d="M60 289v132h767v-132h-767z" />
    <glyph glyph-name="questiondown.case" horiz-adv-x="519" 
d="M385 622q0 -41 -29 -70.5t-71 -29.5q-41 0 -70.5 29.5t-29.5 70.5t29.5 70.5t70.5 29.5q42 0 71 -29.5t29 -70.5zM353 453v-19q0 -73 -86 -134q-6 -4 -22 -14.5t-22.5 -15t-17.5 -14t-15 -16.5t-8 -18t-4 -23q0 -35 23.5 -55.5t59.5 -20.5q39 0 66 24t27 66h137
q0 -93 -67 -159t-163 -66t-158 60.5t-62 142.5q0 57 20.5 98t69.5 77q9 7 27 20t25 18.5t16.5 14.5t13 16t3.5 15v3h137z" />
    <glyph glyph-name="exclamdown.case" horiz-adv-x="297" 
d="M248 622q0 -41 -29 -70.5t-71 -29.5q-41 0 -70.5 29.5t-29.5 70.5t29.5 70.5t70.5 29.5q42 0 71 -29.5t29 -70.5zM190 453l27 -185v-268h-138v268l27 185h84z" />
    <glyph glyph-name="guilsinglleft.case" horiz-adv-x="348" 
d="M36 355l141 217h118l-116 -217l116 -217h-118z" />
    <glyph glyph-name="guilsinglright.case" horiz-adv-x="348" 
d="M312 355l-141 -217h-118l116 217l-116 217h118z" />
    <glyph glyph-name="guillemotleft.case" horiz-adv-x="551" 
d="M239 355l141 217h118l-116 -217l116 -217h-118zM36 355l141 217h118l-116 -217l116 -217h-118z" />
    <glyph glyph-name="guillemotright.case" horiz-adv-x="551" 
d="M515 355l-141 -217h-118l116 217l-116 217h118zM312 355l-141 -217h-118l116 217l-116 217h118z" />
    <glyph glyph-name="parenleft.case" horiz-adv-x="301" 
d="M279 -125h-109q-128 232 -128 480t128 480h109q-121 -235 -121 -480t121 -480z" />
    <glyph glyph-name="parenright.case" horiz-adv-x="301" 
d="M22 -125q121 235 121 480t-121 480h109q128 -232 128 -480t-128 -480h-109z" />
    <glyph glyph-name="bracketleft.case" horiz-adv-x="334" 
d="M79 -125v960h221v-100h-105v-760h105v-100h-221z" />
    <glyph glyph-name="bracketright.case" horiz-adv-x="334" 
d="M255 -125h-221v100h105v760h-105v100h221v-960z" />
    <glyph glyph-name="braceleft.case" horiz-adv-x="348" 
d="M315 -125h-82q-66 0 -103 38t-37 104v229q0 59 -54 59h-9v100h9q54 0 54 57v231q0 66 37 104t103 38h82v-100h-48q-32 0 -44.5 -14t-12.5 -47v-218q0 -83 -61 -101q61 -18 61 -103v-216q0 -33 12.5 -47t44.5 -14h48v-100z" />
    <glyph glyph-name="braceright.case" horiz-adv-x="348" 
d="M33 -125v100h48q32 0 44.5 14t12.5 47v216q0 85 61 103q-61 18 -61 101v218q0 33 -12.5 47t-44.5 14h-48v100h82q66 0 103 -38t37 -104v-231q0 -57 54 -57h9v-100h-9q-54 0 -54 -59v-229q0 -66 -37 -104t-103 -38h-82z" />
    <glyph glyph-name="bar.case" horiz-adv-x="274" 
d="M79 -55v820h116v-820h-116z" />
    <glyph glyph-name="brokenbar.case" horiz-adv-x="274" 
d="M79 418v347h116v-347h-116zM79 -55v347h116v-347h-116z" />
    <glyph glyph-name="periodcentered.case" horiz-adv-x="296" 
d="M247 355q0 -41 -29 -70.5t-71 -29.5q-41 0 -70.5 29.5t-29.5 70.5t29.5 70.5t70.5 29.5q42 0 71 -29.5t29 -70.5z" />
    <glyph glyph-name="plus.case" horiz-adv-x="498" 
d="M39 295v119h151v151h119v-151h150v-119h-150v-151h-119v151h-151z" />
    <glyph glyph-name="minus.case" horiz-adv-x="543" 
d="M61 295v119h421v-119h-421z" />
    <glyph glyph-name="multiply.case" horiz-adv-x="517" 
d="M131 144l-84 84l127 127l-127 127l84 84l127 -126l128 126l83 -84l-126 -127l126 -127l-83 -84l-128 126z" />
    <glyph glyph-name="equal.case" horiz-adv-x="541" 
d="M60 400v119h421v-119h-421zM60 190v118h421v-118h-421z" />
    <glyph glyph-name="less.case" horiz-adv-x="496" 
d="M457 608l-254 -253l254 -253h-171l-253 253l253 253h171z" />
    <glyph glyph-name="greater.case" horiz-adv-x="496" 
d="M463 355l-253 -253h-171l254 253l-254 253h171z" />
    <glyph glyph-name="acute.case" 
d="M-113 770l72 157h154l-123 -157h-103z" />
    <glyph glyph-name="breve.case" 
d="M-174 925h80q0 -45 27 -70t67 -25t67 25t27 70h80q0 -78 -50 -126.5t-124 -48.5t-124 48.5t-50 126.5z" />
    <glyph glyph-name="caron.case" 
d="M0 763l-174 72v110l174 -73l174 73v-110z" />
    <glyph glyph-name="cedilla.case" 
d="M-118 -141q30 -17 76 -17q62 0 62 33q0 28 -44 28q-22 0 -41 -10l-35 19l55 91h62l-31 -51q28 7 47 7q37 0 61 -21t24 -58q0 -43 -41 -71t-95 -28q-62 0 -100 15v63z" />
    <glyph glyph-name="circumflex.case" 
d="M-174 763v109l174 73l174 -73v-109l-174 72z" />
    <glyph glyph-name="dieresis.case" 
d="M-42 847q0 -31 -22 -53t-53 -22t-53.5 22t-22.5 53t22.5 53.5t53.5 22.5t53 -22.5t22 -53.5zM193 847q0 -31 -22 -53t-53 -22t-53.5 22t-22.5 53t22 53.5t54 22.5q31 0 53 -22.5t22 -53.5z" />
    <glyph glyph-name="dotaccent.case" 
d="M75 847q0 -31 -22 -53t-53 -22t-53.5 22t-22.5 53t22 53.5t54 22.5q31 0 53 -22.5t22 -53.5z" />
    <glyph glyph-name="dotaccent.L.case" 
d="M75 0q0 -31 -22 -53t-53 -22t-53.5 22t-22.5 53q0 32 22 54t54 22q31 0 53 -22.5t22 -53.5z" />
    <glyph glyph-name="dotaccent.low.case" 
d="M75 -144q0 -31 -22 -53t-53 -22t-53.5 22t-22.5 53q0 32 22 54t54 22q31 0 53 -22.5t22 -53.5z" />
    <glyph glyph-name="commaaccent.case" 
d="M-72 -306l42 94q-19 8 -32 26.5t-13 42.5q0 31 22 53t53 22t53 -22t22 -53q0 -27 -15 -48l-72 -115h-60z" />
    <glyph glyph-name="grave.case" 
d="M113 770h-103l-123 157h154z" />
    <glyph glyph-name="hungarumlaut.case" 
d="M-14 770l66 157h144l-123 -157h-87zM-196 770l66 157h144l-123 -157h-87z" />
    <glyph glyph-name="macron.case" 
d="M-171 791v96h342v-96h-342z" />
    <glyph glyph-name="ogonek.case" 
d="M106 -191q-37 -28 -102 -28q-50 0 -80.5 28t-30.5 72q0 67 68 119h145q-40 -18 -63 -41.5t-23 -46.5q0 -26 36 -26q30 0 50 16v-93z" />
    <glyph glyph-name="ring.case" 
d="M123 873q0 -49 -36 -84.5t-86 -35.5t-86 35.5t-36 84.5t36 84.5t86 35.5t86 -35.5t36 -84.5zM-58 873q0 -24 17 -41t42 -17t42 17t17 41t-17 41t-42 17t-42 -17t-17 -41z" />
    <glyph glyph-name="tilde.case" 
d="M-189 778l4 26q8 52 41.5 82t76.5 30q34 0 77 -23t55 -23q18 0 27.5 11.5t16.5 35.5h79l-4 -26q-8 -52 -41.5 -82t-76.5 -30q-34 0 -77 23t-55 23q-18 0 -27.5 -11.5t-16.5 -35.5h-79z" />
    <glyph glyph-name="uni0414.loclBGR" horiz-adv-x="754" 
d="M20 -148v286h72l220 572h130l220 -572h73v-286h-132v148h-452v-148h-131zM242 138h270l-135 360z" />
    <glyph glyph-name="uni041B.loclBGR" horiz-adv-x="743" 
d="M1 0l306 710h129l307 -710h-152l-220 511l-220 -511h-150z" />
    <glyph glyph-name="uni043B.loclBGR" horiz-adv-x="570" 
d="M222 500h125l222 -500h-153l-132 320l-132 -320h-151z" />
    </font>
</defs>
</svg>
