<svg id="Layer_1" data-name="Layer 1" xmlns="http://www.w3.org/2000/svg" xmlns:xlink="http://www.w3.org/1999/xlink" viewBox="0 0 119.54 22.28"><defs><clipPath id="clip-path" transform="translate(0 0)"><rect width="119.54" height="22.28" style="fill:none"/></clipPath></defs><title>logo-2018</title><g style="clip-path:url(#clip-path)"><path d="M86.47,11c0-4.87,3.23-8.27,7.86-8.27,5,0,8.35,3.27,8.35,8.12,0,5.08-3.16,8.35-8.06,8.35S86.47,16,86.47,11m20.28,8.32h-4.87a11.07,11.07,0,0,0,3.53-8.47C105.41,4.46,100.85,0,94.33,0,88.2,0,83.74,4.62,83.74,11s4.47,10.93,10.88,10.93h12.13Z" transform="translate(0 0)" style="fill:#414141"/><path d="M11.66,10.79a6.09,6.09,0,0,1,1.81.54,5.13,5.13,0,0,1,1.5,1,4,4,0,0,1,1,1.42,5,5,0,0,1,.33,1.87A6,6,0,0,1,16,17.16a5.48,5.48,0,0,1-.82,1.59,6.52,6.52,0,0,1-1.49,1.41,8,8,0,0,1-2.28,1.06,12.12,12.12,0,0,1-2.32.43A30.09,30.09,0,0,1,6,21.77l-6,0L.07.5,5.9.52c.53,0,1,0,1.46,0s.83,0,1.2.08.71.07,1,.12.61.1.89.17a8.83,8.83,0,0,1,2,.74A6,6,0,0,1,14,2.79a4.84,4.84,0,0,1,1,1.48,4.6,4.6,0,0,1,.33,1.79,5.71,5.71,0,0,1-.2,1.5,4.15,4.15,0,0,1-.66,1.31A4.7,4.7,0,0,1,13.25,10a5.89,5.89,0,0,1-1.59.78ZM7.29,9.62q.85,0,1.47-.06a7.85,7.85,0,0,0,1.11-.21,3.68,3.68,0,0,0,2-1.31,2.76,2.76,0,0,0,.6-1.81,2.76,2.76,0,0,0-.64-1.89,3.76,3.76,0,0,0-2-1,8.82,8.82,0,0,0-1.55-.25C7.66,3,7,3,6.17,3H2.94l0,6.65ZM2.91,12.15l0,7.18H6.36c.82,0,1.59,0,2.3-.09A9.29,9.29,0,0,0,10.41,19a5.54,5.54,0,0,0,1.43-.6,3.36,3.36,0,0,0,.91-.78,2.91,2.91,0,0,0,.49-1,3.57,3.57,0,0,0,.16-1,3.77,3.77,0,0,0-.16-1.13,2.24,2.24,0,0,0-.51-.9,3.29,3.29,0,0,0-1-.69,5.38,5.38,0,0,0-1.47-.49,9,9,0,0,0-1.21-.17c-.45,0-1-.05-1.68-.05Z" transform="translate(0 0)" style="fill:#414141"/></g><rect x="110.3" y="1.03" width="2.88" height="21.25" style="fill:#414141"/><polygon points="21.23 0.53 21.23 18.88 21.23 21.76 21.23 21.78 24.1 21.78 24.1 21.76 36.92 21.76 36.92 19.1 24.1 19.1 24.1 0.53 21.23 0.53" style="fill:#414141"/><polygon points="62.71 0.53 59.87 0.53 59.87 21.78 62.74 21.78 62.74 5 76.14 21.78 76.18 21.75 76.18 21.78 79.06 21.78 79.06 0.53 76.18 0.53 76.18 17.38 62.74 0.55 62.74 0.53 62.73 0.53 62.72 0.52 62.71 0.53" style="fill:#414141"/><path d="M45.56,4.78,49.35,13l-7.55,0ZM44.34.53,34.67,21.77l3.18,0,2.74-6,10,0,2.71,6,3.17,0L46.79.53Z" transform="translate(0 0)" style="fill:#414141"/><g style="clip-path:url(#clip-path)"><circle cx="117.13" cy="2.83" r="2.3" style="fill:none;stroke:#414141;stroke-width:0.20200000703334808px"/><path d="M116.63,2.78V2h.63c.32,0,.51.14.51.4h0c0,.25-.2.41-.51.41ZM116.2,4h.43V3.16h.54l.61.86h.51l-.67-.93a.73.73,0,0,0,.59-.74h0a.73.73,0,0,0-.21-.53,1,1,0,0,0-.71-.25H116.2Z" transform="translate(0 0)" style="fill:#414141"/></g></svg>