<?xml version="1.0" encoding="utf-8"?>
<!-- Generator: Adobe Illustrator 19.2.1, SVG Export Plug-In . SVG Version: 6.00 Build 0)  -->
<svg version="1.1" id="Layer_1" xmlns="http://www.w3.org/2000/svg" xmlns:xlink="http://www.w3.org/1999/xlink" x="0px" y="0px"
	 viewBox="0 0 369.7 273" style="enable-background:new 0 0 369.7 273;" xml:space="preserve">
<style type="text/css">
	.st0{clip-path:url(#SVGID_2_);fill:none;stroke:#000000;stroke-width:2.919;stroke-miterlimit:10;}
	.st1{fill:none;stroke:#000000;stroke-width:2.919;stroke-miterlimit:10;}
	.st2{fill:none;stroke:#000000;stroke-width:0.365;stroke-miterlimit:10;}
</style>
<g>
	<g>
		<g>
			<g>
				<g>
					<defs>
						<rect id="SVGID_1_" x="4.3" y="-81.1" width="600" height="274.9"/>
					</defs>
					<clipPath id="SVGID_2_">
						<use xlink:href="#SVGID_1_"  style="overflow:visible;"/>
					</clipPath>
					<line class="st0" x1="4.3" y1="11.9" x2="124" y2="11.9"/>
				</g>
			</g>
		</g>
	</g>
</g>
<line class="st1" x1="124" y1="11.9" x2="238.3" y2="11.9"/>
<line class="st1" x1="238.3" y1="11.9" x2="357.7" y2="11.9"/>
<line class="st2" x1="124" y1="74.5" x2="124" y2="13.4"/>
<line class="st2" x1="238.3" y1="74.5" x2="238.3" y2="13.4"/>
<line class="st2" x1="357.7" y1="74.5" x2="357.7" y2="10.5"/>
<line class="st2" x1="238.3" y1="201.3" x2="238.3" y2="140.2"/>
<line class="st2" x1="123.8" y1="201.3" x2="123.8" y2="140.2"/>
<line class="st2" x1="357.7" y1="201.3" x2="357.7" y2="140.2"/>
<line class="st2" x1="123.8" y1="74.7" x2="238.3" y2="74.7"/>
<line class="st2" x1="123.8" y1="139.9" x2="238.3" y2="139.9"/>
<line class="st2" x1="124" y1="139.9" x2="124" y2="74.8"/>
<line class="st2" x1="238.3" y1="74.7" x2="357.7" y2="74.7"/>
<line class="st2" x1="238.3" y1="140.2" x2="357.7" y2="140.2"/>
<line class="st2" x1="238.3" y1="139.9" x2="238.3" y2="74.8"/>
<line class="st2" x1="123.8" y1="201.5" x2="238.3" y2="201.5"/>
<line class="st2" x1="357.7" y1="139.9" x2="357.7" y2="74.8"/>
<g>
	<g>
		<g>
			<line class="st2" x1="238.3" y1="201.5" x2="358.3" y2="201.5"/>
		</g>
	</g>
</g>
<line class="st2" x1="123.8" y1="262.6" x2="123.8" y2="201.5"/>
<line class="st2" x1="357.7" y1="262.6" x2="357.7" y2="201.5"/>
<line class="st2" x1="123.8" y1="262.8" x2="238.3" y2="262.8"/>
<g>
	<g>
		<g>
			<line class="st2" x1="238.3" y1="262.8" x2="358.3" y2="262.8"/>
		</g>
	</g>
</g>
<line class="st2" x1="238.3" y1="262.8" x2="238.3" y2="201.6"/>
<path d="M14.6,57.7h-1.2v5.1h-2.1V49.7h3.3c2.4,0,3.4,1.2,3.4,4C18,56.5,17,57.7,14.6,57.7z M14.5,51.6h-1.2v4.2h1.2
	c1.1,0,1.4-0.8,1.4-2.1S15.6,51.6,14.5,51.6z M28,62.8l-1.7-5.4h-1.2v5.4H23V49.7h3.3c2.4,0,3.3,1.2,3.3,3.9c0,1.6-0.3,2.8-1.5,3.4
	l1.9,5.8L28,62.8L28,62.8z M26.4,51.6h-1.3v4h1.3c1.1,0,1.3-0.9,1.3-2C27.7,52.5,27.5,51.6,26.4,51.6z M35.2,62.8V49.7h5.5v1.9h-3.4
	v3.7h3v1.9h-3V61h3.4v1.9L35.2,62.8L35.2,62.8z M45.4,57.2v-1.9h3.7v1.9H45.4z"/>
<g>
	<path d="M14.6,78.5h-1.2v5.1h-2.1V70.5h3.3c2.4,0,3.4,1.2,3.4,4S17,78.5,14.6,78.5z M14.5,72.4h-1.2v4.2h1.2c1.1,0,1.4-0.8,1.4-2.1
		S15.6,72.4,14.5,72.4z"/>
	<path d="M28,83.7l-1.7-5.4h-1.2v5.4H23V70.6h3.3c2.4,0,3.3,1.2,3.3,3.9c0,1.6-0.3,2.8-1.5,3.4l1.9,5.8L28,83.7L28,83.7z M26.4,72.4
		h-1.3v4h1.3c1.1,0,1.3-0.9,1.3-2S27.5,72.4,26.4,72.4z"/>
	<path d="M35.1,83.7V70.6h5.5v1.9h-3.4v3.7h3v1.9h-3v3.8h3.4v1.9L35.1,83.7L35.1,83.7z"/>
	<path d="M48.8,83.8c-1.2,0-2-0.5-2.5-1.1c-0.9-1-1-2.5-1-5.6s0.1-4.5,1-5.6c0.5-0.6,1.3-1.1,2.5-1.1c1,0,1.8,0.3,2.3,0.9
		c0.6,0.7,1,1.6,1,2.7H50c0-0.7-0.2-1.8-1.3-1.8c-0.5,0-0.8,0.2-1,0.5c-0.4,0.6-0.5,1.9-0.5,4.3s0.1,3.7,0.5,4.3
		c0.2,0.3,0.5,0.5,1,0.5c0.9,0,1.3-0.8,1.3-1.7v-2h-1.3v-1.7H52V80C52.2,82.5,50.8,83.8,48.8,83.8z"/>
	<path d="M62.5,83.7l-3.1-7.8v7.8h-2.1V70.6h1.8l3.1,7.8v-7.8h2.1v13.1H62.5L62.5,83.7z"/>
	<path d="M75,83.7l-0.5-2.6h-3L71,83.7h-2.2L72,70.6h2l3.2,13.1H75z M73,73.7l-1.1,5.5h2.2L73,73.7z"/>
	<path d="M86.9,83.7l-3.1-7.8v7.8h-2.1V70.6h1.8l3.1,7.8v-7.8h2.1v13.1H86.9L86.9,83.7z"/>
	<path d="M99.6,83c-0.6,0.6-1.3,0.8-2.3,0.8c-1.2,0-2-0.5-2.5-1.1c-0.9-1-1-2.5-1-5.6s0.1-4.5,1-5.6c0.5-0.6,1.3-1.1,2.5-1.1
		c1,0,1.7,0.3,2.3,0.8c0.7,0.6,1,1.6,1,2.8h-2.1c0-0.5-0.1-1-0.3-1.3s-0.5-0.5-1-0.5s-0.8,0.2-1,0.5c-0.4,0.6-0.5,1.9-0.5,4.3
		s0.1,3.7,0.5,4.3c0.2,0.3,0.5,0.5,1,0.5s0.8-0.2,1-0.5s0.3-0.8,0.3-1.3h2.1C100.6,81.4,100.2,82.4,99.6,83z"/>
	<path d="M109,78.5v5.1h-2.1v-5.1l-2.5-8h2.3l1.3,5.2l1.3-5.2h2.3L109,78.5z"/>
</g>
<g>
	<path d="M16.8,103.7c-0.5,0.5-1.4,0.9-2.6,0.9c-1.1,0-2-0.3-2.5-0.9c-0.6-0.6-0.8-1.4-0.8-2.8H13c0,0.7,0.1,1.1,0.4,1.5
		c0.2,0.2,0.5,0.3,1,0.3s0.8-0.1,1-0.4c0.3-0.3,0.3-0.8,0.3-1.5c0-1.4-0.2-1.7-1.2-2.1l-1.6-0.6c-1.3-0.6-1.8-1.3-1.8-3.3
		c0-1.2,0.3-2.1,1.1-2.8c0.6-0.5,1.3-0.8,2.2-0.8c1,0,1.8,0.3,2.4,0.8c0.7,0.7,0.9,1.6,0.9,2.8h-2.1c0-0.6,0-1-0.3-1.4
		c-0.2-0.2-0.5-0.4-0.9-0.4s-0.7,0.1-0.9,0.4s-0.3,0.7-0.3,1.3c0,1.1,0.2,1.4,1.1,1.8l1.5,0.6c1.6,0.6,2,1.5,2,3.7
		C17.7,102.2,17.5,103.1,16.8,103.7z"/>
	<path d="M22.8,104.5V91.4h2.1v13.1H22.8z"/>
	<path d="M29.8,104.5v-1.6l3.6-9.7h-3.3v-1.9h5.5v1.5l-3.5,9.7h3.5v1.9L29.8,104.5L29.8,104.5z"/>
	<path d="M40.5,104.5V91.4H46v1.9h-3.4V97h3v1.9h-3v3.8H46v1.9L40.5,104.5L40.5,104.5z"/>
	<path d="M51.3,98.7v-2.3h2.3v2.3H51.3z M51.3,104.5v-2.3h2.3v2.3H51.3z"/>
</g>
<g>
	<path d="M160.9,50.3c-0.5,0.5-1.3,0.8-2.3,0.8s-1.8-0.3-2.3-0.8c-0.6-0.6-0.8-1.4-0.8-2.8h1.6c0,0.9,0.1,1.3,0.4,1.7
		c0.2,0.2,0.6,0.4,1.1,0.4s0.9-0.2,1.1-0.4c0.3-0.4,0.4-0.9,0.4-1.7c0-1.5-0.2-2-1.3-2.4l-1.5-0.6c-1.3-0.6-1.8-1.3-1.8-3.3
		c0-1.1,0.3-2.1,1-2.7c0.5-0.5,1.2-0.8,2.1-0.8c1,0,1.7,0.3,2.2,0.8c0.7,0.6,0.9,1.5,0.9,2.7h-1.6c0-0.7-0.1-1.2-0.4-1.6
		c-0.2-0.3-0.6-0.4-1.1-0.4s-0.8,0.2-1,0.4c-0.3,0.3-0.5,0.9-0.5,1.6c0,1.3,0.2,1.7,1.2,2.1l1.5,0.6c1.5,0.6,1.8,1.5,1.8,3.6
		C161.8,48.8,161.6,49.6,160.9,50.3z"/>
	<path d="M173.7,50.9v-9.3l-2.1,6.1h-1l-2-6v9.2H167V37.8h1.5l2.6,7.3l2.6-7.3h1.5v13.1H173.7z"/>
	<path d="M185.8,50.9l-0.6-3.1h-3l-0.6,3.1h-1.7l3.1-13.1h1.5l3,13.1H185.8z M183.7,40.4l-1.2,6h2.4L183.7,40.4z"/>
	<path d="M192,50.9V37.8h1.6v11.7h3.5v1.4H192L192,50.9z"/>
	<path d="M202,50.9V37.8h1.6v11.7h3.5v1.4H202L202,50.9z"/>
</g>
<g>
	<path d="M273.3,50.9v-9.3l-2.1,6.1h-1l-2-6v9.2h-1.6V37.8h1.5l2.6,7.3l2.6-7.3h1.5v13.1H273.3z"/>
	<path d="M280.6,50.9V37.8h5.1v1.4h-3.5v4.4h3V45h-3v4.4h3.5v1.4L280.6,50.9L280.6,50.9z"/>
	<path d="M296.1,50c-0.5,0.5-1.2,0.9-2.2,0.9h-3V37.8h3c1.1,0,1.8,0.4,2.2,0.9c0.8,0.9,0.9,2.1,0.9,5.6C297,47.9,297,49.1,296.1,50z
		 M294.9,39.8c-0.2-0.3-0.6-0.5-1.1-0.5h-1.4v10.3h1.4c0.5,0,0.9-0.2,1.1-0.5c0.5-0.6,0.5-1.6,0.5-4.6
		C295.5,41.4,295.4,40.4,294.9,39.8z"/>
	<path d="M302.4,50.9V37.8h1.6v13.1H302.4z"/>
	<path d="M314.7,50.2c-0.6,0.6-1.3,0.9-2.2,0.9c-0.8,0-1.6-0.3-2.2-0.9c-0.5-0.5-0.8-1.3-0.8-2.3V37.8h1.6V48c0,1,0.6,1.6,1.4,1.6
		S314,49,314,48V37.8h1.6v10.1C315.5,48.9,315.2,49.7,314.7,50.2z"/>
	<path d="M327.8,50.9v-9.3l-2.1,6.1h-1l-2-6v9.2h-1.6V37.8h1.5l2.6,7.3l2.6-7.3h1.5v13.1H327.8z"/>
</g>
<g>
	<path d="M153.6,179.7v-13.1h1.6v11.7h3.5v1.4L153.6,179.7L153.6,179.7z"/>
	<path d="M168.8,179.7l-0.6-3.1h-3l-0.6,3.1h-1.7l3-13.1h1.5l3,13.1H168.8z M166.7,169.2l-1.2,6h2.4L166.7,169.2z"/>
	<path d="M179.8,179.7l-1.8-5.6h-1.4v5.6H175v-13.1h3c2,0,3.1,0.9,3.1,3.7c0,1.8-0.4,2.9-1.6,3.4l2,5.9L179.8,179.7L179.8,179.7z
		 M178,168.1h-1.4v4.6h1.4c1.2,0,1.5-0.9,1.5-2.3S179.2,168.1,178,168.1z"/>
	<path d="M189.4,179.9c-1,0-1.7-0.4-2.2-1c-0.8-0.9-1-2.1-1-5.7s0.1-4.8,1-5.7c0.5-0.6,1.2-1,2.2-1c0.9,0,1.6,0.3,2.1,0.8
		c0.6,0.6,0.9,1.5,0.9,2.6h-1.6c0-0.9-0.2-2-1.5-2c-0.5,0-0.9,0.2-1.1,0.5c-0.5,0.6-0.5,1.7-0.5,4.8s0.1,4.2,0.5,4.8
		c0.2,0.3,0.6,0.5,1.1,0.5c0.9,0,1.5-0.8,1.5-1.8v-2.6h-1.4v-1.4h3v3.9C192.4,178.8,191.1,179.9,189.4,179.9z"/>
	<path d="M197.8,179.7v-13.1h5.1v1.4h-3.5v4.4h3v1.4h-3v4.4h3.5v1.4h-5.1V179.7z"/>
</g>
<path d="M271.7,179.7l-1.7-5.2l-1.7,5.2h-1.7l2.5-6.8l-2.3-6.3h1.7l1.5,4.8l1.5-4.8h1.7l-2.4,6.3l2.6,6.8H271.7z M277.3,173.9v-1.4
	h3.6v1.4H277.3z M286.2,179.7v-13.1h1.6v11.7h3.5v1.4L286.2,179.7L286.2,179.7z M301.5,179.7l-0.6-3.1h-3l-0.6,3.1h-1.7l3-13.1h1.5
	l3,13.1H301.5z M299.3,169.2l-1.2,6h2.4L299.3,169.2z M312.5,179.7l-1.8-5.6h-1.4v5.6h-1.6v-13.1h3c2,0,3.1,0.9,3.1,3.7
	c0,1.8-0.4,2.9-1.6,3.4l2,5.9L312.5,179.7L312.5,179.7z M310.7,168.1h-1.4v4.6h1.4c1.2,0,1.5-0.9,1.5-2.3S311.9,168.1,310.7,168.1z
	 M322.1,179.9c-1,0-1.7-0.4-2.2-1c-0.8-0.9-1-2.1-1-5.7s0.1-4.8,1-5.7c0.5-0.6,1.2-1,2.2-1c0.9,0,1.6,0.3,2.1,0.8
	c0.6,0.6,0.9,1.5,0.9,2.6h-1.6c0-0.9-0.2-2-1.5-2c-0.5,0-0.9,0.2-1.1,0.5c-0.5,0.6-0.5,1.7-0.5,4.8s0.1,4.2,0.5,4.8
	c0.2,0.3,0.6,0.5,1.1,0.5c0.9,0,1.5-0.8,1.5-1.8v-2.6H322v-1.4h3v3.9C325.1,178.8,323.8,179.9,322.1,179.9z M330.5,179.7v-13.1h5.1
	v1.4h-3.5v4.4h3v1.4h-3v4.4h3.5v1.4L330.5,179.7L330.5,179.7z"/>
<path d="M178.1,108.5v-1.3h6.1v1.3H178.1z M199.1,118.8c-0.5,0.7-1.6,1.1-2.7,1.1s-2.2-0.4-2.7-1.1c-1.1-1.1-1.3-2.3-1.3-6.1
	c0-2.9,0.2-4.7,0.9-6.7l3.6-10.1h1.3l-3.8,10.5c0.5-0.5,1.3-0.7,2.2-0.7c1.1,0,1.8,0.4,2.5,1.1c0.9,0.9,1.1,1.8,1.1,6.1
	C200.3,116.4,200,117.7,199.1,118.8z M198.2,107.4c-0.5-0.5-1.1-0.7-1.8-0.7s-1.3,0.2-1.8,0.7c-0.7,0.7-0.9,2.2-0.9,5.2
	s0.2,4.5,0.9,5.2c0.5,0.5,1.1,0.7,1.8,0.7s1.3-0.2,1.8-0.7c0.7-0.7,0.9-2.2,0.9-5.2S198.9,108.3,198.2,107.4z"/>
<path d="M288.6,118.8c-0.5,0.7-1.6,1.1-2.7,1.1c-1.1,0-2.2-0.4-2.7-1.1c-1.1-1.1-1.3-2.3-1.3-6.1c0-2.9,0.2-4.7,0.9-6.7l3.6-10.1
	h1.3l-3.8,10.5c0.5-0.5,1.3-0.7,2.2-0.7c1.1,0,1.8,0.4,2.5,1.1c0.9,0.9,1.1,1.8,1.1,6.1C289.8,116.4,289.5,117.7,288.6,118.8z
	 M287.7,107.4c-0.5-0.5-1.1-0.7-1.8-0.7c-0.7,0-1.3,0.2-1.8,0.7c-0.7,0.7-0.9,2.2-0.9,5.2s0.2,4.5,0.9,5.2c0.5,0.5,1.1,0.7,1.8,0.7
	c0.7,0,1.3-0.2,1.8-0.7c0.7-0.7,0.9-2.2,0.9-5.2S288.4,108.3,287.7,107.4z"/>
<path d="M319.8,118.2c-0.5,0.5-1.5,1-2.6,1c-1,0-2-0.5-2.6-1c-0.9-1-1.2-2-1.2-5.3c0-3.6,0.2-4.1,0.9-4.9c0.3-0.3,0.7-0.7,1.2-1
	c-0.5-0.2-1-0.7-1.2-1.2c-0.5-0.7-0.7-1.5-0.7-3.9c0-2.9,0.3-3.7,1-4.6c0.5-0.7,1.5-1,2.6-1c1,0,1.9,0.3,2.6,1c0.9,0.9,1,1.7,1,4.6
	c0,2.4-0.2,3.2-0.7,3.9c-0.3,0.5-0.7,0.9-1.2,1.2c0.5,0.2,1,0.5,1.2,1c0.7,0.9,0.9,1.4,0.9,4.9C320.9,116.2,320.6,117.2,319.8,118.2
	z M318.9,108.3c-0.5-0.5-1-0.7-1.7-0.7s-1.2,0.2-1.7,0.7c-0.7,0.7-0.9,1.4-0.9,4.8c0,2.9,0.2,3.9,0.9,4.6c0.3,0.5,1,0.7,1.7,0.7
	s1.2-0.2,1.7-0.7c0.7-0.7,0.9-1.5,0.9-4.6C319.8,109.5,319.6,109,318.9,108.3z M318.7,98.1c-0.3-0.3-1-0.7-1.5-0.7
	c-0.7,0-1.2,0.2-1.5,0.7c-0.5,0.5-0.9,1.5-0.9,3.9s0.2,3.2,0.9,3.9c0.3,0.3,0.9,0.5,1.5,0.5c0.7,0,1.2-0.2,1.5-0.5
	c0.5-0.7,0.9-1.5,0.9-3.9S319.2,98.8,318.7,98.1z M298.6,108.5v-1.2h5.8v1.2H298.6z"/>
<path d="M185.5,244.6v-22.2l-3.2,3.1v-1.6l3.2-2.9h1.3v23.6L185.5,244.6L185.5,244.6z M197.6,244.6v-1.1L203,230
	c0.5-1.4,1.3-3.1,1.3-5.2c0-2-1.1-3.1-2.5-3.1s-2.5,1.1-2.5,3.1v1.8H198v-1.8c0-1.4,0.4-2.3,1.1-3.1c0.5-0.7,1.6-1.1,2.7-1.1
	s2.2,0.4,2.7,1.1c0.7,0.7,1.1,1.6,1.1,3.1c0,1.8-0.7,4-1.4,5.6l-5.2,13h6.7v1.1L197.6,244.6L197.6,244.6z M167.7,233.4v-1.3h6.1v1.3
	H167.7z"/>
<path d="M267.5,245.4v-21.9l-3.2,3v-1.6l3.2-2.8h1.2v23.3H267.5L267.5,245.4z M286.1,241.1v4.3h-1.2v-4.3h-6V240l5.9-18h1.2l-5.9,18
	h4.8v-7.5h1.2v7.5h1.6v1.1H286.1z M295.2,234.4v-1.2h6v1.2H295.2z M312.6,245.4v-21.9l-3.2,3v-1.6l3.2-2.8h1.2v23.3H312.6
	L312.6,245.4z M331.3,244.5c-0.5,0.5-1.6,1.1-2.7,1.1s-2.1-0.5-2.7-1.1c-0.9-1.1-1.2-2.1-1.2-5.5c0-3.7,0.2-4.3,0.9-5.2
	c0.4-0.4,0.7-0.7,1.2-1.1c-0.5-0.2-1.1-0.7-1.2-1.2c-0.5-0.7-0.7-1.6-0.7-4.1c0-3,0.4-3.9,1.1-4.8c0.5-0.7,1.6-1.1,2.7-1.1
	s2,0.4,2.7,1.1c0.9,0.9,1.1,1.8,1.1,4.8c0,2.5-0.2,3.4-0.7,4.1c-0.4,0.5-0.7,0.9-1.2,1.2c0.5,0.2,1.1,0.5,1.2,1.1
	c0.7,0.9,0.9,1.4,0.9,5.2C332.5,242.3,332.2,243.4,331.3,244.5z M330.2,234.2c-0.5-0.5-1.1-0.7-1.8-0.7c-0.7,0-1.2,0.2-1.8,0.7
	c-0.7,0.7-0.9,1.4-0.9,5c0,3,0.2,4.1,0.9,4.8c0.4,0.5,1.1,0.7,1.8,0.7c0.7,0,1.2-0.2,1.8-0.7c0.7-0.7,0.9-1.6,0.9-4.8
	C331.3,235.4,330.9,234.9,330.2,234.2z M330.2,223.5c-0.4-0.4-1.1-0.7-1.6-0.7c-0.7,0-1.2,0.2-1.6,0.7c-0.5,0.5-0.9,1.6-0.9,4.1
	s0.2,3.4,0.9,4.1c0.4,0.4,0.9,0.5,1.6,0.5s1.2-0.2,1.6-0.5c0.5-0.7,0.9-1.6,0.9-4.1S330.8,224.2,330.2,223.5z"/>
<path d="M163.8,120v-1.1l5.4-13.5c0.5-1.4,1.3-3.1,1.3-5.2c0-2-1.1-3.1-2.5-3.1s-2.5,1.1-2.5,3.1v1.8h-1.3v-1.8
	c0-1.4,0.4-2.3,1.1-3.1c0.5-0.7,1.6-1.1,2.7-1.1s2.2,0.4,2.7,1.1c0.7,0.7,1.1,1.6,1.1,3.1c0,1.8-0.7,4-1.4,5.6l-5.2,13h6.7v1.1
	L163.8,120L163.8,120z"/>
<path d="M159.1,243.1c-0.5,0.5-1.5,1-2.6,1c-1,0-2-0.5-2.6-1c-0.9-1-1.2-2-1.2-5.3c0-3.6,0.2-4.1,0.9-4.9c0.3-0.3,0.7-0.7,1.2-1
	c-0.5-0.2-1-0.7-1.2-1.2c-0.5-0.7-0.7-1.5-0.7-3.9c0-2.9,0.3-3.7,1-4.6c0.5-0.7,1.5-1,2.6-1c1,0,1.9,0.3,2.6,1c0.9,0.9,1,1.7,1,4.6
	c0,2.4-0.2,3.2-0.7,3.9c-0.3,0.5-0.7,0.9-1.2,1.2c0.5,0.2,1,0.5,1.2,1c0.7,0.9,0.9,1.4,0.9,4.9C160.2,241.1,159.9,242.1,159.1,243.1
	z M158.2,233.2c-0.5-0.5-1-0.7-1.7-0.7s-1.2,0.2-1.7,0.7c-0.7,0.7-0.9,1.4-0.9,4.8c0,2.9,0.2,3.9,0.9,4.6c0.3,0.5,1,0.7,1.7,0.7
	s1.2-0.2,1.7-0.7c0.7-0.7,0.9-1.5,0.9-4.6C159.1,234.4,158.9,233.9,158.2,233.2z M158,222.9c-0.3-0.3-1-0.7-1.5-0.7
	c-0.7,0-1.2,0.2-1.5,0.7c-0.5,0.5-0.9,1.5-0.9,3.9c0,2.4,0.2,3.2,0.9,3.9c0.3,0.3,0.9,0.5,1.5,0.5c0.7,0,1.2-0.2,1.5-0.5
	c0.5-0.7,0.9-1.5,0.9-3.9C158.9,224.4,158.5,223.7,158,222.9z M167.7,233.4v-1.2h5.8v1.2H167.7z"/>
</svg>
